G75*
G70*
%OFA0B0*%
%FSLAX24Y24*%
%IPPOS*%
%LPD*%
%AMOC8*
5,1,8,0,0,1.08239X$1,22.5*
%
%ADD10C,0.0000*%
D10*
X000151Y001240D02*
X000151Y033129D01*
X031057Y033129D01*
X031057Y001240D01*
X000151Y001240D01*
X000467Y002027D02*
X000469Y002070D01*
X000475Y002112D01*
X000485Y002154D01*
X000498Y002195D01*
X000515Y002235D01*
X000536Y002272D01*
X000560Y002308D01*
X000587Y002341D01*
X000617Y002372D01*
X000650Y002400D01*
X000685Y002425D01*
X000722Y002446D01*
X000761Y002464D01*
X000801Y002478D01*
X000843Y002489D01*
X000885Y002496D01*
X000928Y002499D01*
X000971Y002498D01*
X001014Y002493D01*
X001056Y002484D01*
X001097Y002472D01*
X001137Y002456D01*
X001175Y002436D01*
X001211Y002413D01*
X001245Y002386D01*
X001277Y002357D01*
X001305Y002325D01*
X001331Y002290D01*
X001353Y002254D01*
X001372Y002215D01*
X001387Y002175D01*
X001399Y002134D01*
X001407Y002091D01*
X001411Y002048D01*
X001411Y002006D01*
X001407Y001963D01*
X001399Y001920D01*
X001387Y001879D01*
X001372Y001839D01*
X001353Y001800D01*
X001331Y001764D01*
X001305Y001729D01*
X001277Y001697D01*
X001245Y001668D01*
X001211Y001641D01*
X001175Y001618D01*
X001137Y001598D01*
X001097Y001582D01*
X001056Y001570D01*
X001014Y001561D01*
X000971Y001556D01*
X000928Y001555D01*
X000885Y001558D01*
X000843Y001565D01*
X000801Y001576D01*
X000761Y001590D01*
X000722Y001608D01*
X000685Y001629D01*
X000650Y001654D01*
X000617Y001682D01*
X000587Y001713D01*
X000560Y001746D01*
X000536Y001782D01*
X000515Y001819D01*
X000498Y001859D01*
X000485Y001900D01*
X000475Y001942D01*
X000469Y001984D01*
X000467Y002027D01*
X007470Y009846D02*
X007472Y009885D01*
X007478Y009924D01*
X007488Y009962D01*
X007501Y009999D01*
X007518Y010034D01*
X007538Y010068D01*
X007562Y010099D01*
X007589Y010128D01*
X007618Y010154D01*
X007650Y010177D01*
X007684Y010197D01*
X007720Y010213D01*
X007757Y010225D01*
X007796Y010234D01*
X007835Y010239D01*
X007874Y010240D01*
X007913Y010237D01*
X007952Y010230D01*
X007989Y010219D01*
X008026Y010205D01*
X008061Y010187D01*
X008094Y010166D01*
X008125Y010141D01*
X008153Y010114D01*
X008178Y010084D01*
X008200Y010051D01*
X008219Y010017D01*
X008234Y009981D01*
X008246Y009943D01*
X008254Y009905D01*
X008258Y009866D01*
X008258Y009826D01*
X008254Y009787D01*
X008246Y009749D01*
X008234Y009711D01*
X008219Y009675D01*
X008200Y009641D01*
X008178Y009608D01*
X008153Y009578D01*
X008125Y009551D01*
X008094Y009526D01*
X008061Y009505D01*
X008026Y009487D01*
X007989Y009473D01*
X007952Y009462D01*
X007913Y009455D01*
X007874Y009452D01*
X007835Y009453D01*
X007796Y009458D01*
X007757Y009467D01*
X007720Y009479D01*
X007684Y009495D01*
X007650Y009515D01*
X007618Y009538D01*
X007589Y009564D01*
X007562Y009593D01*
X007538Y009624D01*
X007518Y009658D01*
X007501Y009693D01*
X007488Y009730D01*
X007478Y009768D01*
X007472Y009807D01*
X007470Y009846D01*
X025119Y010240D02*
X025121Y010279D01*
X025127Y010318D01*
X025137Y010356D01*
X025150Y010393D01*
X025167Y010428D01*
X025187Y010462D01*
X025211Y010493D01*
X025238Y010522D01*
X025267Y010548D01*
X025299Y010571D01*
X025333Y010591D01*
X025369Y010607D01*
X025406Y010619D01*
X025445Y010628D01*
X025484Y010633D01*
X025523Y010634D01*
X025562Y010631D01*
X025601Y010624D01*
X025638Y010613D01*
X025675Y010599D01*
X025710Y010581D01*
X025743Y010560D01*
X025774Y010535D01*
X025802Y010508D01*
X025827Y010478D01*
X025849Y010445D01*
X025868Y010411D01*
X025883Y010375D01*
X025895Y010337D01*
X025903Y010299D01*
X025907Y010260D01*
X025907Y010220D01*
X025903Y010181D01*
X025895Y010143D01*
X025883Y010105D01*
X025868Y010069D01*
X025849Y010035D01*
X025827Y010002D01*
X025802Y009972D01*
X025774Y009945D01*
X025743Y009920D01*
X025710Y009899D01*
X025675Y009881D01*
X025638Y009867D01*
X025601Y009856D01*
X025562Y009849D01*
X025523Y009846D01*
X025484Y009847D01*
X025445Y009852D01*
X025406Y009861D01*
X025369Y009873D01*
X025333Y009889D01*
X025299Y009909D01*
X025267Y009932D01*
X025238Y009958D01*
X025211Y009987D01*
X025187Y010018D01*
X025167Y010052D01*
X025150Y010087D01*
X025137Y010124D01*
X025127Y010162D01*
X025121Y010201D01*
X025119Y010240D01*
X029600Y002027D02*
X029602Y002070D01*
X029608Y002112D01*
X029618Y002154D01*
X029631Y002195D01*
X029648Y002235D01*
X029669Y002272D01*
X029693Y002308D01*
X029720Y002341D01*
X029750Y002372D01*
X029783Y002400D01*
X029818Y002425D01*
X029855Y002446D01*
X029894Y002464D01*
X029934Y002478D01*
X029976Y002489D01*
X030018Y002496D01*
X030061Y002499D01*
X030104Y002498D01*
X030147Y002493D01*
X030189Y002484D01*
X030230Y002472D01*
X030270Y002456D01*
X030308Y002436D01*
X030344Y002413D01*
X030378Y002386D01*
X030410Y002357D01*
X030438Y002325D01*
X030464Y002290D01*
X030486Y002254D01*
X030505Y002215D01*
X030520Y002175D01*
X030532Y002134D01*
X030540Y002091D01*
X030544Y002048D01*
X030544Y002006D01*
X030540Y001963D01*
X030532Y001920D01*
X030520Y001879D01*
X030505Y001839D01*
X030486Y001800D01*
X030464Y001764D01*
X030438Y001729D01*
X030410Y001697D01*
X030378Y001668D01*
X030344Y001641D01*
X030308Y001618D01*
X030270Y001598D01*
X030230Y001582D01*
X030189Y001570D01*
X030147Y001561D01*
X030104Y001556D01*
X030061Y001555D01*
X030018Y001558D01*
X029976Y001565D01*
X029934Y001576D01*
X029894Y001590D01*
X029855Y001608D01*
X029818Y001629D01*
X029783Y001654D01*
X029750Y001682D01*
X029720Y001713D01*
X029693Y001746D01*
X029669Y001782D01*
X029648Y001819D01*
X029631Y001859D01*
X029618Y001900D01*
X029608Y001942D01*
X029602Y001984D01*
X029600Y002027D01*
X028676Y027090D02*
X028678Y027133D01*
X028684Y027176D01*
X028694Y027218D01*
X028707Y027259D01*
X028724Y027299D01*
X028745Y027337D01*
X028769Y027373D01*
X028797Y027406D01*
X028827Y027437D01*
X028860Y027465D01*
X028895Y027490D01*
X028932Y027512D01*
X028972Y027530D01*
X029012Y027544D01*
X029054Y027555D01*
X029097Y027562D01*
X029140Y027565D01*
X029183Y027564D01*
X029226Y027559D01*
X029269Y027550D01*
X029310Y027538D01*
X029350Y027521D01*
X029388Y027501D01*
X029425Y027478D01*
X029459Y027452D01*
X029491Y027422D01*
X029519Y027390D01*
X029545Y027355D01*
X029568Y027318D01*
X029587Y027279D01*
X029602Y027239D01*
X029614Y027197D01*
X029622Y027155D01*
X029626Y027112D01*
X029626Y027068D01*
X029622Y027025D01*
X029614Y026983D01*
X029602Y026941D01*
X029587Y026901D01*
X029568Y026862D01*
X029545Y026825D01*
X029519Y026790D01*
X029491Y026758D01*
X029459Y026728D01*
X029425Y026702D01*
X029389Y026679D01*
X029350Y026659D01*
X029310Y026642D01*
X029269Y026630D01*
X029226Y026621D01*
X029183Y026616D01*
X029140Y026615D01*
X029097Y026618D01*
X029054Y026625D01*
X029012Y026636D01*
X028972Y026650D01*
X028932Y026668D01*
X028895Y026690D01*
X028860Y026715D01*
X028827Y026743D01*
X028797Y026774D01*
X028769Y026807D01*
X028745Y026843D01*
X028724Y026881D01*
X028707Y026921D01*
X028694Y026962D01*
X028684Y027004D01*
X028678Y027047D01*
X028676Y027090D01*
X028676Y029964D02*
X028678Y030007D01*
X028684Y030050D01*
X028694Y030092D01*
X028707Y030133D01*
X028724Y030173D01*
X028745Y030211D01*
X028769Y030247D01*
X028797Y030280D01*
X028827Y030311D01*
X028860Y030339D01*
X028895Y030364D01*
X028932Y030386D01*
X028972Y030404D01*
X029012Y030418D01*
X029054Y030429D01*
X029097Y030436D01*
X029140Y030439D01*
X029183Y030438D01*
X029226Y030433D01*
X029269Y030424D01*
X029310Y030412D01*
X029350Y030395D01*
X029388Y030375D01*
X029425Y030352D01*
X029459Y030326D01*
X029491Y030296D01*
X029519Y030264D01*
X029545Y030229D01*
X029568Y030192D01*
X029587Y030153D01*
X029602Y030113D01*
X029614Y030071D01*
X029622Y030029D01*
X029626Y029986D01*
X029626Y029942D01*
X029622Y029899D01*
X029614Y029857D01*
X029602Y029815D01*
X029587Y029775D01*
X029568Y029736D01*
X029545Y029699D01*
X029519Y029664D01*
X029491Y029632D01*
X029459Y029602D01*
X029425Y029576D01*
X029389Y029553D01*
X029350Y029533D01*
X029310Y029516D01*
X029269Y029504D01*
X029226Y029495D01*
X029183Y029490D01*
X029140Y029489D01*
X029097Y029492D01*
X029054Y029499D01*
X029012Y029510D01*
X028972Y029524D01*
X028932Y029542D01*
X028895Y029564D01*
X028860Y029589D01*
X028827Y029617D01*
X028797Y029648D01*
X028769Y029681D01*
X028745Y029717D01*
X028724Y029755D01*
X028707Y029795D01*
X028694Y029836D01*
X028684Y029878D01*
X028678Y029921D01*
X028676Y029964D01*
X029547Y032198D02*
X029549Y032241D01*
X029555Y032283D01*
X029565Y032325D01*
X029578Y032366D01*
X029595Y032406D01*
X029616Y032443D01*
X029640Y032479D01*
X029667Y032512D01*
X029697Y032543D01*
X029730Y032571D01*
X029765Y032596D01*
X029802Y032617D01*
X029841Y032635D01*
X029881Y032649D01*
X029923Y032660D01*
X029965Y032667D01*
X030008Y032670D01*
X030051Y032669D01*
X030094Y032664D01*
X030136Y032655D01*
X030177Y032643D01*
X030217Y032627D01*
X030255Y032607D01*
X030291Y032584D01*
X030325Y032557D01*
X030357Y032528D01*
X030385Y032496D01*
X030411Y032461D01*
X030433Y032425D01*
X030452Y032386D01*
X030467Y032346D01*
X030479Y032305D01*
X030487Y032262D01*
X030491Y032219D01*
X030491Y032177D01*
X030487Y032134D01*
X030479Y032091D01*
X030467Y032050D01*
X030452Y032010D01*
X030433Y031971D01*
X030411Y031935D01*
X030385Y031900D01*
X030357Y031868D01*
X030325Y031839D01*
X030291Y031812D01*
X030255Y031789D01*
X030217Y031769D01*
X030177Y031753D01*
X030136Y031741D01*
X030094Y031732D01*
X030051Y031727D01*
X030008Y031726D01*
X029965Y031729D01*
X029923Y031736D01*
X029881Y031747D01*
X029841Y031761D01*
X029802Y031779D01*
X029765Y031800D01*
X029730Y031825D01*
X029697Y031853D01*
X029667Y031884D01*
X029640Y031917D01*
X029616Y031953D01*
X029595Y031990D01*
X029578Y032030D01*
X029565Y032071D01*
X029555Y032113D01*
X029549Y032155D01*
X029547Y032198D01*
X000504Y032305D02*
X000506Y032348D01*
X000512Y032390D01*
X000522Y032432D01*
X000535Y032473D01*
X000552Y032513D01*
X000573Y032550D01*
X000597Y032586D01*
X000624Y032619D01*
X000654Y032650D01*
X000687Y032678D01*
X000722Y032703D01*
X000759Y032724D01*
X000798Y032742D01*
X000838Y032756D01*
X000880Y032767D01*
X000922Y032774D01*
X000965Y032777D01*
X001008Y032776D01*
X001051Y032771D01*
X001093Y032762D01*
X001134Y032750D01*
X001174Y032734D01*
X001212Y032714D01*
X001248Y032691D01*
X001282Y032664D01*
X001314Y032635D01*
X001342Y032603D01*
X001368Y032568D01*
X001390Y032532D01*
X001409Y032493D01*
X001424Y032453D01*
X001436Y032412D01*
X001444Y032369D01*
X001448Y032326D01*
X001448Y032284D01*
X001444Y032241D01*
X001436Y032198D01*
X001424Y032157D01*
X001409Y032117D01*
X001390Y032078D01*
X001368Y032042D01*
X001342Y032007D01*
X001314Y031975D01*
X001282Y031946D01*
X001248Y031919D01*
X001212Y031896D01*
X001174Y031876D01*
X001134Y031860D01*
X001093Y031848D01*
X001051Y031839D01*
X001008Y031834D01*
X000965Y031833D01*
X000922Y031836D01*
X000880Y031843D01*
X000838Y031854D01*
X000798Y031868D01*
X000759Y031886D01*
X000722Y031907D01*
X000687Y031932D01*
X000654Y031960D01*
X000624Y031991D01*
X000597Y032024D01*
X000573Y032060D01*
X000552Y032097D01*
X000535Y032137D01*
X000522Y032178D01*
X000512Y032220D01*
X000506Y032262D01*
X000504Y032305D01*
M02*
