G75*
G70*
%OFA0B0*%
%FSLAX24Y24*%
%IPPOS*%
%LPD*%
%AMOC8*
5,1,8,0,0,1.08239X$1,22.5*
%
%ADD10C,0.0000*%
D10*
X000780Y000781D02*
X000780Y015151D01*
X041331Y015151D01*
X041331Y000781D01*
X000780Y000781D01*
X001725Y002946D02*
X001727Y003003D01*
X001733Y003060D01*
X001743Y003116D01*
X001756Y003172D01*
X001774Y003226D01*
X001795Y003279D01*
X001820Y003330D01*
X001848Y003380D01*
X001880Y003427D01*
X001914Y003473D01*
X001952Y003515D01*
X001993Y003555D01*
X002036Y003593D01*
X002082Y003627D01*
X002130Y003657D01*
X002180Y003685D01*
X002232Y003709D01*
X002286Y003729D01*
X002340Y003745D01*
X002396Y003758D01*
X002452Y003767D01*
X002509Y003772D01*
X002566Y003773D01*
X002623Y003770D01*
X002680Y003763D01*
X002736Y003752D01*
X002791Y003738D01*
X002845Y003719D01*
X002898Y003697D01*
X002949Y003672D01*
X002998Y003642D01*
X003045Y003610D01*
X003090Y003574D01*
X003132Y003536D01*
X003171Y003494D01*
X003207Y003450D01*
X003241Y003404D01*
X003271Y003355D01*
X003297Y003305D01*
X003320Y003253D01*
X003339Y003199D01*
X003355Y003144D01*
X003367Y003088D01*
X003375Y003031D01*
X003379Y002975D01*
X003379Y002917D01*
X003375Y002861D01*
X003367Y002804D01*
X003355Y002748D01*
X003339Y002693D01*
X003320Y002639D01*
X003297Y002587D01*
X003271Y002537D01*
X003241Y002488D01*
X003207Y002442D01*
X003171Y002398D01*
X003132Y002356D01*
X003090Y002318D01*
X003045Y002282D01*
X002998Y002250D01*
X002949Y002220D01*
X002898Y002195D01*
X002845Y002173D01*
X002791Y002154D01*
X002736Y002140D01*
X002680Y002129D01*
X002623Y002122D01*
X002566Y002119D01*
X002509Y002120D01*
X002452Y002125D01*
X002396Y002134D01*
X002340Y002147D01*
X002286Y002163D01*
X002232Y002183D01*
X002180Y002207D01*
X002130Y002235D01*
X002082Y002265D01*
X002036Y002299D01*
X001993Y002337D01*
X001952Y002377D01*
X001914Y002419D01*
X001880Y002465D01*
X001848Y002512D01*
X001820Y002562D01*
X001795Y002613D01*
X001774Y002666D01*
X001756Y002720D01*
X001743Y002776D01*
X001733Y002832D01*
X001727Y002889D01*
X001725Y002946D01*
X013665Y004178D02*
X013667Y004239D01*
X013673Y004301D01*
X013683Y004361D01*
X013697Y004421D01*
X013714Y004480D01*
X013736Y004538D01*
X013761Y004594D01*
X013790Y004649D01*
X013822Y004701D01*
X013857Y004751D01*
X013896Y004799D01*
X013938Y004844D01*
X013982Y004887D01*
X014030Y004926D01*
X014079Y004963D01*
X014131Y004996D01*
X014185Y005025D01*
X014241Y005051D01*
X014298Y005074D01*
X014357Y005092D01*
X014416Y005107D01*
X014477Y005118D01*
X014538Y005125D01*
X014600Y005128D01*
X014661Y005127D01*
X014722Y005122D01*
X014783Y005113D01*
X014843Y005100D01*
X014903Y005083D01*
X014961Y005063D01*
X015017Y005039D01*
X015072Y005011D01*
X015125Y004979D01*
X015176Y004945D01*
X015224Y004907D01*
X015270Y004866D01*
X015313Y004822D01*
X015354Y004775D01*
X015391Y004726D01*
X015425Y004675D01*
X015455Y004622D01*
X015482Y004566D01*
X015505Y004509D01*
X015525Y004451D01*
X015541Y004392D01*
X015553Y004331D01*
X015561Y004270D01*
X015565Y004209D01*
X015565Y004147D01*
X015561Y004086D01*
X015553Y004025D01*
X015541Y003964D01*
X015525Y003905D01*
X015505Y003847D01*
X015482Y003790D01*
X015455Y003734D01*
X015425Y003681D01*
X015391Y003630D01*
X015354Y003581D01*
X015313Y003534D01*
X015270Y003490D01*
X015224Y003449D01*
X015176Y003411D01*
X015125Y003377D01*
X015072Y003345D01*
X015017Y003317D01*
X014961Y003293D01*
X014903Y003273D01*
X014843Y003256D01*
X014783Y003243D01*
X014722Y003234D01*
X014661Y003229D01*
X014600Y003228D01*
X014538Y003231D01*
X014477Y003238D01*
X014416Y003249D01*
X014357Y003264D01*
X014298Y003282D01*
X014241Y003305D01*
X014185Y003331D01*
X014131Y003360D01*
X014079Y003393D01*
X014030Y003430D01*
X013982Y003469D01*
X013938Y003512D01*
X013896Y003557D01*
X013857Y003605D01*
X013822Y003655D01*
X013790Y003707D01*
X013761Y003762D01*
X013736Y003818D01*
X013714Y003876D01*
X013697Y003935D01*
X013683Y003995D01*
X013673Y004055D01*
X013667Y004117D01*
X013665Y004178D01*
X029885Y004178D02*
X029887Y004239D01*
X029893Y004301D01*
X029903Y004361D01*
X029917Y004421D01*
X029934Y004480D01*
X029956Y004538D01*
X029981Y004594D01*
X030010Y004649D01*
X030042Y004701D01*
X030077Y004751D01*
X030116Y004799D01*
X030158Y004844D01*
X030202Y004887D01*
X030250Y004926D01*
X030299Y004963D01*
X030351Y004996D01*
X030405Y005025D01*
X030461Y005051D01*
X030518Y005074D01*
X030577Y005092D01*
X030636Y005107D01*
X030697Y005118D01*
X030758Y005125D01*
X030820Y005128D01*
X030881Y005127D01*
X030942Y005122D01*
X031003Y005113D01*
X031063Y005100D01*
X031123Y005083D01*
X031181Y005063D01*
X031237Y005039D01*
X031292Y005011D01*
X031345Y004979D01*
X031396Y004945D01*
X031444Y004907D01*
X031490Y004866D01*
X031533Y004822D01*
X031574Y004775D01*
X031611Y004726D01*
X031645Y004675D01*
X031675Y004622D01*
X031702Y004566D01*
X031725Y004509D01*
X031745Y004451D01*
X031761Y004392D01*
X031773Y004331D01*
X031781Y004270D01*
X031785Y004209D01*
X031785Y004147D01*
X031781Y004086D01*
X031773Y004025D01*
X031761Y003964D01*
X031745Y003905D01*
X031725Y003847D01*
X031702Y003790D01*
X031675Y003734D01*
X031645Y003681D01*
X031611Y003630D01*
X031574Y003581D01*
X031533Y003534D01*
X031490Y003490D01*
X031444Y003449D01*
X031396Y003411D01*
X031345Y003377D01*
X031292Y003345D01*
X031237Y003317D01*
X031181Y003293D01*
X031123Y003273D01*
X031063Y003256D01*
X031003Y003243D01*
X030942Y003234D01*
X030881Y003229D01*
X030820Y003228D01*
X030758Y003231D01*
X030697Y003238D01*
X030636Y003249D01*
X030577Y003264D01*
X030518Y003282D01*
X030461Y003305D01*
X030405Y003331D01*
X030351Y003360D01*
X030299Y003393D01*
X030250Y003430D01*
X030202Y003469D01*
X030158Y003512D01*
X030116Y003557D01*
X030077Y003605D01*
X030042Y003655D01*
X030010Y003707D01*
X029981Y003762D01*
X029956Y003818D01*
X029934Y003876D01*
X029917Y003935D01*
X029903Y003995D01*
X029893Y004055D01*
X029887Y004117D01*
X029885Y004178D01*
X037355Y002946D02*
X037357Y003003D01*
X037363Y003060D01*
X037373Y003116D01*
X037386Y003172D01*
X037404Y003226D01*
X037425Y003279D01*
X037450Y003330D01*
X037478Y003380D01*
X037510Y003427D01*
X037544Y003473D01*
X037582Y003515D01*
X037623Y003555D01*
X037666Y003593D01*
X037712Y003627D01*
X037760Y003657D01*
X037810Y003685D01*
X037862Y003709D01*
X037916Y003729D01*
X037970Y003745D01*
X038026Y003758D01*
X038082Y003767D01*
X038139Y003772D01*
X038196Y003773D01*
X038253Y003770D01*
X038310Y003763D01*
X038366Y003752D01*
X038421Y003738D01*
X038475Y003719D01*
X038528Y003697D01*
X038579Y003672D01*
X038628Y003642D01*
X038675Y003610D01*
X038720Y003574D01*
X038762Y003536D01*
X038801Y003494D01*
X038837Y003450D01*
X038871Y003404D01*
X038901Y003355D01*
X038927Y003305D01*
X038950Y003253D01*
X038969Y003199D01*
X038985Y003144D01*
X038997Y003088D01*
X039005Y003031D01*
X039009Y002975D01*
X039009Y002917D01*
X039005Y002861D01*
X038997Y002804D01*
X038985Y002748D01*
X038969Y002693D01*
X038950Y002639D01*
X038927Y002587D01*
X038901Y002537D01*
X038871Y002488D01*
X038837Y002442D01*
X038801Y002398D01*
X038762Y002356D01*
X038720Y002318D01*
X038675Y002282D01*
X038628Y002250D01*
X038579Y002220D01*
X038528Y002195D01*
X038475Y002173D01*
X038421Y002154D01*
X038366Y002140D01*
X038310Y002129D01*
X038253Y002122D01*
X038196Y002119D01*
X038139Y002120D01*
X038082Y002125D01*
X038026Y002134D01*
X037970Y002147D01*
X037916Y002163D01*
X037862Y002183D01*
X037810Y002207D01*
X037760Y002235D01*
X037712Y002265D01*
X037666Y002299D01*
X037623Y002337D01*
X037582Y002377D01*
X037544Y002419D01*
X037510Y002465D01*
X037478Y002512D01*
X037450Y002562D01*
X037425Y002613D01*
X037404Y002666D01*
X037386Y002720D01*
X037373Y002776D01*
X037363Y002832D01*
X037357Y002889D01*
X037355Y002946D01*
X037355Y013379D02*
X037357Y013436D01*
X037363Y013493D01*
X037373Y013549D01*
X037386Y013605D01*
X037404Y013659D01*
X037425Y013712D01*
X037450Y013763D01*
X037478Y013813D01*
X037510Y013860D01*
X037544Y013906D01*
X037582Y013948D01*
X037623Y013988D01*
X037666Y014026D01*
X037712Y014060D01*
X037760Y014090D01*
X037810Y014118D01*
X037862Y014142D01*
X037916Y014162D01*
X037970Y014178D01*
X038026Y014191D01*
X038082Y014200D01*
X038139Y014205D01*
X038196Y014206D01*
X038253Y014203D01*
X038310Y014196D01*
X038366Y014185D01*
X038421Y014171D01*
X038475Y014152D01*
X038528Y014130D01*
X038579Y014105D01*
X038628Y014075D01*
X038675Y014043D01*
X038720Y014007D01*
X038762Y013969D01*
X038801Y013927D01*
X038837Y013883D01*
X038871Y013837D01*
X038901Y013788D01*
X038927Y013738D01*
X038950Y013686D01*
X038969Y013632D01*
X038985Y013577D01*
X038997Y013521D01*
X039005Y013464D01*
X039009Y013408D01*
X039009Y013350D01*
X039005Y013294D01*
X038997Y013237D01*
X038985Y013181D01*
X038969Y013126D01*
X038950Y013072D01*
X038927Y013020D01*
X038901Y012970D01*
X038871Y012921D01*
X038837Y012875D01*
X038801Y012831D01*
X038762Y012789D01*
X038720Y012751D01*
X038675Y012715D01*
X038628Y012683D01*
X038579Y012653D01*
X038528Y012628D01*
X038475Y012606D01*
X038421Y012587D01*
X038366Y012573D01*
X038310Y012562D01*
X038253Y012555D01*
X038196Y012552D01*
X038139Y012553D01*
X038082Y012558D01*
X038026Y012567D01*
X037970Y012580D01*
X037916Y012596D01*
X037862Y012616D01*
X037810Y012640D01*
X037760Y012668D01*
X037712Y012698D01*
X037666Y012732D01*
X037623Y012770D01*
X037582Y012810D01*
X037544Y012852D01*
X037510Y012898D01*
X037478Y012945D01*
X037450Y012995D01*
X037425Y013046D01*
X037404Y013099D01*
X037386Y013153D01*
X037373Y013209D01*
X037363Y013265D01*
X037357Y013322D01*
X037355Y013379D01*
X001725Y013379D02*
X001727Y013436D01*
X001733Y013493D01*
X001743Y013549D01*
X001756Y013605D01*
X001774Y013659D01*
X001795Y013712D01*
X001820Y013763D01*
X001848Y013813D01*
X001880Y013860D01*
X001914Y013906D01*
X001952Y013948D01*
X001993Y013988D01*
X002036Y014026D01*
X002082Y014060D01*
X002130Y014090D01*
X002180Y014118D01*
X002232Y014142D01*
X002286Y014162D01*
X002340Y014178D01*
X002396Y014191D01*
X002452Y014200D01*
X002509Y014205D01*
X002566Y014206D01*
X002623Y014203D01*
X002680Y014196D01*
X002736Y014185D01*
X002791Y014171D01*
X002845Y014152D01*
X002898Y014130D01*
X002949Y014105D01*
X002998Y014075D01*
X003045Y014043D01*
X003090Y014007D01*
X003132Y013969D01*
X003171Y013927D01*
X003207Y013883D01*
X003241Y013837D01*
X003271Y013788D01*
X003297Y013738D01*
X003320Y013686D01*
X003339Y013632D01*
X003355Y013577D01*
X003367Y013521D01*
X003375Y013464D01*
X003379Y013408D01*
X003379Y013350D01*
X003375Y013294D01*
X003367Y013237D01*
X003355Y013181D01*
X003339Y013126D01*
X003320Y013072D01*
X003297Y013020D01*
X003271Y012970D01*
X003241Y012921D01*
X003207Y012875D01*
X003171Y012831D01*
X003132Y012789D01*
X003090Y012751D01*
X003045Y012715D01*
X002998Y012683D01*
X002949Y012653D01*
X002898Y012628D01*
X002845Y012606D01*
X002791Y012587D01*
X002736Y012573D01*
X002680Y012562D01*
X002623Y012555D01*
X002566Y012552D01*
X002509Y012553D01*
X002452Y012558D01*
X002396Y012567D01*
X002340Y012580D01*
X002286Y012596D01*
X002232Y012616D01*
X002180Y012640D01*
X002130Y012668D01*
X002082Y012698D01*
X002036Y012732D01*
X001993Y012770D01*
X001952Y012810D01*
X001914Y012852D01*
X001880Y012898D01*
X001848Y012945D01*
X001820Y012995D01*
X001795Y013046D01*
X001774Y013099D01*
X001756Y013153D01*
X001743Y013209D01*
X001733Y013265D01*
X001727Y013322D01*
X001725Y013379D01*
M02*
