G75*
G70*
%OFA0B0*%
%FSLAX24Y24*%
%IPPOS*%
%LPD*%
%AMOC8*
5,1,8,0,0,1.08239X$1,22.5*
%
%ADD10C,0.0120*%
%ADD11C,0.0295*%
%ADD12C,0.0039*%
D10*
X007722Y015941D02*
X008412Y015941D01*
X008642Y016171D01*
X008642Y017092D01*
X008412Y017322D01*
X007722Y017322D01*
X007722Y015941D01*
X009103Y017092D02*
X009333Y016862D01*
X010024Y016862D01*
X010024Y016631D02*
X010024Y017322D01*
X009333Y017322D01*
X009103Y017092D01*
X009333Y016401D02*
X009793Y016401D01*
X010024Y016631D01*
X010484Y016401D02*
X011175Y016401D01*
X011405Y016631D01*
X011405Y017322D01*
X011865Y017092D02*
X012095Y017322D01*
X012786Y017322D01*
X012786Y017552D02*
X012786Y016401D01*
X012095Y016401D01*
X011865Y016631D01*
X011865Y017092D01*
X012556Y017782D02*
X012786Y017552D01*
X012556Y017782D02*
X012326Y017782D01*
X013246Y017092D02*
X013246Y016631D01*
X013476Y016401D01*
X013937Y016401D01*
X014167Y016631D01*
X014167Y016862D01*
X013246Y016862D01*
X013246Y017092D02*
X013476Y017322D01*
X013937Y017322D01*
X014627Y017322D02*
X014627Y016401D01*
X014627Y016862D02*
X015088Y016401D01*
X015318Y016401D01*
X015778Y016401D02*
X015778Y016631D01*
X016009Y016631D01*
X016009Y016401D01*
X015778Y016401D01*
X015778Y017092D02*
X015778Y017322D01*
X016009Y017322D01*
X016009Y017092D01*
X015778Y017092D01*
X015577Y018950D02*
X015347Y018950D01*
X015117Y019180D01*
X015117Y020331D01*
X015807Y020331D01*
X016038Y020101D01*
X016038Y019641D01*
X015807Y019411D01*
X015117Y019411D01*
X014656Y019411D02*
X014656Y020792D01*
X014426Y020331D02*
X013966Y020331D01*
X013736Y020101D01*
X013736Y019411D01*
X014656Y020101D02*
X014426Y020331D01*
X016498Y019411D02*
X016958Y019411D01*
X016728Y019411D02*
X016728Y020331D01*
X016958Y020331D01*
X017419Y020101D02*
X018340Y020101D01*
X018340Y019411D02*
X018340Y020792D01*
X017419Y020792D02*
X017419Y019411D01*
X016728Y020792D02*
X016728Y021022D01*
X020181Y020331D02*
X020181Y020101D01*
X020411Y020101D01*
X020411Y020331D01*
X020181Y020331D01*
X020181Y019641D02*
X020181Y019411D01*
X020411Y019411D01*
X020411Y019641D01*
X020181Y019641D01*
X020872Y020331D02*
X021102Y020331D01*
X021562Y019871D01*
X021562Y019411D02*
X021562Y020331D01*
X022023Y020101D02*
X022023Y019871D01*
X022943Y019871D01*
X022943Y020101D02*
X022713Y020331D01*
X022253Y020331D01*
X022023Y020101D01*
X022253Y019411D02*
X022713Y019411D01*
X022943Y019641D01*
X022943Y020101D01*
X023404Y020331D02*
X024094Y020331D01*
X024324Y020101D01*
X024324Y019641D01*
X024094Y019411D01*
X023404Y019411D01*
X023404Y019180D02*
X023404Y020331D01*
X023404Y019180D02*
X023634Y018950D01*
X023864Y018950D01*
X024785Y019411D02*
X024785Y020101D01*
X025015Y020331D01*
X025706Y020331D01*
X025706Y019411D01*
X026166Y019411D02*
X026857Y019411D01*
X027087Y019641D01*
X026857Y019871D01*
X026166Y019871D01*
X026166Y020101D02*
X026166Y019411D01*
X026166Y020101D02*
X026396Y020331D01*
X026857Y020331D01*
X027547Y020561D02*
X027547Y019641D01*
X027777Y019411D01*
X028468Y019411D01*
X028468Y020792D01*
X027777Y020792D01*
X027547Y020561D01*
X030741Y017782D02*
X030971Y017782D01*
X031201Y017552D01*
X031201Y016401D01*
X030510Y016401D01*
X030280Y016631D01*
X030280Y017092D01*
X030510Y017322D01*
X031201Y017322D01*
X031661Y017092D02*
X031661Y016631D01*
X031892Y016401D01*
X032352Y016401D01*
X032582Y016631D01*
X032582Y016862D01*
X031661Y016862D01*
X031661Y017092D02*
X031892Y017322D01*
X032352Y017322D01*
X033043Y017322D02*
X033043Y017092D01*
X033043Y016631D02*
X033043Y015711D01*
X029820Y016631D02*
X029590Y016401D01*
X029129Y016401D01*
X029129Y016862D02*
X029820Y016862D01*
X029820Y016631D02*
X029820Y017322D01*
X029129Y017322D01*
X028899Y017092D01*
X029129Y016862D01*
X028439Y017322D02*
X028209Y017092D01*
X028209Y016171D01*
X027978Y016401D02*
X028439Y016401D01*
X027288Y015941D02*
X027288Y017322D01*
X027058Y017322D02*
X027518Y017322D01*
X026597Y017092D02*
X026597Y016631D01*
X026367Y016401D01*
X025907Y016401D01*
X025677Y016631D01*
X025677Y017092D01*
X025907Y017322D01*
X026367Y017322D01*
X026597Y017092D01*
X027058Y015941D02*
X027288Y015941D01*
X025216Y015941D02*
X025216Y016862D01*
X024756Y017322D01*
X024295Y016862D01*
X024295Y015941D01*
X022454Y016631D02*
X022454Y017322D01*
X022454Y016631D02*
X022224Y016401D01*
X021763Y016401D01*
X021533Y016631D01*
X021073Y016401D02*
X020382Y016401D01*
X020152Y016631D01*
X020152Y017092D01*
X020382Y017322D01*
X021073Y017322D01*
X021073Y017552D02*
X021073Y016401D01*
X021533Y015941D02*
X021533Y017322D01*
X021073Y017552D02*
X020843Y017782D01*
X020612Y017782D01*
X019692Y017322D02*
X019231Y017322D01*
X019461Y017322D02*
X019461Y016401D01*
X019231Y016401D01*
X019461Y015941D02*
X019461Y015711D01*
X018771Y015941D02*
X018771Y017322D01*
X018771Y016631D02*
X017850Y016631D01*
X017850Y015941D02*
X017850Y017322D01*
X011894Y019871D02*
X011434Y019411D01*
X010973Y019871D01*
X010973Y020792D01*
X010283Y020331D02*
X010513Y020101D01*
X010513Y019641D01*
X010283Y019411D01*
X009823Y019411D01*
X009592Y019641D01*
X009592Y020101D01*
X009823Y020331D01*
X010283Y020331D01*
X009132Y020792D02*
X008902Y020792D01*
X008902Y019411D01*
X009132Y019411D02*
X008672Y019411D01*
X007981Y019641D02*
X007751Y019411D01*
X007981Y019641D02*
X007981Y020561D01*
X008211Y020331D02*
X007751Y020331D01*
X007060Y020331D02*
X006600Y020331D01*
X006370Y020101D01*
X006370Y019411D01*
X007060Y019411D01*
X007290Y019641D01*
X007060Y019871D01*
X006370Y019871D01*
X005909Y020101D02*
X005909Y019641D01*
X005679Y019411D01*
X004989Y019411D01*
X004989Y019180D02*
X004989Y020331D01*
X005679Y020331D01*
X005909Y020101D01*
X004989Y019180D02*
X005219Y018950D01*
X005449Y018950D01*
X004528Y019641D02*
X004298Y019411D01*
X003838Y019411D01*
X003607Y019871D02*
X004528Y019871D01*
X004528Y019641D02*
X004528Y020101D01*
X004298Y020331D01*
X003838Y020331D01*
X003607Y020101D01*
X003607Y019871D01*
X003147Y020101D02*
X003147Y021022D01*
X003147Y019641D02*
X003147Y019411D01*
X010484Y017322D02*
X010484Y016401D01*
X011894Y019871D02*
X011894Y020792D01*
D11*
X007935Y019571D02*
X006413Y021821D01*
X006413Y021822D02*
X006390Y021853D01*
X006364Y021881D01*
X006336Y021907D01*
X006305Y021929D01*
X006272Y021949D01*
X006237Y021965D01*
X006201Y021978D01*
X006163Y021988D01*
X006125Y021993D01*
X006087Y021995D01*
X006049Y021993D01*
X006011Y021988D01*
X005973Y021978D01*
X005937Y021965D01*
X005902Y021949D01*
X005869Y021929D01*
X005838Y021907D01*
X005810Y021881D01*
X005784Y021853D01*
X005761Y021822D01*
X005761Y021821D02*
X004239Y019571D01*
X004239Y019572D02*
X004219Y019539D01*
X004202Y019504D01*
X004189Y019467D01*
X004179Y019430D01*
X004173Y019391D01*
X004171Y019353D01*
X004173Y019314D01*
X004178Y019276D01*
X004188Y019238D01*
X004201Y019201D01*
X004217Y019166D01*
X004237Y019133D01*
X004260Y019102D01*
X004286Y019073D01*
X004314Y019047D01*
X004346Y019024D01*
X004379Y019004D01*
X004414Y018987D01*
X004450Y018974D01*
X004488Y018965D01*
X004526Y018959D01*
X004565Y018957D01*
X007609Y018957D01*
X007648Y018959D01*
X007686Y018965D01*
X007724Y018974D01*
X007760Y018987D01*
X007795Y019004D01*
X007828Y019024D01*
X007860Y019047D01*
X007888Y019073D01*
X007914Y019102D01*
X007937Y019133D01*
X007957Y019166D01*
X007973Y019201D01*
X007986Y019238D01*
X007996Y019276D01*
X008001Y019314D01*
X008003Y019353D01*
X008001Y019391D01*
X007995Y019430D01*
X007985Y019467D01*
X007972Y019504D01*
X007955Y019539D01*
X007935Y019572D01*
X027861Y017949D02*
X029383Y015699D01*
X029383Y015698D02*
X029406Y015667D01*
X029432Y015639D01*
X029460Y015613D01*
X029491Y015591D01*
X029524Y015571D01*
X029559Y015555D01*
X029595Y015542D01*
X029633Y015532D01*
X029671Y015527D01*
X029709Y015525D01*
X029747Y015527D01*
X029785Y015532D01*
X029823Y015542D01*
X029859Y015555D01*
X029894Y015571D01*
X029927Y015591D01*
X029958Y015613D01*
X029986Y015639D01*
X030012Y015667D01*
X030035Y015698D01*
X030035Y015699D02*
X031557Y017949D01*
X031557Y017948D02*
X031577Y017981D01*
X031594Y018016D01*
X031607Y018053D01*
X031617Y018090D01*
X031623Y018129D01*
X031625Y018167D01*
X031623Y018206D01*
X031618Y018244D01*
X031608Y018282D01*
X031595Y018319D01*
X031579Y018354D01*
X031559Y018387D01*
X031536Y018418D01*
X031510Y018447D01*
X031482Y018473D01*
X031450Y018496D01*
X031417Y018516D01*
X031382Y018533D01*
X031346Y018546D01*
X031308Y018555D01*
X031270Y018561D01*
X031231Y018563D01*
X028187Y018563D01*
X028148Y018561D01*
X028110Y018555D01*
X028072Y018546D01*
X028036Y018533D01*
X028001Y018516D01*
X027968Y018496D01*
X027936Y018473D01*
X027908Y018447D01*
X027882Y018418D01*
X027859Y018387D01*
X027839Y018354D01*
X027823Y018319D01*
X027810Y018282D01*
X027800Y018244D01*
X027795Y018206D01*
X027793Y018167D01*
X027795Y018129D01*
X027801Y018090D01*
X027811Y018053D01*
X027824Y018016D01*
X027841Y017981D01*
X027861Y017948D01*
D12*
X029414Y017579D02*
X029414Y016299D01*
X029906Y016299D01*
X029611Y017284D01*
X030004Y016988D01*
X029807Y017874D01*
X029985Y017815D01*
X029709Y018268D01*
X029571Y017776D01*
X029709Y017874D01*
X029709Y017382D01*
X029414Y017579D01*
X029414Y017566D02*
X029432Y017566D01*
X029414Y017529D02*
X029489Y017529D01*
X029546Y017491D02*
X029414Y017491D01*
X029414Y017453D02*
X029603Y017453D01*
X029660Y017415D02*
X029414Y017415D01*
X029414Y017377D02*
X029918Y017377D01*
X029910Y017415D02*
X029709Y017415D01*
X029709Y017453D02*
X029901Y017453D01*
X029893Y017491D02*
X029709Y017491D01*
X029709Y017529D02*
X029884Y017529D01*
X029876Y017566D02*
X029709Y017566D01*
X029709Y017604D02*
X029867Y017604D01*
X029859Y017642D02*
X029709Y017642D01*
X029709Y017680D02*
X029851Y017680D01*
X029842Y017718D02*
X029709Y017718D01*
X029709Y017756D02*
X029834Y017756D01*
X029825Y017794D02*
X029709Y017794D01*
X029709Y017832D02*
X029817Y017832D01*
X029821Y017870D02*
X029951Y017870D01*
X029934Y017832D02*
X029974Y017832D01*
X029928Y017908D02*
X029608Y017908D01*
X029619Y017946D02*
X029905Y017946D01*
X029882Y017983D02*
X029629Y017983D01*
X029640Y018021D02*
X029859Y018021D01*
X029836Y018059D02*
X029651Y018059D01*
X029661Y018097D02*
X029813Y018097D01*
X029790Y018135D02*
X029672Y018135D01*
X029682Y018173D02*
X029767Y018173D01*
X029744Y018211D02*
X029693Y018211D01*
X029704Y018249D02*
X029721Y018249D01*
X029709Y017870D02*
X029808Y017870D01*
X029703Y017870D02*
X029598Y017870D01*
X029587Y017832D02*
X029650Y017832D01*
X029597Y017794D02*
X029576Y017794D01*
X029414Y017339D02*
X029926Y017339D01*
X029935Y017301D02*
X029414Y017301D01*
X029414Y017263D02*
X029617Y017263D01*
X029638Y017263D02*
X029943Y017263D01*
X029952Y017225D02*
X029688Y017225D01*
X029628Y017225D02*
X029414Y017225D01*
X029414Y017187D02*
X029639Y017187D01*
X029651Y017149D02*
X029414Y017149D01*
X029414Y017111D02*
X029662Y017111D01*
X029674Y017074D02*
X029414Y017074D01*
X029414Y017036D02*
X029685Y017036D01*
X029696Y016998D02*
X029414Y016998D01*
X029414Y016960D02*
X029708Y016960D01*
X029719Y016922D02*
X029414Y016922D01*
X029414Y016884D02*
X029730Y016884D01*
X029742Y016846D02*
X029414Y016846D01*
X029414Y016808D02*
X029753Y016808D01*
X029765Y016770D02*
X029414Y016770D01*
X029414Y016732D02*
X029776Y016732D01*
X029787Y016694D02*
X029414Y016694D01*
X029414Y016656D02*
X029799Y016656D01*
X029810Y016619D02*
X029414Y016619D01*
X029414Y016581D02*
X029821Y016581D01*
X029833Y016543D02*
X029414Y016543D01*
X029414Y016505D02*
X029844Y016505D01*
X029856Y016467D02*
X029414Y016467D01*
X029414Y016429D02*
X029867Y016429D01*
X029878Y016391D02*
X029414Y016391D01*
X029414Y016353D02*
X029890Y016353D01*
X029901Y016315D02*
X029414Y016315D01*
X029941Y017036D02*
X029994Y017036D01*
X029992Y016998D02*
X030002Y016998D01*
X029985Y017074D02*
X029891Y017074D01*
X029840Y017111D02*
X029977Y017111D01*
X029969Y017149D02*
X029790Y017149D01*
X029739Y017187D02*
X029960Y017187D01*
X006382Y019941D02*
X006382Y021221D01*
X005890Y021221D01*
X006185Y020236D01*
X005792Y020532D01*
X005989Y019646D01*
X005811Y019705D01*
X006087Y019252D01*
X006225Y019744D01*
X006087Y019646D01*
X006087Y020138D01*
X006382Y019941D01*
X006382Y019955D02*
X006361Y019955D01*
X006382Y019993D02*
X006305Y019993D01*
X006248Y020031D02*
X006382Y020031D01*
X006382Y020069D02*
X006191Y020069D01*
X006134Y020107D02*
X006382Y020107D01*
X006382Y020145D02*
X005878Y020145D01*
X005869Y020182D02*
X006382Y020182D01*
X006382Y020220D02*
X005861Y020220D01*
X005852Y020258D02*
X006156Y020258D01*
X006179Y020258D02*
X006382Y020258D01*
X006382Y020296D02*
X006167Y020296D01*
X006156Y020334D02*
X006382Y020334D01*
X006382Y020372D02*
X006145Y020372D01*
X006133Y020410D02*
X006382Y020410D01*
X006382Y020448D02*
X006122Y020448D01*
X006111Y020486D02*
X006382Y020486D01*
X006382Y020524D02*
X006099Y020524D01*
X006088Y020562D02*
X006382Y020562D01*
X006382Y020599D02*
X006076Y020599D01*
X006065Y020637D02*
X006382Y020637D01*
X006382Y020675D02*
X006054Y020675D01*
X006042Y020713D02*
X006382Y020713D01*
X006382Y020751D02*
X006031Y020751D01*
X006020Y020789D02*
X006382Y020789D01*
X006382Y020827D02*
X006008Y020827D01*
X005997Y020865D02*
X006382Y020865D01*
X006382Y020903D02*
X005985Y020903D01*
X005974Y020941D02*
X006382Y020941D01*
X006382Y020979D02*
X005963Y020979D01*
X005951Y021017D02*
X006382Y021017D01*
X006382Y021054D02*
X005940Y021054D01*
X005929Y021092D02*
X006382Y021092D01*
X006382Y021130D02*
X005917Y021130D01*
X005906Y021168D02*
X006382Y021168D01*
X006382Y021206D02*
X005894Y021206D01*
X005802Y020524D02*
X005793Y020524D01*
X005802Y020486D02*
X005853Y020486D01*
X005810Y020448D02*
X005903Y020448D01*
X005954Y020410D02*
X005819Y020410D01*
X005827Y020372D02*
X006005Y020372D01*
X006055Y020334D02*
X005836Y020334D01*
X005844Y020296D02*
X006106Y020296D01*
X006087Y020107D02*
X005886Y020107D01*
X005895Y020069D02*
X006087Y020069D01*
X006087Y020031D02*
X005903Y020031D01*
X005911Y019993D02*
X006087Y019993D01*
X006087Y019955D02*
X005920Y019955D01*
X005928Y019917D02*
X006087Y019917D01*
X006087Y019879D02*
X005937Y019879D01*
X005945Y019841D02*
X006087Y019841D01*
X006087Y019803D02*
X005954Y019803D01*
X005962Y019765D02*
X006087Y019765D01*
X006087Y019727D02*
X005970Y019727D01*
X005979Y019690D02*
X006087Y019690D01*
X006087Y019652D02*
X005987Y019652D01*
X005971Y019652D02*
X005844Y019652D01*
X005857Y019690D02*
X005821Y019690D01*
X005867Y019614D02*
X006188Y019614D01*
X006199Y019652D02*
X006095Y019652D01*
X006148Y019690D02*
X006209Y019690D01*
X006201Y019727D02*
X006220Y019727D01*
X006178Y019576D02*
X005890Y019576D01*
X005913Y019538D02*
X006167Y019538D01*
X006156Y019500D02*
X005936Y019500D01*
X005959Y019462D02*
X006146Y019462D01*
X006135Y019424D02*
X005982Y019424D01*
X006005Y019386D02*
X006124Y019386D01*
X006114Y019348D02*
X006028Y019348D01*
X006051Y019310D02*
X006103Y019310D01*
X006093Y019273D02*
X006074Y019273D01*
M02*
