G75*
G70*
%OFA0B0*%
%FSLAX24Y24*%
%IPPOS*%
%LPD*%
%AMOC8*
5,1,8,0,0,1.08239X$1,22.5*
%
%ADD10C,0.0120*%
%ADD11C,0.0295*%
%ADD12C,0.0039*%
D10*
X013950Y015711D02*
X013950Y015941D01*
X013950Y016401D02*
X013719Y016401D01*
X013950Y016401D02*
X013950Y017322D01*
X014180Y017322D02*
X013719Y017322D01*
X013259Y017322D02*
X013259Y015941D01*
X013259Y016631D02*
X012338Y016631D01*
X012338Y015941D02*
X012338Y017322D01*
X010961Y018556D02*
X010731Y018556D01*
X010500Y018787D01*
X010500Y019938D01*
X011191Y019938D01*
X011421Y019707D01*
X011421Y019247D01*
X011191Y019017D01*
X010500Y019017D01*
X010040Y019247D02*
X010040Y019707D01*
X009810Y019938D01*
X009349Y019938D01*
X009119Y019707D01*
X009119Y019477D01*
X010040Y019477D01*
X010040Y019247D02*
X009810Y019017D01*
X009349Y019017D01*
X008659Y019017D02*
X008659Y019247D01*
X008659Y019707D02*
X008659Y020628D01*
X007044Y017782D02*
X007274Y017552D01*
X007274Y016401D01*
X006584Y016401D01*
X006353Y016631D01*
X006353Y017092D01*
X006584Y017322D01*
X007274Y017322D01*
X007044Y017782D02*
X006814Y017782D01*
X007734Y017092D02*
X007734Y016631D01*
X007965Y016401D01*
X008425Y016401D01*
X008655Y016631D01*
X008655Y016862D01*
X007734Y016862D01*
X007734Y017092D02*
X007965Y017322D01*
X008425Y017322D01*
X009116Y017322D02*
X009116Y016401D01*
X009576Y016401D02*
X009806Y016401D01*
X009576Y016401D02*
X009116Y016862D01*
X010267Y017092D02*
X010267Y017322D01*
X010497Y017322D01*
X010497Y017092D01*
X010267Y017092D01*
X010267Y016631D02*
X010267Y016401D01*
X010497Y016401D01*
X010497Y016631D01*
X010267Y016631D01*
X011881Y019017D02*
X012572Y019017D01*
X012802Y019247D01*
X012572Y019477D01*
X011881Y019477D01*
X011881Y019707D02*
X011881Y019017D01*
X011881Y019707D02*
X012112Y019938D01*
X012572Y019938D01*
X013263Y019938D02*
X013723Y019938D01*
X013493Y020168D02*
X013493Y019247D01*
X013263Y019017D01*
X014183Y019017D02*
X014644Y019017D01*
X014414Y019017D02*
X014414Y020398D01*
X014644Y020398D01*
X015334Y019938D02*
X015104Y019707D01*
X015104Y019247D01*
X015334Y019017D01*
X015795Y019017D01*
X016025Y019247D01*
X016025Y019707D01*
X015795Y019938D01*
X015334Y019938D01*
X016485Y019477D02*
X016485Y020398D01*
X016485Y019477D02*
X016946Y019017D01*
X017406Y019477D01*
X017406Y020398D01*
X019248Y019707D02*
X019248Y019017D01*
X019248Y019707D02*
X019478Y019938D01*
X019938Y019938D01*
X020168Y019707D01*
X020629Y019938D02*
X021319Y019938D01*
X021549Y019707D01*
X021549Y019247D01*
X021319Y019017D01*
X020629Y019017D01*
X020629Y018787D02*
X020629Y019938D01*
X020168Y020398D02*
X020168Y019017D01*
X020629Y018787D02*
X020859Y018556D01*
X021089Y018556D01*
X022010Y019017D02*
X022470Y019017D01*
X022240Y019017D02*
X022240Y019938D01*
X022470Y019938D01*
X022240Y020398D02*
X022240Y020628D01*
X022931Y020398D02*
X022931Y019017D01*
X022931Y019707D02*
X023851Y019707D01*
X023851Y019017D02*
X023851Y020398D01*
X025693Y019938D02*
X025693Y019707D01*
X025923Y019707D01*
X025923Y019938D01*
X025693Y019938D01*
X026383Y019938D02*
X026614Y019938D01*
X027074Y019477D01*
X027074Y019017D02*
X027074Y019938D01*
X027534Y019707D02*
X027534Y019477D01*
X028455Y019477D01*
X028455Y019247D02*
X028455Y019707D01*
X028225Y019938D01*
X027765Y019938D01*
X027534Y019707D01*
X027765Y019017D02*
X028225Y019017D01*
X028455Y019247D01*
X028916Y019017D02*
X029606Y019017D01*
X029836Y019247D01*
X029836Y019707D01*
X029606Y019938D01*
X028916Y019938D01*
X028916Y018787D01*
X029146Y018556D01*
X029376Y018556D01*
X030297Y019017D02*
X030297Y019707D01*
X030527Y019938D01*
X031217Y019938D01*
X031217Y019017D01*
X031678Y019017D02*
X031678Y019707D01*
X031908Y019938D01*
X032368Y019938D01*
X032368Y019477D02*
X031678Y019477D01*
X032368Y019477D02*
X032599Y019247D01*
X032368Y019017D01*
X031678Y019017D01*
X033059Y019247D02*
X033059Y020168D01*
X033289Y020398D01*
X033980Y020398D01*
X033980Y019017D01*
X033289Y019017D01*
X033059Y019247D01*
X027531Y017322D02*
X027531Y017092D01*
X027531Y016631D02*
X027531Y015711D01*
X026840Y016401D02*
X027070Y016631D01*
X027070Y016862D01*
X026150Y016862D01*
X026150Y017092D02*
X026150Y016631D01*
X026380Y016401D01*
X026840Y016401D01*
X026150Y017092D02*
X026380Y017322D01*
X026840Y017322D01*
X025689Y017322D02*
X024999Y017322D01*
X024769Y017092D01*
X024769Y016631D01*
X024999Y016401D01*
X025689Y016401D01*
X025689Y017552D01*
X025459Y017782D01*
X025229Y017782D01*
X024308Y017322D02*
X023618Y017322D01*
X023387Y017092D01*
X023618Y016862D01*
X024308Y016862D01*
X024308Y016631D02*
X024308Y017322D01*
X024308Y016631D02*
X024078Y016401D01*
X023618Y016401D01*
X022927Y016401D02*
X022467Y016401D01*
X022697Y016171D02*
X022697Y017092D01*
X022927Y017322D01*
X022006Y017322D02*
X021546Y017322D01*
X021776Y017322D02*
X021776Y015941D01*
X021546Y015941D01*
X021085Y016631D02*
X020855Y016401D01*
X020395Y016401D01*
X020165Y016631D01*
X020165Y017092D01*
X020395Y017322D01*
X020855Y017322D01*
X021085Y017092D01*
X021085Y016631D01*
X019704Y016862D02*
X019704Y015941D01*
X018784Y015941D02*
X018784Y016862D01*
X019244Y017322D01*
X019704Y016862D01*
X016942Y016631D02*
X016942Y017322D01*
X016942Y016631D02*
X016712Y016401D01*
X016251Y016401D01*
X016021Y016631D01*
X015561Y016401D02*
X014870Y016401D01*
X014640Y016631D01*
X014640Y017092D01*
X014870Y017322D01*
X015561Y017322D01*
X015561Y017552D02*
X015561Y016401D01*
X016021Y015941D02*
X016021Y017322D01*
X015561Y017552D02*
X015331Y017782D01*
X015101Y017782D01*
X005893Y017322D02*
X005893Y016631D01*
X005663Y016401D01*
X004972Y016401D01*
X004972Y017322D01*
X004512Y017322D02*
X003821Y017322D01*
X003591Y017092D01*
X003821Y016862D01*
X004512Y016862D01*
X004512Y016631D02*
X004512Y017322D01*
X004512Y016631D02*
X004282Y016401D01*
X003821Y016401D01*
X003131Y016171D02*
X003131Y017092D01*
X002900Y017322D01*
X002210Y017322D01*
X002210Y015941D01*
X002900Y015941D01*
X003131Y016171D01*
X025693Y019017D02*
X025923Y019017D01*
X025923Y019247D01*
X025693Y019247D01*
X025693Y019017D01*
D11*
X027861Y017949D02*
X029383Y015699D01*
X029383Y015698D02*
X029406Y015667D01*
X029432Y015639D01*
X029460Y015613D01*
X029491Y015591D01*
X029524Y015571D01*
X029559Y015555D01*
X029595Y015542D01*
X029633Y015532D01*
X029671Y015527D01*
X029709Y015525D01*
X029747Y015527D01*
X029785Y015532D01*
X029823Y015542D01*
X029859Y015555D01*
X029894Y015571D01*
X029927Y015591D01*
X029958Y015613D01*
X029986Y015639D01*
X030012Y015667D01*
X030035Y015698D01*
X030035Y015699D02*
X031557Y017949D01*
X031557Y017948D02*
X031577Y017981D01*
X031594Y018016D01*
X031607Y018053D01*
X031617Y018090D01*
X031623Y018129D01*
X031625Y018167D01*
X031623Y018206D01*
X031618Y018244D01*
X031608Y018282D01*
X031595Y018319D01*
X031579Y018354D01*
X031559Y018387D01*
X031536Y018418D01*
X031510Y018447D01*
X031482Y018473D01*
X031450Y018496D01*
X031417Y018516D01*
X031382Y018533D01*
X031346Y018546D01*
X031308Y018555D01*
X031270Y018561D01*
X031231Y018563D01*
X028187Y018563D01*
X028148Y018561D01*
X028110Y018555D01*
X028072Y018546D01*
X028036Y018533D01*
X028001Y018516D01*
X027968Y018496D01*
X027936Y018473D01*
X027908Y018447D01*
X027882Y018418D01*
X027859Y018387D01*
X027839Y018354D01*
X027823Y018319D01*
X027810Y018282D01*
X027800Y018244D01*
X027795Y018206D01*
X027793Y018167D01*
X027795Y018129D01*
X027801Y018090D01*
X027811Y018053D01*
X027824Y018016D01*
X027841Y017981D01*
X027861Y017948D01*
X007935Y019571D02*
X006413Y021821D01*
X006413Y021822D02*
X006390Y021853D01*
X006364Y021881D01*
X006336Y021907D01*
X006305Y021929D01*
X006272Y021949D01*
X006237Y021965D01*
X006201Y021978D01*
X006163Y021988D01*
X006125Y021993D01*
X006087Y021995D01*
X006049Y021993D01*
X006011Y021988D01*
X005973Y021978D01*
X005937Y021965D01*
X005902Y021949D01*
X005869Y021929D01*
X005838Y021907D01*
X005810Y021881D01*
X005784Y021853D01*
X005761Y021822D01*
X005761Y021821D02*
X004239Y019571D01*
X004239Y019572D02*
X004219Y019539D01*
X004202Y019504D01*
X004189Y019467D01*
X004179Y019430D01*
X004173Y019391D01*
X004171Y019353D01*
X004173Y019314D01*
X004178Y019276D01*
X004188Y019238D01*
X004201Y019201D01*
X004217Y019166D01*
X004237Y019133D01*
X004260Y019102D01*
X004286Y019073D01*
X004314Y019047D01*
X004346Y019024D01*
X004379Y019004D01*
X004414Y018987D01*
X004450Y018974D01*
X004488Y018965D01*
X004526Y018959D01*
X004565Y018957D01*
X007609Y018957D01*
X007648Y018959D01*
X007686Y018965D01*
X007724Y018974D01*
X007760Y018987D01*
X007795Y019004D01*
X007828Y019024D01*
X007860Y019047D01*
X007888Y019073D01*
X007914Y019102D01*
X007937Y019133D01*
X007957Y019166D01*
X007973Y019201D01*
X007986Y019238D01*
X007996Y019276D01*
X008001Y019314D01*
X008003Y019353D01*
X008001Y019391D01*
X007995Y019430D01*
X007985Y019467D01*
X007972Y019504D01*
X007955Y019539D01*
X007935Y019572D01*
D12*
X006382Y019941D02*
X006382Y021221D01*
X005890Y021221D01*
X006185Y020236D01*
X005792Y020532D01*
X005989Y019646D01*
X005811Y019705D01*
X006087Y019252D01*
X006225Y019744D01*
X006087Y019646D01*
X006087Y020138D01*
X006382Y019941D01*
X006382Y019955D02*
X006361Y019955D01*
X006382Y019993D02*
X006305Y019993D01*
X006248Y020031D02*
X006382Y020031D01*
X006382Y020069D02*
X006191Y020069D01*
X006134Y020107D02*
X006382Y020107D01*
X006382Y020145D02*
X005878Y020145D01*
X005869Y020182D02*
X006382Y020182D01*
X006382Y020220D02*
X005861Y020220D01*
X005852Y020258D02*
X006156Y020258D01*
X006179Y020258D02*
X006382Y020258D01*
X006382Y020296D02*
X006167Y020296D01*
X006156Y020334D02*
X006382Y020334D01*
X006382Y020372D02*
X006145Y020372D01*
X006133Y020410D02*
X006382Y020410D01*
X006382Y020448D02*
X006122Y020448D01*
X006111Y020486D02*
X006382Y020486D01*
X006382Y020524D02*
X006099Y020524D01*
X006088Y020562D02*
X006382Y020562D01*
X006382Y020599D02*
X006076Y020599D01*
X006065Y020637D02*
X006382Y020637D01*
X006382Y020675D02*
X006054Y020675D01*
X006042Y020713D02*
X006382Y020713D01*
X006382Y020751D02*
X006031Y020751D01*
X006020Y020789D02*
X006382Y020789D01*
X006382Y020827D02*
X006008Y020827D01*
X005997Y020865D02*
X006382Y020865D01*
X006382Y020903D02*
X005985Y020903D01*
X005974Y020941D02*
X006382Y020941D01*
X006382Y020979D02*
X005963Y020979D01*
X005951Y021017D02*
X006382Y021017D01*
X006382Y021054D02*
X005940Y021054D01*
X005929Y021092D02*
X006382Y021092D01*
X006382Y021130D02*
X005917Y021130D01*
X005906Y021168D02*
X006382Y021168D01*
X006382Y021206D02*
X005894Y021206D01*
X005802Y020524D02*
X005793Y020524D01*
X005802Y020486D02*
X005853Y020486D01*
X005810Y020448D02*
X005903Y020448D01*
X005954Y020410D02*
X005819Y020410D01*
X005827Y020372D02*
X006005Y020372D01*
X006055Y020334D02*
X005836Y020334D01*
X005844Y020296D02*
X006106Y020296D01*
X006087Y020107D02*
X005886Y020107D01*
X005895Y020069D02*
X006087Y020069D01*
X006087Y020031D02*
X005903Y020031D01*
X005911Y019993D02*
X006087Y019993D01*
X006087Y019955D02*
X005920Y019955D01*
X005928Y019917D02*
X006087Y019917D01*
X006087Y019879D02*
X005937Y019879D01*
X005945Y019841D02*
X006087Y019841D01*
X006087Y019803D02*
X005954Y019803D01*
X005962Y019765D02*
X006087Y019765D01*
X006087Y019727D02*
X005970Y019727D01*
X005979Y019690D02*
X006087Y019690D01*
X006087Y019652D02*
X005987Y019652D01*
X005971Y019652D02*
X005844Y019652D01*
X005857Y019690D02*
X005821Y019690D01*
X005867Y019614D02*
X006188Y019614D01*
X006199Y019652D02*
X006095Y019652D01*
X006148Y019690D02*
X006209Y019690D01*
X006201Y019727D02*
X006220Y019727D01*
X006178Y019576D02*
X005890Y019576D01*
X005913Y019538D02*
X006167Y019538D01*
X006156Y019500D02*
X005936Y019500D01*
X005959Y019462D02*
X006146Y019462D01*
X006135Y019424D02*
X005982Y019424D01*
X006005Y019386D02*
X006124Y019386D01*
X006114Y019348D02*
X006028Y019348D01*
X006051Y019310D02*
X006103Y019310D01*
X006093Y019273D02*
X006074Y019273D01*
X029414Y017579D02*
X029414Y016299D01*
X029906Y016299D01*
X029611Y017284D01*
X030004Y016988D01*
X029807Y017874D01*
X029985Y017815D01*
X029709Y018268D01*
X029571Y017776D01*
X029709Y017874D01*
X029709Y017382D01*
X029414Y017579D01*
X029414Y017566D02*
X029432Y017566D01*
X029414Y017529D02*
X029489Y017529D01*
X029546Y017491D02*
X029414Y017491D01*
X029414Y017453D02*
X029603Y017453D01*
X029660Y017415D02*
X029414Y017415D01*
X029414Y017377D02*
X029918Y017377D01*
X029910Y017415D02*
X029709Y017415D01*
X029709Y017453D02*
X029901Y017453D01*
X029893Y017491D02*
X029709Y017491D01*
X029709Y017529D02*
X029884Y017529D01*
X029876Y017566D02*
X029709Y017566D01*
X029709Y017604D02*
X029867Y017604D01*
X029859Y017642D02*
X029709Y017642D01*
X029709Y017680D02*
X029851Y017680D01*
X029842Y017718D02*
X029709Y017718D01*
X029709Y017756D02*
X029834Y017756D01*
X029825Y017794D02*
X029709Y017794D01*
X029709Y017832D02*
X029817Y017832D01*
X029821Y017870D02*
X029951Y017870D01*
X029934Y017832D02*
X029974Y017832D01*
X029928Y017908D02*
X029608Y017908D01*
X029619Y017946D02*
X029905Y017946D01*
X029882Y017983D02*
X029629Y017983D01*
X029640Y018021D02*
X029859Y018021D01*
X029836Y018059D02*
X029651Y018059D01*
X029661Y018097D02*
X029813Y018097D01*
X029790Y018135D02*
X029672Y018135D01*
X029682Y018173D02*
X029767Y018173D01*
X029744Y018211D02*
X029693Y018211D01*
X029704Y018249D02*
X029721Y018249D01*
X029709Y017870D02*
X029808Y017870D01*
X029703Y017870D02*
X029598Y017870D01*
X029587Y017832D02*
X029650Y017832D01*
X029597Y017794D02*
X029576Y017794D01*
X029414Y017339D02*
X029926Y017339D01*
X029935Y017301D02*
X029414Y017301D01*
X029414Y017263D02*
X029617Y017263D01*
X029638Y017263D02*
X029943Y017263D01*
X029952Y017225D02*
X029688Y017225D01*
X029628Y017225D02*
X029414Y017225D01*
X029414Y017187D02*
X029639Y017187D01*
X029651Y017149D02*
X029414Y017149D01*
X029414Y017111D02*
X029662Y017111D01*
X029674Y017074D02*
X029414Y017074D01*
X029414Y017036D02*
X029685Y017036D01*
X029696Y016998D02*
X029414Y016998D01*
X029414Y016960D02*
X029708Y016960D01*
X029719Y016922D02*
X029414Y016922D01*
X029414Y016884D02*
X029730Y016884D01*
X029742Y016846D02*
X029414Y016846D01*
X029414Y016808D02*
X029753Y016808D01*
X029765Y016770D02*
X029414Y016770D01*
X029414Y016732D02*
X029776Y016732D01*
X029787Y016694D02*
X029414Y016694D01*
X029414Y016656D02*
X029799Y016656D01*
X029810Y016619D02*
X029414Y016619D01*
X029414Y016581D02*
X029821Y016581D01*
X029833Y016543D02*
X029414Y016543D01*
X029414Y016505D02*
X029844Y016505D01*
X029856Y016467D02*
X029414Y016467D01*
X029414Y016429D02*
X029867Y016429D01*
X029878Y016391D02*
X029414Y016391D01*
X029414Y016353D02*
X029890Y016353D01*
X029901Y016315D02*
X029414Y016315D01*
X029941Y017036D02*
X029994Y017036D01*
X029992Y016998D02*
X030002Y016998D01*
X029985Y017074D02*
X029891Y017074D01*
X029840Y017111D02*
X029977Y017111D01*
X029969Y017149D02*
X029790Y017149D01*
X029739Y017187D02*
X029960Y017187D01*
M02*
