G75*
G70*
%OFA0B0*%
%FSLAX24Y24*%
%IPPOS*%
%LPD*%
%AMOC8*
5,1,8,0,0,1.08239X$1,22.5*
%
%ADD10C,0.0120*%
%ADD11C,0.0295*%
%ADD12C,0.0039*%
D10*
X012688Y015448D02*
X012688Y015678D01*
X012688Y016139D02*
X012688Y017059D01*
X012458Y017059D02*
X012918Y017059D01*
X013378Y016829D02*
X013378Y016369D01*
X013609Y016139D01*
X014299Y016139D01*
X014299Y017290D01*
X014069Y017520D01*
X013839Y017520D01*
X013609Y017059D02*
X014299Y017059D01*
X014760Y017059D02*
X014760Y015678D01*
X014990Y016139D02*
X015450Y016139D01*
X015680Y016369D01*
X015680Y017059D01*
X014760Y016369D02*
X014990Y016139D01*
X013609Y017059D02*
X013378Y016829D01*
X012688Y016139D02*
X012458Y016139D01*
X011997Y016369D02*
X011077Y016369D01*
X011077Y017059D02*
X011077Y015678D01*
X011997Y015678D02*
X011997Y017059D01*
X011353Y019148D02*
X010893Y019608D01*
X010893Y020529D01*
X010432Y019838D02*
X010432Y019378D01*
X010202Y019148D01*
X009742Y019148D01*
X009512Y019378D01*
X009512Y019838D01*
X009742Y020069D01*
X010202Y020069D01*
X010432Y019838D01*
X011353Y019148D02*
X011814Y019608D01*
X011814Y020529D01*
X013655Y019838D02*
X013655Y019148D01*
X013655Y019838D02*
X013885Y020069D01*
X014346Y020069D01*
X014576Y019838D01*
X015036Y020069D02*
X015727Y020069D01*
X015957Y019838D01*
X015957Y019378D01*
X015727Y019148D01*
X015036Y019148D01*
X015036Y018918D02*
X015036Y020069D01*
X014576Y020529D02*
X014576Y019148D01*
X015036Y018918D02*
X015266Y018688D01*
X015497Y018688D01*
X016417Y019148D02*
X016878Y019148D01*
X016648Y019148D02*
X016648Y020069D01*
X016878Y020069D01*
X016648Y020529D02*
X016648Y020759D01*
X017338Y020529D02*
X017338Y019148D01*
X017338Y019838D02*
X018259Y019838D01*
X018259Y019148D02*
X018259Y020529D01*
X020100Y020069D02*
X020100Y019838D01*
X020331Y019838D01*
X020331Y020069D01*
X020100Y020069D01*
X020100Y019378D02*
X020100Y019148D01*
X020331Y019148D01*
X020331Y019378D01*
X020100Y019378D01*
X020791Y020069D02*
X021021Y020069D01*
X021482Y019608D01*
X021942Y019608D02*
X021942Y019838D01*
X022172Y020069D01*
X022633Y020069D01*
X022863Y019838D01*
X022863Y019378D01*
X022633Y019148D01*
X022172Y019148D01*
X021942Y019608D02*
X022863Y019608D01*
X023323Y019148D02*
X024014Y019148D01*
X024244Y019378D01*
X024244Y019838D01*
X024014Y020069D01*
X023323Y020069D01*
X023323Y018918D01*
X023553Y018688D01*
X023783Y018688D01*
X024704Y019148D02*
X024704Y019838D01*
X024934Y020069D01*
X025625Y020069D01*
X025625Y019148D01*
X026085Y019148D02*
X026776Y019148D01*
X027006Y019378D01*
X026776Y019608D01*
X026085Y019608D01*
X026085Y019838D02*
X026085Y019148D01*
X026085Y019838D02*
X026316Y020069D01*
X026776Y020069D01*
X027466Y020299D02*
X027466Y019378D01*
X027697Y019148D01*
X028387Y019148D01*
X028387Y020529D01*
X027697Y020529D01*
X027466Y020299D01*
X026269Y017059D02*
X026269Y016829D01*
X026269Y016369D02*
X026269Y015448D01*
X025578Y016139D02*
X025809Y016369D01*
X025809Y016599D01*
X024888Y016599D01*
X024888Y016369D02*
X025118Y016139D01*
X025578Y016139D01*
X024888Y016369D02*
X024888Y016829D01*
X025118Y017059D01*
X025578Y017059D01*
X024428Y017059D02*
X023737Y017059D01*
X023507Y016829D01*
X023507Y016369D01*
X023737Y016139D01*
X024428Y016139D01*
X024428Y017290D01*
X024197Y017520D01*
X023967Y017520D01*
X023046Y017059D02*
X023046Y016369D01*
X022816Y016139D01*
X022356Y016139D01*
X022356Y016599D02*
X023046Y016599D01*
X023046Y017059D02*
X022356Y017059D01*
X022126Y016829D01*
X022356Y016599D01*
X021665Y017059D02*
X021435Y016829D01*
X021435Y015908D01*
X021205Y016139D02*
X021665Y016139D01*
X020744Y017059D02*
X020284Y017059D01*
X020514Y017059D02*
X020514Y015678D01*
X020284Y015678D01*
X019594Y016139D02*
X019824Y016369D01*
X019824Y016829D01*
X019594Y017059D01*
X019133Y017059D01*
X018903Y016829D01*
X018903Y016369D01*
X019133Y016139D01*
X019594Y016139D01*
X018443Y016599D02*
X018443Y015678D01*
X018443Y016599D02*
X017982Y017059D01*
X017522Y016599D01*
X017522Y015678D01*
X021482Y019148D02*
X021482Y020069D01*
X009051Y020529D02*
X008821Y020529D01*
X008821Y019148D01*
X009051Y019148D02*
X008591Y019148D01*
X007900Y019378D02*
X007670Y019148D01*
X007900Y019378D02*
X007900Y020299D01*
X008131Y020069D02*
X007670Y020069D01*
X006980Y020069D02*
X006519Y020069D01*
X006289Y019838D01*
X006289Y019148D01*
X006980Y019148D01*
X007210Y019378D01*
X006980Y019608D01*
X006289Y019608D01*
X005829Y019378D02*
X005599Y019148D01*
X004908Y019148D01*
X004908Y018918D02*
X004908Y020069D01*
X005599Y020069D01*
X005829Y019838D01*
X005829Y019378D01*
X005368Y018688D02*
X005138Y018688D01*
X004908Y018918D01*
X004448Y019378D02*
X004448Y019838D01*
X004217Y020069D01*
X003757Y020069D01*
X003527Y019838D01*
X003527Y019608D01*
X004448Y019608D01*
X004448Y019378D02*
X004217Y019148D01*
X003757Y019148D01*
X003066Y019148D02*
X003066Y019378D01*
X003066Y019838D02*
X003066Y020759D01*
X005552Y017520D02*
X005782Y017520D01*
X006012Y017290D01*
X006012Y016139D01*
X005322Y016139D01*
X005092Y016369D01*
X005092Y016829D01*
X005322Y017059D01*
X006012Y017059D01*
X006473Y016829D02*
X006473Y016369D01*
X006703Y016139D01*
X007163Y016139D01*
X007394Y016369D01*
X007394Y016599D01*
X006473Y016599D01*
X006473Y016829D02*
X006703Y017059D01*
X007163Y017059D01*
X007854Y017059D02*
X007854Y016139D01*
X007854Y016599D02*
X008314Y016139D01*
X008544Y016139D01*
X009005Y016139D02*
X009005Y016369D01*
X009235Y016369D01*
X009235Y016139D01*
X009005Y016139D01*
X009005Y016829D02*
X009005Y017059D01*
X009235Y017059D01*
X009235Y016829D01*
X009005Y016829D01*
X004631Y017059D02*
X004631Y016369D01*
X004401Y016139D01*
X003710Y016139D01*
X003710Y017059D01*
X003250Y017059D02*
X002559Y017059D01*
X002329Y016829D01*
X002559Y016599D01*
X003250Y016599D01*
X003250Y016369D02*
X003250Y017059D01*
X003250Y016369D02*
X003020Y016139D01*
X002559Y016139D01*
X001869Y015908D02*
X001869Y016829D01*
X001639Y017059D01*
X000948Y017059D01*
X000948Y015678D01*
X001639Y015678D01*
X001869Y015908D01*
D11*
X004484Y021056D02*
X007528Y021056D01*
X007567Y021058D01*
X007605Y021064D01*
X007643Y021073D01*
X007679Y021086D01*
X007714Y021103D01*
X007747Y021123D01*
X007779Y021146D01*
X007807Y021172D01*
X007833Y021201D01*
X007856Y021232D01*
X007876Y021265D01*
X007892Y021300D01*
X007905Y021337D01*
X007915Y021375D01*
X007920Y021413D01*
X007922Y021452D01*
X007920Y021490D01*
X007914Y021529D01*
X007904Y021566D01*
X007891Y021603D01*
X007874Y021638D01*
X007854Y021671D01*
X007855Y021671D02*
X006332Y023921D01*
X006309Y023952D01*
X006283Y023980D01*
X006255Y024006D01*
X006224Y024028D01*
X006191Y024048D01*
X006156Y024064D01*
X006120Y024077D01*
X006082Y024087D01*
X006044Y024092D01*
X006006Y024094D01*
X005968Y024092D01*
X005930Y024087D01*
X005892Y024077D01*
X005856Y024064D01*
X005821Y024048D01*
X005788Y024028D01*
X005757Y024006D01*
X005729Y023980D01*
X005703Y023952D01*
X005680Y023921D01*
X004158Y021671D01*
X004138Y021638D01*
X004121Y021603D01*
X004108Y021566D01*
X004098Y021529D01*
X004092Y021490D01*
X004090Y021452D01*
X004092Y021413D01*
X004097Y021375D01*
X004107Y021337D01*
X004120Y021300D01*
X004136Y021265D01*
X004156Y021232D01*
X004179Y021201D01*
X004205Y021172D01*
X004233Y021146D01*
X004265Y021123D01*
X004298Y021103D01*
X004333Y021086D01*
X004369Y021073D01*
X004407Y021064D01*
X004445Y021058D01*
X004484Y021056D01*
X026205Y017686D02*
X027727Y015436D01*
X027728Y015436D02*
X027751Y015405D01*
X027777Y015377D01*
X027805Y015351D01*
X027836Y015329D01*
X027869Y015309D01*
X027904Y015293D01*
X027940Y015280D01*
X027978Y015270D01*
X028016Y015265D01*
X028054Y015263D01*
X028092Y015265D01*
X028130Y015270D01*
X028168Y015280D01*
X028204Y015293D01*
X028239Y015309D01*
X028272Y015329D01*
X028303Y015351D01*
X028331Y015377D01*
X028357Y015405D01*
X028380Y015436D01*
X029902Y017686D01*
X029922Y017719D01*
X029939Y017754D01*
X029952Y017791D01*
X029962Y017828D01*
X029968Y017867D01*
X029970Y017905D01*
X029968Y017944D01*
X029963Y017982D01*
X029953Y018020D01*
X029940Y018057D01*
X029924Y018092D01*
X029904Y018125D01*
X029881Y018156D01*
X029855Y018185D01*
X029827Y018211D01*
X029795Y018234D01*
X029762Y018254D01*
X029727Y018271D01*
X029691Y018284D01*
X029653Y018293D01*
X029615Y018299D01*
X029576Y018301D01*
X029576Y018300D02*
X026531Y018300D01*
X026531Y018301D02*
X026492Y018299D01*
X026454Y018293D01*
X026416Y018284D01*
X026380Y018271D01*
X026345Y018254D01*
X026312Y018234D01*
X026280Y018211D01*
X026252Y018185D01*
X026226Y018156D01*
X026203Y018125D01*
X026183Y018092D01*
X026167Y018057D01*
X026154Y018020D01*
X026144Y017982D01*
X026139Y017944D01*
X026137Y017905D01*
X026139Y017867D01*
X026145Y017828D01*
X026155Y017791D01*
X026168Y017754D01*
X026185Y017719D01*
X026205Y017686D01*
D12*
X027758Y017316D02*
X027758Y016037D01*
X028250Y016037D01*
X027955Y017021D01*
X028349Y016726D01*
X028152Y017611D01*
X028329Y017552D01*
X028054Y018005D01*
X027916Y017513D01*
X028054Y017611D01*
X028054Y017119D01*
X027758Y017316D01*
X027758Y017280D02*
X027812Y017280D01*
X027758Y017242D02*
X027869Y017242D01*
X027926Y017205D02*
X027758Y017205D01*
X027758Y017167D02*
X027983Y017167D01*
X028039Y017129D02*
X027758Y017129D01*
X027758Y017091D02*
X028268Y017091D01*
X028259Y017129D02*
X028054Y017129D01*
X028054Y017167D02*
X028251Y017167D01*
X028242Y017205D02*
X028054Y017205D01*
X028054Y017242D02*
X028234Y017242D01*
X028226Y017280D02*
X028054Y017280D01*
X028054Y017318D02*
X028217Y017318D01*
X028209Y017356D02*
X028054Y017356D01*
X028054Y017394D02*
X028200Y017394D01*
X028192Y017432D02*
X028054Y017432D01*
X028054Y017470D02*
X028183Y017470D01*
X028175Y017508D02*
X028054Y017508D01*
X028054Y017546D02*
X028167Y017546D01*
X028158Y017584D02*
X028054Y017584D01*
X028015Y017584D02*
X027936Y017584D01*
X027946Y017622D02*
X028287Y017622D01*
X028264Y017660D02*
X027957Y017660D01*
X027967Y017697D02*
X028241Y017697D01*
X028218Y017735D02*
X027978Y017735D01*
X027989Y017773D02*
X028195Y017773D01*
X028172Y017811D02*
X027999Y017811D01*
X028010Y017849D02*
X028149Y017849D01*
X028126Y017887D02*
X028020Y017887D01*
X028031Y017925D02*
X028102Y017925D01*
X028079Y017963D02*
X028042Y017963D01*
X028052Y018001D02*
X028056Y018001D01*
X028235Y017584D02*
X028310Y017584D01*
X027962Y017546D02*
X027925Y017546D01*
X027758Y017053D02*
X028276Y017053D01*
X028285Y017015D02*
X027963Y017015D01*
X027957Y017015D02*
X027758Y017015D01*
X027758Y016977D02*
X027968Y016977D01*
X027980Y016939D02*
X027758Y016939D01*
X027758Y016901D02*
X027991Y016901D01*
X028002Y016863D02*
X027758Y016863D01*
X027758Y016825D02*
X028014Y016825D01*
X028025Y016788D02*
X027758Y016788D01*
X027758Y016750D02*
X028037Y016750D01*
X028048Y016712D02*
X027758Y016712D01*
X027758Y016674D02*
X028059Y016674D01*
X028071Y016636D02*
X027758Y016636D01*
X027758Y016598D02*
X028082Y016598D01*
X028093Y016560D02*
X027758Y016560D01*
X027758Y016522D02*
X028105Y016522D01*
X028116Y016484D02*
X027758Y016484D01*
X027758Y016446D02*
X028128Y016446D01*
X028139Y016408D02*
X027758Y016408D01*
X027758Y016370D02*
X028150Y016370D01*
X028162Y016333D02*
X027758Y016333D01*
X027758Y016295D02*
X028173Y016295D01*
X028184Y016257D02*
X027758Y016257D01*
X027758Y016219D02*
X028196Y016219D01*
X028207Y016181D02*
X027758Y016181D01*
X027758Y016143D02*
X028219Y016143D01*
X028230Y016105D02*
X027758Y016105D01*
X027758Y016067D02*
X028241Y016067D01*
X028317Y016750D02*
X028344Y016750D01*
X028335Y016788D02*
X028266Y016788D01*
X028216Y016825D02*
X028327Y016825D01*
X028318Y016863D02*
X028165Y016863D01*
X028115Y016901D02*
X028310Y016901D01*
X028301Y016939D02*
X028064Y016939D01*
X028014Y016977D02*
X028293Y016977D01*
X006302Y022041D02*
X006302Y023320D01*
X005809Y023320D01*
X006105Y022336D01*
X005711Y022631D01*
X005908Y021745D01*
X005731Y021804D01*
X006006Y021352D01*
X006144Y021844D01*
X006006Y021745D01*
X006006Y022237D01*
X006302Y022041D01*
X006302Y022057D02*
X006276Y022057D01*
X006302Y022095D02*
X006219Y022095D01*
X006163Y022133D02*
X006302Y022133D01*
X006302Y022171D02*
X006106Y022171D01*
X006049Y022209D02*
X006302Y022209D01*
X006302Y022247D02*
X005796Y022247D01*
X005788Y022285D02*
X006302Y022285D01*
X006302Y022323D02*
X005780Y022323D01*
X005771Y022361D02*
X006072Y022361D01*
X006097Y022361D02*
X006302Y022361D01*
X006302Y022399D02*
X006086Y022399D01*
X006074Y022437D02*
X006302Y022437D01*
X006302Y022475D02*
X006063Y022475D01*
X006052Y022512D02*
X006302Y022512D01*
X006302Y022550D02*
X006040Y022550D01*
X006029Y022588D02*
X006302Y022588D01*
X006302Y022626D02*
X006018Y022626D01*
X006006Y022664D02*
X006302Y022664D01*
X006302Y022702D02*
X005995Y022702D01*
X005984Y022740D02*
X006302Y022740D01*
X006302Y022778D02*
X005972Y022778D01*
X005961Y022816D02*
X006302Y022816D01*
X006302Y022854D02*
X005949Y022854D01*
X005938Y022892D02*
X006302Y022892D01*
X006302Y022929D02*
X005927Y022929D01*
X005915Y022967D02*
X006302Y022967D01*
X006302Y023005D02*
X005904Y023005D01*
X005893Y023043D02*
X006302Y023043D01*
X006302Y023081D02*
X005881Y023081D01*
X005870Y023119D02*
X006302Y023119D01*
X006302Y023157D02*
X005858Y023157D01*
X005847Y023195D02*
X006302Y023195D01*
X006302Y023233D02*
X005836Y023233D01*
X005824Y023271D02*
X006302Y023271D01*
X006302Y023309D02*
X005813Y023309D01*
X005718Y022626D02*
X005712Y022626D01*
X005721Y022588D02*
X005768Y022588D01*
X005729Y022550D02*
X005819Y022550D01*
X005869Y022512D02*
X005737Y022512D01*
X005746Y022475D02*
X005920Y022475D01*
X005970Y022437D02*
X005754Y022437D01*
X005763Y022399D02*
X006021Y022399D01*
X006006Y022209D02*
X005805Y022209D01*
X005813Y022171D02*
X006006Y022171D01*
X006006Y022133D02*
X005822Y022133D01*
X005830Y022095D02*
X006006Y022095D01*
X006006Y022057D02*
X005839Y022057D01*
X005847Y022020D02*
X006006Y022020D01*
X006006Y021982D02*
X005855Y021982D01*
X005864Y021944D02*
X006006Y021944D01*
X006006Y021906D02*
X005872Y021906D01*
X005881Y021868D02*
X006006Y021868D01*
X006006Y021830D02*
X005889Y021830D01*
X005897Y021792D02*
X006006Y021792D01*
X006006Y021754D02*
X005906Y021754D01*
X005881Y021754D02*
X005761Y021754D01*
X005768Y021792D02*
X005738Y021792D01*
X005784Y021716D02*
X006108Y021716D01*
X006098Y021678D02*
X005807Y021678D01*
X005831Y021640D02*
X006087Y021640D01*
X006077Y021603D02*
X005854Y021603D01*
X005877Y021565D02*
X006066Y021565D01*
X006055Y021527D02*
X005900Y021527D01*
X005923Y021489D02*
X006045Y021489D01*
X006034Y021451D02*
X005946Y021451D01*
X005969Y021413D02*
X006023Y021413D01*
X006013Y021375D02*
X005992Y021375D01*
X006019Y021754D02*
X006119Y021754D01*
X006130Y021792D02*
X006072Y021792D01*
X006125Y021830D02*
X006140Y021830D01*
M02*
