G75*
G70*
%OFA0B0*%
%FSLAX24Y24*%
%IPPOS*%
%LPD*%
%AMOC8*
5,1,8,0,0,1.08239X$1,22.5*
%
%ADD10C,0.0660*%
%ADD11C,0.1000*%
%ADD12C,0.0376*%
%ADD13C,0.0320*%
D10*
X006272Y004068D03*
X010272Y004068D03*
X015883Y007879D03*
X014666Y008954D03*
X010666Y008954D03*
X019843Y009639D03*
X023843Y009639D03*
X025355Y008852D03*
X029355Y008852D03*
X034048Y009214D03*
X035599Y008954D03*
X035599Y004954D03*
X019883Y007879D03*
X034048Y013214D03*
D11*
X023875Y005328D03*
X021575Y005328D03*
X021575Y003028D03*
X023875Y003028D03*
D12*
X008851Y002159D03*
X016725Y004127D03*
X019875Y006096D03*
X022631Y004127D03*
X030111Y006489D03*
X032079Y010033D03*
X026961Y011214D03*
X030505Y012395D03*
X024599Y010033D03*
X017512Y012222D03*
X011213Y013182D03*
X009638Y012001D03*
X016725Y009639D03*
X008753Y008360D03*
X006095Y008064D03*
D13*
X006883Y008064D01*
X006883Y008360D01*
X008753Y008360D01*
X013182Y006096D02*
X013182Y004915D01*
X009638Y004915D01*
X009638Y012001D01*
X011213Y012222D02*
X011213Y013182D01*
X011213Y012222D02*
X017512Y012222D01*
X024599Y010033D02*
X032079Y010033D01*
X029717Y011214D02*
X026961Y011214D01*
X029717Y011214D02*
X029717Y012395D01*
X030505Y012395D01*
X023418Y008852D02*
X016725Y008852D01*
X016725Y009639D01*
X019875Y007879D02*
X019875Y006096D01*
X019875Y002159D01*
X008851Y002159D01*
X016725Y004127D02*
X016725Y006096D01*
X013182Y006096D01*
X019875Y007879D02*
X019883Y007879D01*
X023418Y008852D02*
X023418Y006489D01*
X030111Y006489D01*
M02*
