G75*
G70*
%OFA0B0*%
%FSLAX24Y24*%
%IPPOS*%
%LPD*%
%AMOC8*
5,1,8,0,0,1.08239X$1,22.5*
%
%ADD10C,0.0886*%
%ADD11C,0.1286*%
%ADD12C,0.1181*%
%ADD13C,0.0660*%
%ADD14C,0.0376*%
%ADD15C,0.0416*%
%ADD16C,0.0160*%
%ADD17C,0.0591*%
D10*
X007485Y009847D03*
X011453Y009847D03*
X004264Y015347D03*
X004264Y021347D03*
X025134Y010240D03*
X029103Y010240D03*
X031823Y015347D03*
X031823Y021347D03*
D11*
X031439Y008973D03*
X022798Y008973D03*
X013790Y008579D03*
X005148Y008579D03*
D12*
X007485Y006343D03*
X011453Y006343D03*
X013044Y002347D03*
X008087Y002347D03*
X025134Y006736D03*
X029103Y006736D03*
X029512Y002347D03*
D13*
X026544Y025347D03*
X022544Y025347D03*
X021044Y025347D03*
X017044Y025347D03*
X015044Y025347D03*
X011044Y025347D03*
X008150Y025347D03*
X005225Y027347D03*
X004150Y025347D03*
X005225Y031347D03*
X013544Y031347D03*
X013544Y029740D03*
X017544Y029740D03*
X017544Y031347D03*
D14*
X022622Y024075D03*
D15*
X021835Y026437D03*
X021441Y027225D03*
X022044Y028634D03*
X023016Y026831D03*
X026559Y026437D03*
X027347Y026043D03*
X028528Y024862D03*
X030496Y017776D03*
X026166Y013839D03*
X023016Y014626D03*
X021835Y013839D03*
X017504Y011870D03*
X015536Y009902D03*
X017111Y007540D03*
X016323Y006752D03*
X019866Y006752D03*
X022229Y006752D03*
X030496Y012264D03*
X018292Y026437D03*
X017504Y028012D03*
X015929Y026437D03*
X010544Y026347D03*
X009544Y026347D03*
X007544Y026347D03*
D16*
X009544Y026347D01*
X010544Y026347D02*
X015929Y026347D01*
X015929Y026437D01*
X017504Y028012D02*
X025378Y028012D01*
X026559Y026437D01*
X025772Y026043D02*
X024985Y026831D01*
X023016Y026831D01*
X022622Y027225D01*
X021441Y027225D01*
X021835Y026437D02*
X021835Y024638D01*
X021544Y024347D01*
X021544Y015831D01*
X018292Y012579D01*
X018213Y012579D01*
X017504Y011870D01*
X017111Y010295D02*
X022622Y015807D01*
X022622Y024075D01*
X021835Y024638D02*
X022544Y025347D01*
X025772Y026043D02*
X027347Y026043D01*
X026544Y025347D02*
X026544Y018154D01*
X023016Y014626D01*
X021835Y013839D02*
X026166Y013839D01*
X030496Y012264D02*
X030496Y017776D01*
X028528Y022347D02*
X028437Y022347D01*
X028528Y022347D02*
X028528Y024862D01*
X022044Y028634D02*
X013756Y028634D01*
X013544Y028847D01*
X013544Y029740D01*
X018292Y026437D02*
X018292Y022894D01*
X019473Y021713D01*
X017111Y010295D02*
X017111Y007540D01*
X016323Y006752D02*
X016221Y006752D01*
X016221Y009217D01*
X015536Y009902D01*
X016323Y006752D02*
X019866Y006752D01*
X022229Y006752D01*
D17*
X019473Y021713D03*
X028437Y022347D03*
M02*
