%
M48
M72
T01C0.0236
T02C0.0440
T03C0.0600
T04C0.1654
T05C0.1900
%
T01
X8851Y2159
X16725Y4127
X19875Y6096
X22631Y4127
X30111Y6489
X32079Y10033
X26961Y11214
X30505Y12395
X24599Y10033
X17512Y12222
X11213Y13182
X9638Y12001
X16725Y9639
X8753Y8360
X6095Y8064
T02
X10666Y8954
X14666Y8954
X15883Y7879
X19883Y7879
X25355Y8852
X23843Y9639
X19843Y9639
X29355Y8852
X34048Y9214
X35599Y8954
X35599Y4954
X34048Y13214
X10272Y4068
X6272Y4068
T03
X21575Y3028
X23875Y3028
X23875Y5328
X21575Y5328
T04
X2552Y2946
X2552Y13379
X38182Y13379
X38182Y2946
T05
X30835Y4178
X14615Y4178
M30
