%
M48
M72
T01C0.0236
T02C0.0276
T03C0.0394
T04C0.0440
T05C0.0591
T06C0.0787
T07C0.0886
T08C0.0950
T09C0.1732
%
T01
X22622Y24075
T02
X21835Y26437
X21441Y27225
X22044Y28634
X23016Y26831
X26559Y26437
X27347Y26043
X28528Y24862
X30496Y17776
X26166Y13839
X23016Y14626
X21835Y13839
X17504Y11870
X15536Y9902
X17111Y7540
X16323Y6752
X19866Y6752
X22229Y6752
X30496Y12264
X18292Y26437
X17504Y28012
X15929Y26437
X10544Y26347
X9544Y26347
X7544Y26347
T03
X19473Y21713
X28437Y22347
T04
X26544Y25347
X22544Y25347
X21044Y25347
X17044Y25347
X15044Y25347
X11044Y25347
X8150Y25347
X5225Y27347
X4150Y25347
X5225Y31347
X13544Y31347
X13544Y29740
X17544Y29740
X17544Y31347
T05
X4264Y21347
X4264Y15347
X7485Y9847
X11453Y9847
X25134Y10240
X29103Y10240
X31823Y15347
X31823Y21347
T06
X27118Y10240
X25134Y6736
X29103Y6736
X29512Y2347
X13044Y2347
X11453Y6343
X9469Y9847
X7485Y6343
X8087Y2347
T07
X5148Y8579
X13790Y8579
X22798Y8973
X31439Y8973
T08
X33512Y25122
X33512Y27996
T09
X1756Y2421
X1756Y31162
X33646Y31162
X33646Y2815
M30
