%
M48
M72
T01C0.0236
T02C0.0276
T03C0.0394
T04C0.0440
T05C0.0591
T06C0.0787
T07C0.0886
T08C0.0945
T09C0.0950
%
T01
X21017Y24074
T02
X20230Y26437
X19836Y27224
X20439Y28633
X21411Y26830
X24454Y26687
X25348Y26043
X26923Y29980
X16687Y26437
X15899Y28011
X14324Y26437
X21411Y14626
X20230Y13838
X24561Y13838
X28891Y12263
X28891Y17775
X20624Y6751
X18261Y6751
X15506Y7539
X14718Y6751
X13931Y9901
X15899Y11870
T03
X17868Y21712
X26832Y22346
T04
X24939Y25346
X20939Y25346
X19439Y25346
X15439Y25346
X13439Y25346
X9439Y25346
X6545Y25346
X3620Y27346
X2545Y25346
X3620Y31346
X11939Y31346
X11939Y29740
X15939Y29740
X15939Y31346
T05
X2659Y21346
X2659Y15346
X5880Y9846
X9848Y9846
X23529Y10240
X27498Y10240
X30218Y15346
X30218Y21346
T06
X25513Y10240
X23529Y6736
X27498Y6736
X27513Y2346
X11439Y2346
X9848Y6342
X7864Y9846
X5880Y6342
X6482Y2346
T07
X3543Y8578
X12185Y8578
X21193Y8972
X29834Y8972
T08
X939Y2027
X976Y32305
X30019Y32198
X30072Y2027
T09
X29151Y27090
X29151Y29964
M30
