%
M48
M72
T01C0.0236
T02C0.0276
T03C0.0394
T04C0.0440
T05C0.0591
T06C0.0787
T07C0.0886
T08C0.0945
T09C0.0950
%
T01
X20967Y23812
T02
X21361Y26568
X24798Y26818
X25298Y25781
X17817Y28537
X16845Y28371
X17424Y26962
X17030Y26568
X16636Y26174
X15455Y27356
X14274Y26174
X21361Y14363
X20180Y13576
X24510Y13576
X28841Y12001
X28841Y17513
X20573Y6489
X18211Y6489
X15455Y7277
X14668Y6489
X13880Y9639
X15849Y11608
T03
X17817Y21450
X26782Y22084
T04
X24888Y25084
X20888Y25084
X19388Y25084
X15388Y25084
X13388Y25084
X9388Y25084
X6494Y25084
X3569Y27084
X2494Y25084
X3569Y31084
X11888Y31084
X11888Y29478
X15888Y29478
X15888Y31084
T05
X2609Y21084
X2609Y15084
X5829Y9584
X9798Y9584
X23479Y9978
X27447Y9978
X30168Y15084
X30168Y21084
T06
X25463Y9978
X23479Y6474
X27447Y6474
X27463Y2084
X11388Y2084
X9798Y6080
X7813Y9584
X5829Y6080
X6431Y2084
T07
X3493Y8316
X12134Y8316
X21142Y8710
X29784Y8710
T08
X1282Y2159
X1282Y31686
X29628Y31686
X29628Y2159
T09
X22542Y28403
X22542Y31277
M30
