G75*
G70*
%OFA0B0*%
%FSLAX24Y24*%
%IPPOS*%
%LPD*%
%AMOC8*
5,1,8,0,0,1.08239X$1,22.5*
%
%ADD10C,0.1025*%
%ADD11R,0.0552X0.1340*%
%ADD12R,0.0749X0.2167*%
%ADD13C,0.0966*%
%ADD14C,0.0867*%
%ADD15C,0.1366*%
%ADD16C,0.1261*%
%ADD17C,0.0740*%
%ADD18R,0.0474X0.1202*%
%ADD19R,0.1230X0.0580*%
%ADD20C,0.1030*%
%ADD21C,0.0496*%
%ADD22C,0.0671*%
D10*
X001282Y002159D03*
X001282Y031686D03*
X029628Y031686D03*
X029628Y002159D03*
D11*
X019097Y004336D03*
X018309Y004336D03*
X015357Y004336D03*
X014569Y004336D03*
D12*
X013565Y002178D03*
X016361Y002178D03*
X017306Y002178D03*
X020101Y002178D03*
D13*
X023479Y009978D03*
X027447Y009978D03*
X030168Y015084D03*
X030168Y021084D03*
X009798Y009584D03*
X005829Y009584D03*
X002609Y015084D03*
X002609Y021084D03*
D14*
X007813Y009584D03*
X025463Y009978D03*
D15*
X021142Y008710D03*
X029784Y008710D03*
X012134Y008316D03*
X003493Y008316D03*
D16*
X005829Y006080D03*
X006431Y002084D03*
X009798Y006080D03*
X011388Y002084D03*
X023479Y006474D03*
X027447Y006474D03*
X027463Y002084D03*
D17*
X024888Y025084D03*
X020888Y025084D03*
X019388Y025084D03*
X015388Y025084D03*
X013388Y025084D03*
X009388Y025084D03*
X006494Y025084D03*
X003569Y027084D03*
X002494Y025084D03*
X003569Y031084D03*
X011888Y031084D03*
X011888Y029478D03*
X015888Y029478D03*
X015888Y031084D03*
D18*
X009888Y030669D03*
X008888Y030669D03*
X007888Y030659D03*
X006888Y030669D03*
X004888Y030669D03*
X004888Y027499D03*
X006888Y027499D03*
X007888Y027499D03*
X008888Y027499D03*
X009888Y027499D03*
D19*
X018565Y029249D03*
X018565Y030430D03*
X020388Y030430D03*
X020388Y029249D03*
D20*
X022542Y028403D03*
X022542Y031277D03*
D21*
X024798Y026818D03*
X025298Y025781D03*
X021361Y026568D03*
X017817Y028537D03*
X016845Y028371D03*
X017424Y026962D03*
X017030Y026568D03*
X016636Y026174D03*
X015455Y027356D03*
X014274Y026174D03*
X021361Y014363D03*
X020180Y013576D03*
X024510Y013576D03*
X028841Y012001D03*
X028841Y017513D03*
X020573Y006489D03*
X018211Y006489D03*
X015455Y007277D03*
X014668Y006489D03*
X013880Y009639D03*
X015849Y011608D03*
D22*
X017817Y021450D03*
X026782Y022084D03*
M02*
