G75*
G70*
%OFA0B0*%
%FSLAX24Y24*%
%IPPOS*%
%LPD*%
%AMOC8*
5,1,8,0,0,1.08239X$1,22.5*
%
%ADD10C,0.0080*%
%ADD11C,0.0160*%
%ADD12C,0.0050*%
%ADD13C,0.0060*%
%ADD14C,0.0070*%
%ADD15C,0.0040*%
%ADD16R,0.0200X0.1000*%
%ADD17R,0.0750X0.0300*%
%ADD18R,0.1000X0.0200*%
%ADD19R,0.0300X0.0750*%
%ADD20C,0.0295*%
%ADD21C,0.0039*%
D10*
X002947Y002067D02*
X002947Y002988D01*
X003254Y002681D01*
X003561Y002988D01*
X003561Y002067D01*
X003868Y002221D02*
X004021Y002067D01*
X004328Y002067D01*
X004482Y002221D01*
X004789Y002527D02*
X005402Y002527D01*
X005095Y002221D02*
X005095Y002834D01*
X004482Y002834D02*
X004328Y002988D01*
X004021Y002988D01*
X003868Y002834D01*
X003868Y002221D01*
X008065Y002067D02*
X008065Y002988D01*
X008372Y002681D01*
X008679Y002988D01*
X008679Y002067D01*
X008986Y002221D02*
X009139Y002067D01*
X009446Y002067D01*
X009600Y002221D01*
X009907Y002527D02*
X010521Y002527D01*
X009600Y002834D02*
X009446Y002988D01*
X009139Y002988D01*
X008986Y002834D01*
X008986Y002221D01*
X013309Y003392D02*
X013309Y003892D01*
X013709Y004292D01*
X016309Y004292D02*
X016709Y003892D01*
X016709Y003392D01*
X017077Y003392D02*
X017077Y003892D01*
X017477Y004292D01*
X020077Y004292D02*
X020477Y003892D01*
X020477Y003392D01*
X021057Y002988D02*
X021518Y002988D01*
X021671Y002834D01*
X021671Y002681D01*
X021518Y002527D01*
X021057Y002527D01*
X021057Y002067D02*
X021518Y002067D01*
X021671Y002221D01*
X021671Y002374D01*
X021518Y002527D01*
X021057Y002067D02*
X021057Y002988D01*
X021978Y002681D02*
X021978Y002067D01*
X021978Y002527D02*
X022592Y002527D01*
X022592Y002681D02*
X022285Y002988D01*
X021978Y002681D01*
X022592Y002681D02*
X022592Y002067D01*
X023206Y002067D02*
X023206Y002988D01*
X022899Y002988D02*
X023513Y002988D01*
X023820Y002988D02*
X024433Y002988D01*
X024126Y002988D02*
X024126Y002067D01*
X025661Y002527D02*
X026275Y002527D01*
X025968Y002221D02*
X025968Y002834D01*
X019777Y001092D02*
X017777Y001092D01*
X016009Y001092D02*
X014009Y001092D01*
D11*
X000189Y002064D02*
X000191Y002120D01*
X000197Y002175D01*
X000207Y002229D01*
X000220Y002283D01*
X000238Y002336D01*
X000259Y002387D01*
X000283Y002437D01*
X000311Y002485D01*
X000343Y002531D01*
X000377Y002575D01*
X000415Y002616D01*
X000455Y002654D01*
X000498Y002689D01*
X000543Y002721D01*
X000591Y002750D01*
X000640Y002776D01*
X000691Y002798D01*
X000743Y002816D01*
X000797Y002830D01*
X000852Y002841D01*
X000907Y002848D01*
X000962Y002851D01*
X001018Y002850D01*
X001073Y002845D01*
X001128Y002836D01*
X001182Y002824D01*
X001235Y002807D01*
X001287Y002787D01*
X001337Y002763D01*
X001385Y002736D01*
X001432Y002706D01*
X001476Y002672D01*
X001518Y002635D01*
X001556Y002595D01*
X001593Y002553D01*
X001626Y002508D01*
X001655Y002462D01*
X001682Y002413D01*
X001704Y002362D01*
X001724Y002310D01*
X001739Y002256D01*
X001751Y002202D01*
X001759Y002147D01*
X001763Y002092D01*
X001763Y002036D01*
X001759Y001981D01*
X001751Y001926D01*
X001739Y001872D01*
X001724Y001818D01*
X001704Y001766D01*
X001682Y001715D01*
X001655Y001666D01*
X001626Y001620D01*
X001593Y001575D01*
X001556Y001533D01*
X001518Y001493D01*
X001476Y001456D01*
X001432Y001422D01*
X001385Y001392D01*
X001337Y001365D01*
X001287Y001341D01*
X001235Y001321D01*
X001182Y001304D01*
X001128Y001292D01*
X001073Y001283D01*
X001018Y001278D01*
X000962Y001277D01*
X000907Y001280D01*
X000852Y001287D01*
X000797Y001298D01*
X000743Y001312D01*
X000691Y001330D01*
X000640Y001352D01*
X000591Y001378D01*
X000543Y001407D01*
X000498Y001439D01*
X000455Y001474D01*
X000415Y001512D01*
X000377Y001553D01*
X000343Y001597D01*
X000311Y001643D01*
X000283Y001691D01*
X000259Y001741D01*
X000238Y001792D01*
X000220Y001845D01*
X000207Y001899D01*
X000197Y001953D01*
X000191Y002008D01*
X000189Y002064D01*
X000189Y032305D02*
X000191Y032361D01*
X000197Y032416D01*
X000207Y032470D01*
X000220Y032524D01*
X000238Y032577D01*
X000259Y032628D01*
X000283Y032678D01*
X000311Y032726D01*
X000343Y032772D01*
X000377Y032816D01*
X000415Y032857D01*
X000455Y032895D01*
X000498Y032930D01*
X000543Y032962D01*
X000591Y032991D01*
X000640Y033017D01*
X000691Y033039D01*
X000743Y033057D01*
X000797Y033071D01*
X000852Y033082D01*
X000907Y033089D01*
X000962Y033092D01*
X001018Y033091D01*
X001073Y033086D01*
X001128Y033077D01*
X001182Y033065D01*
X001235Y033048D01*
X001287Y033028D01*
X001337Y033004D01*
X001385Y032977D01*
X001432Y032947D01*
X001476Y032913D01*
X001518Y032876D01*
X001556Y032836D01*
X001593Y032794D01*
X001626Y032749D01*
X001655Y032703D01*
X001682Y032654D01*
X001704Y032603D01*
X001724Y032551D01*
X001739Y032497D01*
X001751Y032443D01*
X001759Y032388D01*
X001763Y032333D01*
X001763Y032277D01*
X001759Y032222D01*
X001751Y032167D01*
X001739Y032113D01*
X001724Y032059D01*
X001704Y032007D01*
X001682Y031956D01*
X001655Y031907D01*
X001626Y031861D01*
X001593Y031816D01*
X001556Y031774D01*
X001518Y031734D01*
X001476Y031697D01*
X001432Y031663D01*
X001385Y031633D01*
X001337Y031606D01*
X001287Y031582D01*
X001235Y031562D01*
X001182Y031545D01*
X001128Y031533D01*
X001073Y031524D01*
X001018Y031519D01*
X000962Y031518D01*
X000907Y031521D01*
X000852Y031528D01*
X000797Y031539D01*
X000743Y031553D01*
X000691Y031571D01*
X000640Y031593D01*
X000591Y031619D01*
X000543Y031648D01*
X000498Y031680D01*
X000455Y031715D01*
X000415Y031753D01*
X000377Y031794D01*
X000343Y031838D01*
X000311Y031884D01*
X000283Y031932D01*
X000259Y031982D01*
X000238Y032033D01*
X000220Y032086D01*
X000207Y032140D01*
X000197Y032194D01*
X000191Y032249D01*
X000189Y032305D01*
X029254Y032161D02*
X029256Y032217D01*
X029262Y032272D01*
X029272Y032326D01*
X029285Y032380D01*
X029303Y032433D01*
X029324Y032484D01*
X029348Y032534D01*
X029376Y032582D01*
X029408Y032628D01*
X029442Y032672D01*
X029480Y032713D01*
X029520Y032751D01*
X029563Y032786D01*
X029608Y032818D01*
X029656Y032847D01*
X029705Y032873D01*
X029756Y032895D01*
X029808Y032913D01*
X029862Y032927D01*
X029917Y032938D01*
X029972Y032945D01*
X030027Y032948D01*
X030083Y032947D01*
X030138Y032942D01*
X030193Y032933D01*
X030247Y032921D01*
X030300Y032904D01*
X030352Y032884D01*
X030402Y032860D01*
X030450Y032833D01*
X030497Y032803D01*
X030541Y032769D01*
X030583Y032732D01*
X030621Y032692D01*
X030658Y032650D01*
X030691Y032605D01*
X030720Y032559D01*
X030747Y032510D01*
X030769Y032459D01*
X030789Y032407D01*
X030804Y032353D01*
X030816Y032299D01*
X030824Y032244D01*
X030828Y032189D01*
X030828Y032133D01*
X030824Y032078D01*
X030816Y032023D01*
X030804Y031969D01*
X030789Y031915D01*
X030769Y031863D01*
X030747Y031812D01*
X030720Y031763D01*
X030691Y031717D01*
X030658Y031672D01*
X030621Y031630D01*
X030583Y031590D01*
X030541Y031553D01*
X030497Y031519D01*
X030450Y031489D01*
X030402Y031462D01*
X030352Y031438D01*
X030300Y031418D01*
X030247Y031401D01*
X030193Y031389D01*
X030138Y031380D01*
X030083Y031375D01*
X030027Y031374D01*
X029972Y031377D01*
X029917Y031384D01*
X029862Y031395D01*
X029808Y031409D01*
X029756Y031427D01*
X029705Y031449D01*
X029656Y031475D01*
X029608Y031504D01*
X029563Y031536D01*
X029520Y031571D01*
X029480Y031609D01*
X029442Y031650D01*
X029408Y031694D01*
X029376Y031740D01*
X029348Y031788D01*
X029324Y031838D01*
X029303Y031889D01*
X029285Y031942D01*
X029272Y031996D01*
X029262Y032050D01*
X029256Y032105D01*
X029254Y032161D01*
X029285Y002027D02*
X029287Y002083D01*
X029293Y002138D01*
X029303Y002192D01*
X029316Y002246D01*
X029334Y002299D01*
X029355Y002350D01*
X029379Y002400D01*
X029407Y002448D01*
X029439Y002494D01*
X029473Y002538D01*
X029511Y002579D01*
X029551Y002617D01*
X029594Y002652D01*
X029639Y002684D01*
X029687Y002713D01*
X029736Y002739D01*
X029787Y002761D01*
X029839Y002779D01*
X029893Y002793D01*
X029948Y002804D01*
X030003Y002811D01*
X030058Y002814D01*
X030114Y002813D01*
X030169Y002808D01*
X030224Y002799D01*
X030278Y002787D01*
X030331Y002770D01*
X030383Y002750D01*
X030433Y002726D01*
X030481Y002699D01*
X030528Y002669D01*
X030572Y002635D01*
X030614Y002598D01*
X030652Y002558D01*
X030689Y002516D01*
X030722Y002471D01*
X030751Y002425D01*
X030778Y002376D01*
X030800Y002325D01*
X030820Y002273D01*
X030835Y002219D01*
X030847Y002165D01*
X030855Y002110D01*
X030859Y002055D01*
X030859Y001999D01*
X030855Y001944D01*
X030847Y001889D01*
X030835Y001835D01*
X030820Y001781D01*
X030800Y001729D01*
X030778Y001678D01*
X030751Y001629D01*
X030722Y001583D01*
X030689Y001538D01*
X030652Y001496D01*
X030614Y001456D01*
X030572Y001419D01*
X030528Y001385D01*
X030481Y001355D01*
X030433Y001328D01*
X030383Y001304D01*
X030331Y001284D01*
X030278Y001267D01*
X030224Y001255D01*
X030169Y001246D01*
X030114Y001241D01*
X030058Y001240D01*
X030003Y001243D01*
X029948Y001250D01*
X029893Y001261D01*
X029839Y001275D01*
X029787Y001293D01*
X029736Y001315D01*
X029687Y001341D01*
X029639Y001370D01*
X029594Y001402D01*
X029551Y001437D01*
X029511Y001475D01*
X029473Y001516D01*
X029439Y001560D01*
X029407Y001606D01*
X029379Y001654D01*
X029355Y001704D01*
X029334Y001755D01*
X029316Y001808D01*
X029303Y001862D01*
X029293Y001916D01*
X029287Y001971D01*
X029285Y002027D01*
D12*
X019557Y026427D02*
X017477Y026427D01*
X016677Y027277D01*
X016667Y030577D01*
X017487Y031397D01*
X019587Y031397D01*
X020407Y030547D01*
X020407Y029667D01*
X019837Y029417D01*
X019277Y029677D01*
X019277Y030047D01*
X019037Y030277D01*
X018037Y030277D01*
X017797Y030047D01*
X017797Y027787D01*
X018037Y027547D01*
X019037Y027547D01*
X019277Y027777D01*
X019277Y028367D01*
X019837Y028087D01*
X020397Y028367D01*
X020397Y027257D01*
X019557Y026427D01*
X019564Y026434D02*
X017470Y026434D01*
X017424Y026482D02*
X019613Y026482D01*
X019662Y026531D02*
X017379Y026531D01*
X017333Y026579D02*
X019711Y026579D01*
X019760Y026628D02*
X017287Y026628D01*
X017241Y026676D02*
X019809Y026676D01*
X019859Y026725D02*
X017196Y026725D01*
X017150Y026773D02*
X019908Y026773D01*
X019957Y026822D02*
X017104Y026822D01*
X017059Y026871D02*
X020006Y026871D01*
X020055Y026919D02*
X017013Y026919D01*
X016967Y026968D02*
X020104Y026968D01*
X020153Y027016D02*
X016922Y027016D01*
X016876Y027065D02*
X020203Y027065D01*
X020252Y027113D02*
X016830Y027113D01*
X016785Y027162D02*
X020301Y027162D01*
X020350Y027210D02*
X016739Y027210D01*
X016693Y027259D02*
X020397Y027259D01*
X020397Y027307D02*
X016677Y027307D01*
X016676Y027356D02*
X020397Y027356D01*
X020397Y027405D02*
X016676Y027405D01*
X016676Y027453D02*
X020397Y027453D01*
X020397Y027502D02*
X016676Y027502D01*
X016676Y027550D02*
X018033Y027550D01*
X017984Y027599D02*
X016676Y027599D01*
X016676Y027647D02*
X017936Y027647D01*
X017887Y027696D02*
X016675Y027696D01*
X016675Y027744D02*
X017839Y027744D01*
X017797Y027793D02*
X016675Y027793D01*
X016675Y027841D02*
X017797Y027841D01*
X017797Y027890D02*
X016675Y027890D01*
X016675Y027939D02*
X017797Y027939D01*
X017797Y027987D02*
X016674Y027987D01*
X016674Y028036D02*
X017797Y028036D01*
X017797Y028084D02*
X016674Y028084D01*
X016674Y028133D02*
X017797Y028133D01*
X017797Y028181D02*
X016674Y028181D01*
X016674Y028230D02*
X017797Y028230D01*
X017797Y028278D02*
X016674Y028278D01*
X016673Y028327D02*
X017797Y028327D01*
X017797Y028375D02*
X016673Y028375D01*
X016673Y028424D02*
X017797Y028424D01*
X017797Y028472D02*
X016673Y028472D01*
X016673Y028521D02*
X017797Y028521D01*
X017797Y028570D02*
X016673Y028570D01*
X016673Y028618D02*
X017797Y028618D01*
X017797Y028667D02*
X016672Y028667D01*
X016672Y028715D02*
X017797Y028715D01*
X017797Y028764D02*
X016672Y028764D01*
X016672Y028812D02*
X017797Y028812D01*
X017797Y028861D02*
X016672Y028861D01*
X016672Y028909D02*
X017797Y028909D01*
X017797Y028958D02*
X016672Y028958D01*
X016671Y029006D02*
X017797Y029006D01*
X017797Y029055D02*
X016671Y029055D01*
X016671Y029104D02*
X017797Y029104D01*
X017797Y029152D02*
X016671Y029152D01*
X016671Y029201D02*
X017797Y029201D01*
X017797Y029249D02*
X016671Y029249D01*
X016671Y029298D02*
X017797Y029298D01*
X017797Y029346D02*
X016670Y029346D01*
X016670Y029395D02*
X017797Y029395D01*
X017797Y029443D02*
X016670Y029443D01*
X016670Y029492D02*
X017797Y029492D01*
X017797Y029540D02*
X016670Y029540D01*
X016670Y029589D02*
X017797Y029589D01*
X017797Y029638D02*
X016669Y029638D01*
X016669Y029686D02*
X017797Y029686D01*
X017797Y029735D02*
X016669Y029735D01*
X016669Y029783D02*
X017797Y029783D01*
X017797Y029832D02*
X016669Y029832D01*
X016669Y029880D02*
X017797Y029880D01*
X017797Y029929D02*
X016669Y029929D01*
X016668Y029977D02*
X017797Y029977D01*
X017797Y030026D02*
X016668Y030026D01*
X016668Y030074D02*
X017826Y030074D01*
X017876Y030123D02*
X016668Y030123D01*
X016668Y030171D02*
X017927Y030171D01*
X017978Y030220D02*
X016668Y030220D01*
X016668Y030269D02*
X018028Y030269D01*
X017184Y031094D02*
X019879Y031094D01*
X019925Y031045D02*
X017135Y031045D01*
X017087Y030997D02*
X019972Y030997D01*
X020019Y030948D02*
X017038Y030948D01*
X016990Y030900D02*
X020066Y030900D01*
X020113Y030851D02*
X016941Y030851D01*
X016893Y030803D02*
X020160Y030803D01*
X020206Y030754D02*
X016844Y030754D01*
X016796Y030705D02*
X020253Y030705D01*
X020300Y030657D02*
X016747Y030657D01*
X016698Y030608D02*
X020347Y030608D01*
X020394Y030560D02*
X016667Y030560D01*
X016667Y030511D02*
X020407Y030511D01*
X020407Y030463D02*
X016667Y030463D01*
X016667Y030414D02*
X020407Y030414D01*
X020407Y030366D02*
X016667Y030366D01*
X016667Y030317D02*
X020407Y030317D01*
X020407Y030269D02*
X019045Y030269D01*
X019096Y030220D02*
X020407Y030220D01*
X020407Y030171D02*
X019146Y030171D01*
X019197Y030123D02*
X020407Y030123D01*
X020407Y030074D02*
X019248Y030074D01*
X019277Y030026D02*
X020407Y030026D01*
X020407Y029977D02*
X019277Y029977D01*
X019277Y029929D02*
X020407Y029929D01*
X020407Y029880D02*
X019277Y029880D01*
X019277Y029832D02*
X020407Y029832D01*
X020407Y029783D02*
X019277Y029783D01*
X019277Y029735D02*
X020407Y029735D01*
X020407Y029686D02*
X019277Y029686D01*
X019361Y029638D02*
X020340Y029638D01*
X020230Y029589D02*
X019465Y029589D01*
X019570Y029540D02*
X020119Y029540D01*
X020008Y029492D02*
X019674Y029492D01*
X019779Y029443D02*
X019898Y029443D01*
X020317Y028327D02*
X020397Y028327D01*
X020397Y028278D02*
X020220Y028278D01*
X020123Y028230D02*
X020397Y028230D01*
X020397Y028181D02*
X020026Y028181D01*
X019929Y028133D02*
X020397Y028133D01*
X020397Y028084D02*
X019277Y028084D01*
X019277Y028036D02*
X020397Y028036D01*
X020397Y027987D02*
X019277Y027987D01*
X019277Y027939D02*
X020397Y027939D01*
X020397Y027890D02*
X019277Y027890D01*
X019277Y027841D02*
X020397Y027841D01*
X020397Y027793D02*
X019277Y027793D01*
X019243Y027744D02*
X020397Y027744D01*
X020397Y027696D02*
X019192Y027696D01*
X019142Y027647D02*
X020397Y027647D01*
X020397Y027599D02*
X019091Y027599D01*
X019040Y027550D02*
X020397Y027550D01*
X019744Y028133D02*
X019277Y028133D01*
X019277Y028181D02*
X019647Y028181D01*
X019550Y028230D02*
X019277Y028230D01*
X019277Y028278D02*
X019453Y028278D01*
X019356Y028327D02*
X019277Y028327D01*
X019832Y031142D02*
X017232Y031142D01*
X017281Y031191D02*
X019785Y031191D01*
X019738Y031239D02*
X017330Y031239D01*
X017378Y031288D02*
X019691Y031288D01*
X019644Y031337D02*
X017427Y031337D01*
X017475Y031385D02*
X019598Y031385D01*
X019137Y031999D02*
X019137Y032100D01*
X019137Y032304D02*
X019137Y032711D01*
X019239Y032711D02*
X019035Y032711D01*
X018833Y032609D02*
X018732Y032711D01*
X018426Y032711D01*
X018426Y032304D02*
X018732Y032304D01*
X018833Y032406D01*
X018833Y032609D01*
X019137Y032304D02*
X019239Y032304D01*
X019439Y032304D02*
X019439Y032812D01*
X019541Y032914D01*
X019643Y032914D01*
X019744Y032711D02*
X019439Y032711D01*
X019744Y032711D02*
X019846Y032609D01*
X019846Y032406D01*
X019744Y032304D01*
X019439Y032304D01*
X020047Y032406D02*
X020149Y032304D01*
X020352Y032304D01*
X020454Y032406D01*
X020454Y032609D01*
X020352Y032711D01*
X020149Y032711D01*
X020047Y032609D01*
X020047Y032406D01*
X020655Y032711D02*
X021062Y032711D01*
X021062Y032100D01*
X021871Y032304D02*
X021972Y032304D01*
X022176Y032507D01*
X022176Y032304D02*
X022176Y032711D01*
X022376Y032609D02*
X022478Y032711D01*
X022682Y032711D01*
X022784Y032609D01*
X022784Y032406D01*
X022682Y032304D01*
X022478Y032304D01*
X022376Y032406D01*
X022376Y032609D01*
X022985Y032711D02*
X023087Y032609D01*
X023087Y032202D01*
X023189Y032304D02*
X022985Y032304D01*
X023389Y032304D02*
X023695Y032304D01*
X023796Y032406D01*
X023796Y032609D01*
X023695Y032711D01*
X023389Y032711D01*
X023997Y032711D02*
X023997Y032406D01*
X024099Y032304D01*
X024302Y032304D01*
X024302Y032507D02*
X023997Y032507D01*
X023997Y032711D02*
X024302Y032711D01*
X024404Y032609D01*
X024302Y032507D01*
X024606Y032304D02*
X024809Y032304D01*
X024707Y032202D02*
X024707Y032609D01*
X024606Y032711D01*
X025010Y032711D02*
X025010Y032406D01*
X025112Y032304D01*
X025417Y032304D01*
X025417Y032711D01*
X025618Y032609D02*
X025618Y032406D01*
X025719Y032304D01*
X025923Y032304D01*
X026025Y032406D01*
X026025Y032609D01*
X025923Y032711D01*
X025719Y032711D01*
X025618Y032609D01*
X026225Y032609D02*
X026327Y032711D01*
X026531Y032711D01*
X026632Y032609D01*
X026632Y032202D01*
X026531Y032100D01*
X026327Y032100D01*
X026225Y032202D01*
X027441Y032202D02*
X027441Y032304D01*
X027543Y032406D01*
X027441Y032507D01*
X027441Y032609D01*
X027543Y032711D01*
X027746Y032711D01*
X027848Y032609D01*
X028048Y032711D02*
X028048Y032100D01*
X027848Y032202D02*
X027746Y032100D01*
X027543Y032100D01*
X027441Y032202D01*
X027543Y032406D02*
X027644Y032406D01*
X028048Y032711D02*
X028252Y032507D01*
X028455Y032711D01*
X028455Y032100D01*
X028656Y032202D02*
X028656Y032406D01*
X028758Y032507D01*
X029063Y032507D01*
X028860Y032507D02*
X028656Y032711D01*
X029063Y032711D02*
X029063Y032100D01*
X028758Y032100D01*
X028656Y032202D01*
X017618Y032304D02*
X017414Y032711D01*
X017211Y032304D01*
X017010Y032202D02*
X016909Y032100D01*
X016705Y032100D01*
X016603Y032202D01*
X016603Y032304D01*
X016705Y032406D01*
X016603Y032507D01*
X016603Y032609D01*
X016705Y032711D01*
X016909Y032711D01*
X017010Y032609D01*
X016807Y032406D02*
X016705Y032406D01*
X016403Y032609D02*
X016403Y032711D01*
X016301Y032711D01*
X016301Y032609D01*
X016403Y032609D01*
X016099Y032711D02*
X015692Y032304D01*
X015692Y032202D01*
X015793Y032100D01*
X015997Y032100D01*
X016099Y032202D01*
X016099Y032711D02*
X015692Y032711D01*
X015491Y032711D02*
X015491Y032609D01*
X015389Y032609D01*
X015389Y032711D01*
X015491Y032711D01*
X015187Y032609D02*
X014780Y032202D01*
X014780Y032609D01*
X014882Y032711D01*
X015085Y032711D01*
X015187Y032609D01*
X015187Y032202D01*
X015085Y032100D01*
X014882Y032100D01*
X014780Y032202D01*
D13*
X014739Y031846D02*
X014739Y030846D01*
X013139Y030846D01*
X013139Y031846D01*
X014739Y031846D01*
X014189Y031346D02*
X013939Y031346D01*
X013939Y031596D01*
X013939Y031346D02*
X013939Y031096D01*
X013939Y031346D02*
X013539Y031596D01*
X013539Y031096D01*
X013939Y031346D01*
X013339Y031346D01*
X013139Y030240D02*
X013139Y029240D01*
X014739Y029240D01*
X014739Y030240D01*
X013139Y030240D01*
X013539Y029990D02*
X013939Y029740D01*
X013939Y029990D01*
X013939Y029740D02*
X013939Y029490D01*
X013939Y029740D02*
X013539Y029490D01*
X013539Y029990D01*
X013339Y029740D02*
X013939Y029740D01*
X014189Y029740D01*
X016859Y029737D02*
X017073Y029950D01*
X017073Y029310D01*
X017286Y029310D02*
X016859Y029310D01*
X016639Y025846D02*
X016639Y024846D01*
X018239Y024846D01*
X018239Y025846D01*
X016639Y025846D01*
X017189Y025346D02*
X017439Y025346D01*
X017439Y025096D01*
X017439Y025346D02*
X017439Y025596D01*
X017439Y025346D02*
X017839Y025596D01*
X017839Y025096D01*
X017439Y025346D01*
X018039Y025346D01*
X022139Y024846D02*
X023739Y024846D01*
X023739Y025846D01*
X022139Y025846D01*
X022139Y024846D01*
X022539Y025096D02*
X022539Y025596D01*
X022939Y025346D01*
X022939Y025596D01*
X022939Y025346D02*
X022939Y025096D01*
X022939Y025346D02*
X022539Y025096D01*
X022339Y025346D02*
X022939Y025346D01*
X023189Y025346D01*
X027347Y025679D02*
X027814Y026380D01*
X028046Y026029D02*
X028513Y026029D01*
X028746Y025796D02*
X028863Y025679D01*
X029096Y025679D01*
X029213Y025796D01*
X029213Y025913D01*
X029096Y026029D01*
X028980Y026029D01*
X029096Y026029D02*
X029213Y026146D01*
X029213Y026263D01*
X029096Y026380D01*
X028863Y026380D01*
X028746Y026263D01*
X029446Y026263D02*
X029563Y026380D01*
X029796Y026380D01*
X029913Y026263D01*
X029913Y026146D01*
X029796Y026029D01*
X029913Y025913D01*
X029913Y025796D01*
X029796Y025679D01*
X029563Y025679D01*
X029446Y025796D01*
X029679Y026029D02*
X029796Y026029D01*
X030146Y025796D02*
X030262Y025679D01*
X030496Y025679D01*
X030613Y025796D01*
X030613Y025913D01*
X030496Y026029D01*
X030379Y026029D01*
X030496Y026029D02*
X030613Y026146D01*
X030613Y026263D01*
X030496Y026380D01*
X030262Y026380D01*
X030146Y026263D01*
X027814Y025679D02*
X027347Y026380D01*
X012239Y025846D02*
X012239Y024846D01*
X010639Y024846D01*
X010639Y025846D01*
X012239Y025846D01*
X011689Y025346D02*
X011439Y025346D01*
X011439Y025596D01*
X011439Y025346D02*
X011439Y025096D01*
X011439Y025346D02*
X011039Y025596D01*
X011039Y025096D01*
X011439Y025346D01*
X010839Y025346D01*
X005345Y024846D02*
X005345Y025846D01*
X003745Y025846D01*
X003745Y024846D01*
X005345Y024846D01*
X004795Y025346D02*
X004545Y025346D01*
X004545Y025596D01*
X004545Y025346D02*
X004545Y025096D01*
X004545Y025346D02*
X004145Y025596D01*
X004145Y025096D01*
X004545Y025346D01*
X003945Y025346D01*
X004120Y028546D02*
X003120Y028546D01*
X003120Y030146D01*
X004120Y030146D01*
X004120Y028546D01*
X003620Y029096D02*
X003620Y029346D01*
X003870Y029346D01*
X003620Y029346D02*
X003620Y029946D01*
X003870Y029746D02*
X003620Y029346D01*
X003370Y029346D01*
X003620Y029346D02*
X003370Y029746D01*
X003870Y029746D01*
X013173Y006301D02*
X013640Y005600D01*
X013873Y005951D02*
X014340Y005951D01*
X014573Y005951D02*
X014573Y006301D01*
X015040Y006301D01*
X014923Y006067D02*
X015040Y005951D01*
X015040Y005717D01*
X014923Y005600D01*
X014690Y005600D01*
X014573Y005717D01*
X014573Y005951D02*
X014806Y006067D01*
X014923Y006067D01*
X015273Y006067D02*
X015506Y006301D01*
X015506Y005600D01*
X015273Y005600D02*
X015740Y005600D01*
X015972Y005600D02*
X016439Y006067D01*
X016439Y006184D01*
X016323Y006301D01*
X016089Y006301D01*
X015972Y006184D01*
X015972Y005600D02*
X016439Y005600D01*
X017110Y005600D02*
X017577Y006301D01*
X017810Y005951D02*
X018277Y005951D01*
X018510Y005951D02*
X018510Y006301D01*
X018977Y006301D01*
X018860Y006067D02*
X018977Y005951D01*
X018977Y005717D01*
X018860Y005600D01*
X018627Y005600D01*
X018510Y005717D01*
X018510Y005951D02*
X018743Y006067D01*
X018860Y006067D01*
X019210Y006067D02*
X019443Y006301D01*
X019443Y005600D01*
X019210Y005600D02*
X019677Y005600D01*
X019909Y005717D02*
X020026Y005600D01*
X020260Y005600D01*
X020376Y005717D01*
X020376Y005834D01*
X020260Y005951D01*
X020143Y005951D01*
X020260Y005951D02*
X020376Y006067D01*
X020376Y006184D01*
X020260Y006301D01*
X020026Y006301D01*
X019909Y006184D01*
X017577Y005600D02*
X017110Y006301D01*
X013640Y006301D02*
X013173Y005600D01*
D14*
X001896Y009916D02*
X001369Y009916D01*
X001105Y009916D02*
X000974Y009916D01*
X001237Y010181D02*
X001237Y010708D01*
X001105Y010708D02*
X001369Y010708D01*
X001501Y010576D01*
X001501Y010312D01*
X001369Y010181D01*
X001237Y010181D01*
X000974Y010312D02*
X000974Y010576D01*
X001105Y010708D01*
X000974Y010972D02*
X000974Y011368D01*
X001105Y011499D01*
X001369Y011499D01*
X001501Y011368D01*
X001501Y010972D01*
X000842Y010972D01*
X000710Y011104D01*
X000710Y011236D01*
X000974Y011764D02*
X000974Y012160D01*
X001105Y012291D01*
X001237Y012160D01*
X001237Y011764D01*
X001369Y011764D02*
X000974Y011764D01*
X001369Y011764D02*
X001501Y011896D01*
X001501Y012160D01*
X001501Y012556D02*
X001501Y012819D01*
X001632Y012687D02*
X001105Y012687D01*
X000974Y012556D01*
X000974Y013084D02*
X000974Y013347D01*
X000974Y013215D02*
X001764Y013215D01*
X001764Y013347D01*
X001369Y013612D02*
X001501Y013744D01*
X001501Y014007D01*
X001369Y014139D01*
X001105Y014139D01*
X000974Y014007D01*
X000974Y013744D01*
X001105Y013612D01*
X001369Y013612D01*
X001237Y014404D02*
X001764Y014404D01*
X001764Y014931D02*
X001237Y014931D01*
X000974Y014667D01*
X001237Y014404D01*
X001369Y015987D02*
X000974Y015987D01*
X001369Y015987D02*
X001501Y016119D01*
X001501Y016383D01*
X001369Y016515D01*
X001501Y016779D02*
X001501Y017175D01*
X001369Y017306D01*
X001105Y017306D01*
X000974Y017175D01*
X000974Y016779D01*
X000842Y016779D02*
X001501Y016779D01*
X001764Y016515D02*
X000974Y016515D01*
X000842Y016779D02*
X000710Y016911D01*
X000710Y017043D01*
X000974Y017571D02*
X000974Y017834D01*
X000974Y017703D02*
X001501Y017703D01*
X001501Y017834D01*
X001764Y017703D02*
X001896Y017703D01*
X001764Y018099D02*
X000974Y018099D01*
X001369Y018099D02*
X001369Y018626D01*
X000974Y018626D02*
X001764Y018626D01*
X001501Y019682D02*
X001369Y019682D01*
X001369Y019814D01*
X001501Y019814D01*
X001501Y019682D01*
X001105Y019682D02*
X000974Y019682D01*
X000974Y019814D01*
X001105Y019814D01*
X001105Y019682D01*
X001501Y020078D02*
X001501Y020210D01*
X001237Y020474D01*
X000974Y020474D02*
X001501Y020474D01*
X001369Y020739D02*
X001237Y020739D01*
X001237Y021266D01*
X001105Y021266D02*
X001369Y021266D01*
X001501Y021134D01*
X001501Y020870D01*
X001369Y020739D01*
X000974Y020870D02*
X000974Y021134D01*
X001105Y021266D01*
X000974Y021530D02*
X000974Y021926D01*
X001105Y022057D01*
X001369Y022057D01*
X001501Y021926D01*
X001501Y021530D01*
X000842Y021530D01*
X000710Y021662D01*
X000710Y021794D01*
X000974Y022322D02*
X001369Y022322D01*
X001501Y022454D01*
X001501Y022849D01*
X000974Y022849D01*
X000974Y023114D02*
X000974Y023509D01*
X001105Y023641D01*
X001237Y023509D01*
X001237Y023114D01*
X001369Y023114D02*
X000974Y023114D01*
X001369Y023114D02*
X001501Y023246D01*
X001501Y023509D01*
X001632Y023906D02*
X001105Y023906D01*
X000974Y024038D01*
X000974Y024433D01*
X001764Y024433D01*
X001764Y024038D01*
X001632Y023906D01*
D15*
X004551Y032195D02*
X004812Y032195D01*
X004812Y032716D01*
X004551Y032716D01*
X004465Y032629D01*
X004465Y032282D01*
X004551Y032195D01*
X004296Y032456D02*
X004209Y032369D01*
X004036Y032369D01*
X003949Y032456D01*
X003949Y032542D01*
X004296Y032542D01*
X004296Y032456D02*
X004296Y032629D01*
X004209Y032716D01*
X004036Y032716D01*
X003780Y032716D02*
X003780Y032369D01*
X003780Y032542D02*
X003607Y032369D01*
X003520Y032369D01*
X003351Y032369D02*
X003351Y032716D01*
X003351Y032542D02*
X003177Y032369D01*
X003090Y032369D01*
X002921Y032369D02*
X002921Y032629D01*
X002834Y032716D01*
X002574Y032716D01*
X002574Y032802D02*
X002661Y032889D01*
X002747Y032889D01*
X002574Y032802D02*
X002574Y032369D01*
X005496Y032456D02*
X005496Y032542D01*
X005843Y032542D01*
X005843Y032456D02*
X005756Y032369D01*
X005583Y032369D01*
X005496Y032456D01*
X005583Y032716D02*
X005756Y032716D01*
X005843Y032629D01*
X005843Y032456D01*
X006013Y032369D02*
X006187Y032369D01*
X006100Y032282D02*
X006100Y032629D01*
X006013Y032716D01*
X006355Y032716D02*
X006355Y032456D01*
X006442Y032369D01*
X006615Y032369D01*
X006615Y032542D02*
X006355Y032542D01*
X006355Y032716D02*
X006615Y032716D01*
X006702Y032629D01*
X006615Y032542D01*
X006871Y032716D02*
X006871Y032195D01*
X007218Y032195D02*
X006871Y032716D01*
X007218Y032716D02*
X007218Y032195D01*
D16*
X005095Y025346D03*
X011989Y025346D03*
X014489Y029740D03*
X014489Y031346D03*
X016889Y025346D03*
X023489Y025346D03*
D17*
X024114Y025346D03*
X021764Y025346D03*
X018614Y025346D03*
X016264Y025346D03*
X012614Y025346D03*
X010264Y025346D03*
X012764Y029740D03*
X012764Y031346D03*
X015114Y031346D03*
X015114Y029740D03*
X005720Y025346D03*
X003370Y025346D03*
D18*
X003620Y028796D03*
D19*
X003620Y028171D03*
X003620Y030521D03*
D20*
X001159Y028678D02*
X003409Y027156D01*
X003410Y027156D02*
X003441Y027133D01*
X003469Y027107D01*
X003495Y027079D01*
X003517Y027048D01*
X003537Y027015D01*
X003553Y026980D01*
X003566Y026944D01*
X003576Y026906D01*
X003581Y026868D01*
X003583Y026830D01*
X003581Y026792D01*
X003576Y026754D01*
X003566Y026716D01*
X003553Y026680D01*
X003537Y026645D01*
X003517Y026612D01*
X003495Y026581D01*
X003469Y026553D01*
X003441Y026527D01*
X003410Y026504D01*
X003409Y026504D02*
X001159Y024982D01*
X001160Y024982D02*
X001127Y024962D01*
X001092Y024945D01*
X001055Y024932D01*
X001018Y024922D01*
X000979Y024916D01*
X000941Y024914D01*
X000902Y024916D01*
X000864Y024921D01*
X000826Y024931D01*
X000789Y024944D01*
X000754Y024960D01*
X000721Y024980D01*
X000690Y025003D01*
X000661Y025029D01*
X000635Y025057D01*
X000612Y025089D01*
X000592Y025122D01*
X000575Y025157D01*
X000562Y025193D01*
X000553Y025231D01*
X000547Y025269D01*
X000545Y025308D01*
X000545Y028352D01*
X000547Y028391D01*
X000553Y028429D01*
X000562Y028467D01*
X000575Y028503D01*
X000592Y028538D01*
X000612Y028571D01*
X000635Y028603D01*
X000661Y028631D01*
X000690Y028657D01*
X000721Y028680D01*
X000754Y028700D01*
X000789Y028716D01*
X000826Y028729D01*
X000864Y028739D01*
X000902Y028744D01*
X000941Y028746D01*
X000979Y028744D01*
X001018Y028738D01*
X001055Y028728D01*
X001092Y028715D01*
X001127Y028698D01*
X001160Y028678D01*
X017542Y010797D02*
X016019Y008547D01*
X016020Y008547D02*
X016000Y008514D01*
X015983Y008479D01*
X015970Y008442D01*
X015960Y008405D01*
X015954Y008366D01*
X015952Y008328D01*
X015954Y008289D01*
X015959Y008251D01*
X015969Y008213D01*
X015982Y008176D01*
X015998Y008141D01*
X016018Y008108D01*
X016041Y008077D01*
X016067Y008048D01*
X016095Y008022D01*
X016127Y007999D01*
X016160Y007979D01*
X016195Y007962D01*
X016231Y007949D01*
X016269Y007940D01*
X016307Y007934D01*
X016346Y007932D01*
X016346Y007933D02*
X019390Y007933D01*
X019390Y007932D02*
X019429Y007934D01*
X019467Y007940D01*
X019505Y007949D01*
X019541Y007962D01*
X019576Y007979D01*
X019609Y007999D01*
X019641Y008022D01*
X019669Y008048D01*
X019695Y008077D01*
X019718Y008108D01*
X019738Y008141D01*
X019754Y008176D01*
X019767Y008213D01*
X019777Y008251D01*
X019782Y008289D01*
X019784Y008328D01*
X019782Y008366D01*
X019776Y008405D01*
X019766Y008442D01*
X019753Y008479D01*
X019736Y008514D01*
X019716Y008547D01*
X018194Y010797D01*
X018171Y010828D01*
X018145Y010856D01*
X018117Y010882D01*
X018086Y010904D01*
X018053Y010924D01*
X018018Y010940D01*
X017982Y010953D01*
X017944Y010963D01*
X017906Y010968D01*
X017868Y010970D01*
X017830Y010968D01*
X017792Y010963D01*
X017754Y010953D01*
X017718Y010940D01*
X017683Y010924D01*
X017650Y010904D01*
X017619Y010882D01*
X017591Y010856D01*
X017565Y010828D01*
X017542Y010797D01*
X027995Y022961D02*
X030246Y021439D01*
X030245Y021439D02*
X030278Y021419D01*
X030313Y021402D01*
X030350Y021389D01*
X030387Y021379D01*
X030426Y021373D01*
X030464Y021371D01*
X030503Y021373D01*
X030541Y021378D01*
X030579Y021388D01*
X030616Y021401D01*
X030651Y021417D01*
X030684Y021437D01*
X030715Y021460D01*
X030744Y021486D01*
X030770Y021514D01*
X030793Y021546D01*
X030813Y021579D01*
X030830Y021614D01*
X030843Y021650D01*
X030852Y021688D01*
X030858Y021726D01*
X030860Y021765D01*
X030860Y024809D01*
X030858Y024848D01*
X030852Y024886D01*
X030843Y024924D01*
X030830Y024960D01*
X030813Y024995D01*
X030793Y025028D01*
X030770Y025060D01*
X030744Y025088D01*
X030715Y025114D01*
X030684Y025137D01*
X030651Y025157D01*
X030616Y025173D01*
X030579Y025186D01*
X030541Y025196D01*
X030503Y025201D01*
X030464Y025203D01*
X030426Y025201D01*
X030387Y025195D01*
X030350Y025185D01*
X030313Y025172D01*
X030278Y025155D01*
X030245Y025135D01*
X030246Y025135D02*
X027995Y023613D01*
X027964Y023590D01*
X027936Y023564D01*
X027910Y023536D01*
X027888Y023505D01*
X027868Y023472D01*
X027852Y023437D01*
X027839Y023401D01*
X027829Y023363D01*
X027824Y023325D01*
X027822Y023287D01*
X027824Y023249D01*
X027829Y023211D01*
X027839Y023173D01*
X027852Y023137D01*
X027868Y023102D01*
X027888Y023069D01*
X027910Y023038D01*
X027936Y023010D01*
X027964Y022984D01*
X027995Y022961D01*
X022918Y028690D02*
X024440Y030940D01*
X024460Y030973D01*
X024477Y031008D01*
X024490Y031045D01*
X024500Y031082D01*
X024506Y031121D01*
X024508Y031159D01*
X024506Y031198D01*
X024501Y031236D01*
X024491Y031274D01*
X024478Y031311D01*
X024462Y031346D01*
X024442Y031379D01*
X024419Y031410D01*
X024393Y031439D01*
X024365Y031465D01*
X024333Y031488D01*
X024300Y031508D01*
X024265Y031525D01*
X024229Y031538D01*
X024191Y031547D01*
X024153Y031553D01*
X024114Y031555D01*
X021070Y031555D01*
X021031Y031553D01*
X020993Y031547D01*
X020955Y031538D01*
X020919Y031525D01*
X020884Y031508D01*
X020851Y031488D01*
X020819Y031465D01*
X020791Y031439D01*
X020765Y031410D01*
X020742Y031379D01*
X020722Y031346D01*
X020706Y031311D01*
X020693Y031274D01*
X020683Y031236D01*
X020678Y031198D01*
X020676Y031159D01*
X020678Y031121D01*
X020684Y031082D01*
X020694Y031045D01*
X020707Y031008D01*
X020724Y030973D01*
X020744Y030940D01*
X022266Y028690D01*
X022289Y028659D01*
X022315Y028631D01*
X022343Y028605D01*
X022374Y028583D01*
X022407Y028563D01*
X022442Y028547D01*
X022478Y028534D01*
X022516Y028524D01*
X022554Y028519D01*
X022592Y028517D01*
X022630Y028519D01*
X022668Y028524D01*
X022706Y028534D01*
X022742Y028547D01*
X022777Y028563D01*
X022810Y028583D01*
X022841Y028605D01*
X022869Y028631D01*
X022895Y028659D01*
X022918Y028690D01*
D21*
X022887Y029291D02*
X022395Y029291D01*
X022691Y030275D01*
X022297Y029980D01*
X022494Y030866D01*
X022317Y030807D01*
X022592Y031259D01*
X022730Y030767D01*
X022592Y030866D01*
X022592Y030374D01*
X022887Y030570D01*
X022887Y029291D01*
X022887Y029296D02*
X022397Y029296D01*
X022408Y029334D02*
X022887Y029334D01*
X022887Y029371D02*
X022419Y029371D01*
X022431Y029409D02*
X022887Y029409D01*
X022887Y029447D02*
X022442Y029447D01*
X022454Y029485D02*
X022887Y029485D01*
X022887Y029523D02*
X022465Y029523D01*
X022476Y029561D02*
X022887Y029561D01*
X022887Y029599D02*
X022488Y029599D01*
X022499Y029637D02*
X022887Y029637D01*
X022887Y029675D02*
X022510Y029675D01*
X022522Y029713D02*
X022887Y029713D01*
X022887Y029751D02*
X022533Y029751D01*
X022545Y029788D02*
X022887Y029788D01*
X022887Y029826D02*
X022556Y029826D01*
X022567Y029864D02*
X022887Y029864D01*
X022887Y029902D02*
X022579Y029902D01*
X022590Y029940D02*
X022887Y029940D01*
X022887Y029978D02*
X022601Y029978D01*
X022613Y030016D02*
X022887Y030016D01*
X022887Y030054D02*
X022624Y030054D01*
X022636Y030092D02*
X022887Y030092D01*
X022887Y030130D02*
X022647Y030130D01*
X022658Y030168D02*
X022887Y030168D01*
X022887Y030206D02*
X022670Y030206D01*
X022681Y030243D02*
X022887Y030243D01*
X022887Y030281D02*
X022364Y030281D01*
X022355Y030243D02*
X022648Y030243D01*
X022598Y030206D02*
X022347Y030206D01*
X022339Y030168D02*
X022547Y030168D01*
X022497Y030130D02*
X022330Y030130D01*
X022322Y030092D02*
X022446Y030092D01*
X022396Y030054D02*
X022313Y030054D01*
X022305Y030016D02*
X022345Y030016D01*
X022372Y030319D02*
X022887Y030319D01*
X022887Y030357D02*
X022381Y030357D01*
X022389Y030395D02*
X022592Y030395D01*
X022624Y030395D02*
X022887Y030395D01*
X022887Y030433D02*
X022681Y030433D01*
X022738Y030471D02*
X022887Y030471D01*
X022887Y030509D02*
X022795Y030509D01*
X022852Y030547D02*
X022887Y030547D01*
X022728Y030774D02*
X022720Y030774D01*
X022717Y030812D02*
X022667Y030812D01*
X022707Y030850D02*
X022614Y030850D01*
X022592Y030850D02*
X022490Y030850D01*
X022482Y030812D02*
X022592Y030812D01*
X022592Y030774D02*
X022473Y030774D01*
X022465Y030736D02*
X022592Y030736D01*
X022592Y030698D02*
X022456Y030698D01*
X022448Y030660D02*
X022592Y030660D01*
X022592Y030623D02*
X022440Y030623D01*
X022431Y030585D02*
X022592Y030585D01*
X022592Y030547D02*
X022423Y030547D01*
X022414Y030509D02*
X022592Y030509D01*
X022592Y030471D02*
X022406Y030471D01*
X022398Y030433D02*
X022592Y030433D01*
X022447Y030850D02*
X022343Y030850D01*
X022333Y030812D02*
X022320Y030812D01*
X022366Y030888D02*
X022696Y030888D01*
X022685Y030926D02*
X022389Y030926D01*
X022412Y030964D02*
X022675Y030964D01*
X022664Y031002D02*
X022435Y031002D01*
X022458Y031040D02*
X022654Y031040D01*
X022643Y031078D02*
X022481Y031078D01*
X022504Y031115D02*
X022632Y031115D01*
X022622Y031153D02*
X022528Y031153D01*
X022551Y031191D02*
X022611Y031191D01*
X022601Y031229D02*
X022574Y031229D01*
X028596Y023484D02*
X029580Y023189D01*
X029285Y023582D01*
X030171Y023385D01*
X030112Y023563D01*
X030565Y023287D01*
X030072Y023149D01*
X030171Y023287D01*
X029679Y023287D01*
X029876Y022992D01*
X028596Y022992D01*
X028596Y023484D01*
X028596Y023457D02*
X028686Y023457D01*
X028596Y023419D02*
X028812Y023419D01*
X028938Y023381D02*
X028596Y023381D01*
X028596Y023343D02*
X029065Y023343D01*
X029191Y023305D02*
X028596Y023305D01*
X028596Y023267D02*
X029317Y023267D01*
X029444Y023229D02*
X028596Y023229D01*
X028596Y023192D02*
X029570Y023192D01*
X029578Y023192D02*
X029742Y023192D01*
X029717Y023229D02*
X029550Y023229D01*
X029521Y023267D02*
X029692Y023267D01*
X029768Y023154D02*
X028596Y023154D01*
X028596Y023116D02*
X029793Y023116D01*
X029818Y023078D02*
X028596Y023078D01*
X028596Y023040D02*
X029843Y023040D01*
X029869Y023002D02*
X028596Y023002D01*
X029322Y023533D02*
X029508Y023533D01*
X029379Y023457D02*
X029849Y023457D01*
X030019Y023419D02*
X029407Y023419D01*
X029436Y023381D02*
X030410Y023381D01*
X030472Y023343D02*
X029464Y023343D01*
X029493Y023305D02*
X030534Y023305D01*
X030495Y023267D02*
X030157Y023267D01*
X030130Y023229D02*
X030359Y023229D01*
X030224Y023192D02*
X030103Y023192D01*
X030089Y023154D02*
X030076Y023154D01*
X030160Y023419D02*
X030348Y023419D01*
X030285Y023457D02*
X030147Y023457D01*
X030134Y023495D02*
X030223Y023495D01*
X030161Y023533D02*
X030122Y023533D01*
X029678Y023495D02*
X029351Y023495D01*
X029337Y023571D02*
X029294Y023571D01*
X018065Y010196D02*
X017572Y010196D01*
X017572Y008917D01*
X017868Y009114D01*
X017868Y008622D01*
X017730Y008720D01*
X017868Y008228D01*
X018143Y008681D01*
X017966Y008622D01*
X018163Y009507D01*
X017769Y009212D01*
X018065Y010196D01*
X018062Y010187D02*
X017572Y010187D01*
X017572Y010149D02*
X018050Y010149D01*
X018039Y010111D02*
X017572Y010111D01*
X017572Y010074D02*
X018028Y010074D01*
X018016Y010036D02*
X017572Y010036D01*
X017572Y009998D02*
X018005Y009998D01*
X017994Y009960D02*
X017572Y009960D01*
X017572Y009922D02*
X017982Y009922D01*
X017971Y009884D02*
X017572Y009884D01*
X017572Y009846D02*
X017959Y009846D01*
X017948Y009808D02*
X017572Y009808D01*
X017572Y009770D02*
X017937Y009770D01*
X017925Y009732D02*
X017572Y009732D01*
X017572Y009694D02*
X017914Y009694D01*
X017903Y009656D02*
X017572Y009656D01*
X017572Y009619D02*
X017891Y009619D01*
X017880Y009581D02*
X017572Y009581D01*
X017572Y009543D02*
X017869Y009543D01*
X017857Y009505D02*
X017572Y009505D01*
X017572Y009467D02*
X017846Y009467D01*
X017834Y009429D02*
X017572Y009429D01*
X017572Y009391D02*
X017823Y009391D01*
X017812Y009353D02*
X017572Y009353D01*
X017572Y009315D02*
X017800Y009315D01*
X017789Y009277D02*
X017572Y009277D01*
X017572Y009239D02*
X017777Y009239D01*
X017806Y009239D02*
X018103Y009239D01*
X018095Y009201D02*
X017572Y009201D01*
X017572Y009164D02*
X018087Y009164D01*
X018078Y009126D02*
X017572Y009126D01*
X017572Y009088D02*
X017829Y009088D01*
X017868Y009088D02*
X018070Y009088D01*
X018061Y009050D02*
X017868Y009050D01*
X017868Y009012D02*
X018053Y009012D01*
X018044Y008974D02*
X017868Y008974D01*
X017868Y008936D02*
X018036Y008936D01*
X018028Y008898D02*
X017868Y008898D01*
X017868Y008860D02*
X018019Y008860D01*
X018011Y008822D02*
X017868Y008822D01*
X017868Y008784D02*
X018002Y008784D01*
X017994Y008747D02*
X017868Y008747D01*
X017868Y008709D02*
X017986Y008709D01*
X017977Y008671D02*
X017868Y008671D01*
X017868Y008633D02*
X017969Y008633D01*
X018000Y008633D02*
X018114Y008633D01*
X018114Y008671D02*
X018137Y008671D01*
X018091Y008595D02*
X017765Y008595D01*
X017754Y008633D02*
X017852Y008633D01*
X017799Y008671D02*
X017744Y008671D01*
X017746Y008709D02*
X017733Y008709D01*
X017776Y008557D02*
X018068Y008557D01*
X018045Y008519D02*
X017786Y008519D01*
X017797Y008481D02*
X018022Y008481D01*
X017999Y008443D02*
X017807Y008443D01*
X017818Y008405D02*
X017976Y008405D01*
X017953Y008367D02*
X017829Y008367D01*
X017839Y008329D02*
X017930Y008329D01*
X017906Y008292D02*
X017850Y008292D01*
X017861Y008254D02*
X017883Y008254D01*
X017601Y008936D02*
X017572Y008936D01*
X017572Y008974D02*
X017658Y008974D01*
X017715Y009012D02*
X017572Y009012D01*
X017572Y009050D02*
X017772Y009050D01*
X017856Y009277D02*
X018112Y009277D01*
X018120Y009315D02*
X017907Y009315D01*
X017957Y009353D02*
X018129Y009353D01*
X018137Y009391D02*
X018008Y009391D01*
X018058Y009429D02*
X018146Y009429D01*
X018154Y009467D02*
X018109Y009467D01*
X018160Y009505D02*
X018162Y009505D01*
X002809Y026633D02*
X001824Y026929D01*
X002120Y026535D01*
X001234Y026732D01*
X001293Y026555D01*
X000840Y026830D01*
X001332Y026968D01*
X001234Y026830D01*
X001726Y026830D01*
X001529Y027126D01*
X002809Y027126D01*
X002809Y026633D01*
X002809Y026642D02*
X002781Y026642D01*
X002809Y026680D02*
X002655Y026680D01*
X002528Y026717D02*
X002809Y026717D01*
X002809Y026755D02*
X002402Y026755D01*
X002276Y026793D02*
X002809Y026793D01*
X002809Y026831D02*
X002149Y026831D01*
X002023Y026869D02*
X002809Y026869D01*
X002809Y026907D02*
X001896Y026907D01*
X001869Y026869D02*
X001700Y026869D01*
X001725Y026831D02*
X001897Y026831D01*
X001926Y026793D02*
X000901Y026793D01*
X000844Y026831D02*
X001235Y026831D01*
X001262Y026869D02*
X000979Y026869D01*
X000963Y026755D02*
X001954Y026755D01*
X001983Y026717D02*
X001298Y026717D01*
X001239Y026717D02*
X001025Y026717D01*
X001088Y026680D02*
X001251Y026680D01*
X001264Y026642D02*
X001150Y026642D01*
X001212Y026604D02*
X001277Y026604D01*
X001275Y026566D02*
X001289Y026566D01*
X001469Y026680D02*
X002011Y026680D01*
X002040Y026642D02*
X001640Y026642D01*
X001810Y026604D02*
X002068Y026604D01*
X002097Y026566D02*
X001981Y026566D01*
X001841Y026907D02*
X001675Y026907D01*
X001650Y026945D02*
X002809Y026945D01*
X002809Y026983D02*
X001624Y026983D01*
X001599Y027021D02*
X002809Y027021D01*
X002809Y027059D02*
X001574Y027059D01*
X001548Y027097D02*
X002809Y027097D01*
X001316Y026945D02*
X001250Y026945D01*
X001289Y026907D02*
X001114Y026907D01*
M02*
