G75*
G70*
%OFA0B0*%
%FSLAX24Y24*%
%IPPOS*%
%LPD*%
%AMOC8*
5,1,8,0,0,1.08239X$1,22.5*
%
%ADD10C,0.0000*%
%ADD11R,0.0472X0.1260*%
%ADD12R,0.0669X0.2087*%
%ADD13C,0.0660*%
%ADD14C,0.1000*%
%ADD15R,0.1122X0.0354*%
%ADD16C,0.0320*%
%ADD17C,0.0376*%
%ADD18C,0.0160*%
D10*
X000780Y000781D02*
X000780Y015151D01*
X041331Y015151D01*
X041331Y000781D01*
X000780Y000781D01*
X001725Y002946D02*
X001727Y003003D01*
X001733Y003060D01*
X001743Y003116D01*
X001756Y003172D01*
X001774Y003226D01*
X001795Y003279D01*
X001820Y003330D01*
X001848Y003380D01*
X001880Y003427D01*
X001914Y003473D01*
X001952Y003515D01*
X001993Y003555D01*
X002036Y003593D01*
X002082Y003627D01*
X002130Y003657D01*
X002180Y003685D01*
X002232Y003709D01*
X002286Y003729D01*
X002340Y003745D01*
X002396Y003758D01*
X002452Y003767D01*
X002509Y003772D01*
X002566Y003773D01*
X002623Y003770D01*
X002680Y003763D01*
X002736Y003752D01*
X002791Y003738D01*
X002845Y003719D01*
X002898Y003697D01*
X002949Y003672D01*
X002998Y003642D01*
X003045Y003610D01*
X003090Y003574D01*
X003132Y003536D01*
X003171Y003494D01*
X003207Y003450D01*
X003241Y003404D01*
X003271Y003355D01*
X003297Y003305D01*
X003320Y003253D01*
X003339Y003199D01*
X003355Y003144D01*
X003367Y003088D01*
X003375Y003031D01*
X003379Y002975D01*
X003379Y002917D01*
X003375Y002861D01*
X003367Y002804D01*
X003355Y002748D01*
X003339Y002693D01*
X003320Y002639D01*
X003297Y002587D01*
X003271Y002537D01*
X003241Y002488D01*
X003207Y002442D01*
X003171Y002398D01*
X003132Y002356D01*
X003090Y002318D01*
X003045Y002282D01*
X002998Y002250D01*
X002949Y002220D01*
X002898Y002195D01*
X002845Y002173D01*
X002791Y002154D01*
X002736Y002140D01*
X002680Y002129D01*
X002623Y002122D01*
X002566Y002119D01*
X002509Y002120D01*
X002452Y002125D01*
X002396Y002134D01*
X002340Y002147D01*
X002286Y002163D01*
X002232Y002183D01*
X002180Y002207D01*
X002130Y002235D01*
X002082Y002265D01*
X002036Y002299D01*
X001993Y002337D01*
X001952Y002377D01*
X001914Y002419D01*
X001880Y002465D01*
X001848Y002512D01*
X001820Y002562D01*
X001795Y002613D01*
X001774Y002666D01*
X001756Y002720D01*
X001743Y002776D01*
X001733Y002832D01*
X001727Y002889D01*
X001725Y002946D01*
X013665Y004178D02*
X013667Y004239D01*
X013673Y004301D01*
X013683Y004361D01*
X013697Y004421D01*
X013714Y004480D01*
X013736Y004538D01*
X013761Y004594D01*
X013790Y004649D01*
X013822Y004701D01*
X013857Y004751D01*
X013896Y004799D01*
X013938Y004844D01*
X013982Y004887D01*
X014030Y004926D01*
X014079Y004963D01*
X014131Y004996D01*
X014185Y005025D01*
X014241Y005051D01*
X014298Y005074D01*
X014357Y005092D01*
X014416Y005107D01*
X014477Y005118D01*
X014538Y005125D01*
X014600Y005128D01*
X014661Y005127D01*
X014722Y005122D01*
X014783Y005113D01*
X014843Y005100D01*
X014903Y005083D01*
X014961Y005063D01*
X015017Y005039D01*
X015072Y005011D01*
X015125Y004979D01*
X015176Y004945D01*
X015224Y004907D01*
X015270Y004866D01*
X015313Y004822D01*
X015354Y004775D01*
X015391Y004726D01*
X015425Y004675D01*
X015455Y004622D01*
X015482Y004566D01*
X015505Y004509D01*
X015525Y004451D01*
X015541Y004392D01*
X015553Y004331D01*
X015561Y004270D01*
X015565Y004209D01*
X015565Y004147D01*
X015561Y004086D01*
X015553Y004025D01*
X015541Y003964D01*
X015525Y003905D01*
X015505Y003847D01*
X015482Y003790D01*
X015455Y003734D01*
X015425Y003681D01*
X015391Y003630D01*
X015354Y003581D01*
X015313Y003534D01*
X015270Y003490D01*
X015224Y003449D01*
X015176Y003411D01*
X015125Y003377D01*
X015072Y003345D01*
X015017Y003317D01*
X014961Y003293D01*
X014903Y003273D01*
X014843Y003256D01*
X014783Y003243D01*
X014722Y003234D01*
X014661Y003229D01*
X014600Y003228D01*
X014538Y003231D01*
X014477Y003238D01*
X014416Y003249D01*
X014357Y003264D01*
X014298Y003282D01*
X014241Y003305D01*
X014185Y003331D01*
X014131Y003360D01*
X014079Y003393D01*
X014030Y003430D01*
X013982Y003469D01*
X013938Y003512D01*
X013896Y003557D01*
X013857Y003605D01*
X013822Y003655D01*
X013790Y003707D01*
X013761Y003762D01*
X013736Y003818D01*
X013714Y003876D01*
X013697Y003935D01*
X013683Y003995D01*
X013673Y004055D01*
X013667Y004117D01*
X013665Y004178D01*
X029885Y004178D02*
X029887Y004239D01*
X029893Y004301D01*
X029903Y004361D01*
X029917Y004421D01*
X029934Y004480D01*
X029956Y004538D01*
X029981Y004594D01*
X030010Y004649D01*
X030042Y004701D01*
X030077Y004751D01*
X030116Y004799D01*
X030158Y004844D01*
X030202Y004887D01*
X030250Y004926D01*
X030299Y004963D01*
X030351Y004996D01*
X030405Y005025D01*
X030461Y005051D01*
X030518Y005074D01*
X030577Y005092D01*
X030636Y005107D01*
X030697Y005118D01*
X030758Y005125D01*
X030820Y005128D01*
X030881Y005127D01*
X030942Y005122D01*
X031003Y005113D01*
X031063Y005100D01*
X031123Y005083D01*
X031181Y005063D01*
X031237Y005039D01*
X031292Y005011D01*
X031345Y004979D01*
X031396Y004945D01*
X031444Y004907D01*
X031490Y004866D01*
X031533Y004822D01*
X031574Y004775D01*
X031611Y004726D01*
X031645Y004675D01*
X031675Y004622D01*
X031702Y004566D01*
X031725Y004509D01*
X031745Y004451D01*
X031761Y004392D01*
X031773Y004331D01*
X031781Y004270D01*
X031785Y004209D01*
X031785Y004147D01*
X031781Y004086D01*
X031773Y004025D01*
X031761Y003964D01*
X031745Y003905D01*
X031725Y003847D01*
X031702Y003790D01*
X031675Y003734D01*
X031645Y003681D01*
X031611Y003630D01*
X031574Y003581D01*
X031533Y003534D01*
X031490Y003490D01*
X031444Y003449D01*
X031396Y003411D01*
X031345Y003377D01*
X031292Y003345D01*
X031237Y003317D01*
X031181Y003293D01*
X031123Y003273D01*
X031063Y003256D01*
X031003Y003243D01*
X030942Y003234D01*
X030881Y003229D01*
X030820Y003228D01*
X030758Y003231D01*
X030697Y003238D01*
X030636Y003249D01*
X030577Y003264D01*
X030518Y003282D01*
X030461Y003305D01*
X030405Y003331D01*
X030351Y003360D01*
X030299Y003393D01*
X030250Y003430D01*
X030202Y003469D01*
X030158Y003512D01*
X030116Y003557D01*
X030077Y003605D01*
X030042Y003655D01*
X030010Y003707D01*
X029981Y003762D01*
X029956Y003818D01*
X029934Y003876D01*
X029917Y003935D01*
X029903Y003995D01*
X029893Y004055D01*
X029887Y004117D01*
X029885Y004178D01*
X037355Y002946D02*
X037357Y003003D01*
X037363Y003060D01*
X037373Y003116D01*
X037386Y003172D01*
X037404Y003226D01*
X037425Y003279D01*
X037450Y003330D01*
X037478Y003380D01*
X037510Y003427D01*
X037544Y003473D01*
X037582Y003515D01*
X037623Y003555D01*
X037666Y003593D01*
X037712Y003627D01*
X037760Y003657D01*
X037810Y003685D01*
X037862Y003709D01*
X037916Y003729D01*
X037970Y003745D01*
X038026Y003758D01*
X038082Y003767D01*
X038139Y003772D01*
X038196Y003773D01*
X038253Y003770D01*
X038310Y003763D01*
X038366Y003752D01*
X038421Y003738D01*
X038475Y003719D01*
X038528Y003697D01*
X038579Y003672D01*
X038628Y003642D01*
X038675Y003610D01*
X038720Y003574D01*
X038762Y003536D01*
X038801Y003494D01*
X038837Y003450D01*
X038871Y003404D01*
X038901Y003355D01*
X038927Y003305D01*
X038950Y003253D01*
X038969Y003199D01*
X038985Y003144D01*
X038997Y003088D01*
X039005Y003031D01*
X039009Y002975D01*
X039009Y002917D01*
X039005Y002861D01*
X038997Y002804D01*
X038985Y002748D01*
X038969Y002693D01*
X038950Y002639D01*
X038927Y002587D01*
X038901Y002537D01*
X038871Y002488D01*
X038837Y002442D01*
X038801Y002398D01*
X038762Y002356D01*
X038720Y002318D01*
X038675Y002282D01*
X038628Y002250D01*
X038579Y002220D01*
X038528Y002195D01*
X038475Y002173D01*
X038421Y002154D01*
X038366Y002140D01*
X038310Y002129D01*
X038253Y002122D01*
X038196Y002119D01*
X038139Y002120D01*
X038082Y002125D01*
X038026Y002134D01*
X037970Y002147D01*
X037916Y002163D01*
X037862Y002183D01*
X037810Y002207D01*
X037760Y002235D01*
X037712Y002265D01*
X037666Y002299D01*
X037623Y002337D01*
X037582Y002377D01*
X037544Y002419D01*
X037510Y002465D01*
X037478Y002512D01*
X037450Y002562D01*
X037425Y002613D01*
X037404Y002666D01*
X037386Y002720D01*
X037373Y002776D01*
X037363Y002832D01*
X037357Y002889D01*
X037355Y002946D01*
X037355Y013379D02*
X037357Y013436D01*
X037363Y013493D01*
X037373Y013549D01*
X037386Y013605D01*
X037404Y013659D01*
X037425Y013712D01*
X037450Y013763D01*
X037478Y013813D01*
X037510Y013860D01*
X037544Y013906D01*
X037582Y013948D01*
X037623Y013988D01*
X037666Y014026D01*
X037712Y014060D01*
X037760Y014090D01*
X037810Y014118D01*
X037862Y014142D01*
X037916Y014162D01*
X037970Y014178D01*
X038026Y014191D01*
X038082Y014200D01*
X038139Y014205D01*
X038196Y014206D01*
X038253Y014203D01*
X038310Y014196D01*
X038366Y014185D01*
X038421Y014171D01*
X038475Y014152D01*
X038528Y014130D01*
X038579Y014105D01*
X038628Y014075D01*
X038675Y014043D01*
X038720Y014007D01*
X038762Y013969D01*
X038801Y013927D01*
X038837Y013883D01*
X038871Y013837D01*
X038901Y013788D01*
X038927Y013738D01*
X038950Y013686D01*
X038969Y013632D01*
X038985Y013577D01*
X038997Y013521D01*
X039005Y013464D01*
X039009Y013408D01*
X039009Y013350D01*
X039005Y013294D01*
X038997Y013237D01*
X038985Y013181D01*
X038969Y013126D01*
X038950Y013072D01*
X038927Y013020D01*
X038901Y012970D01*
X038871Y012921D01*
X038837Y012875D01*
X038801Y012831D01*
X038762Y012789D01*
X038720Y012751D01*
X038675Y012715D01*
X038628Y012683D01*
X038579Y012653D01*
X038528Y012628D01*
X038475Y012606D01*
X038421Y012587D01*
X038366Y012573D01*
X038310Y012562D01*
X038253Y012555D01*
X038196Y012552D01*
X038139Y012553D01*
X038082Y012558D01*
X038026Y012567D01*
X037970Y012580D01*
X037916Y012596D01*
X037862Y012616D01*
X037810Y012640D01*
X037760Y012668D01*
X037712Y012698D01*
X037666Y012732D01*
X037623Y012770D01*
X037582Y012810D01*
X037544Y012852D01*
X037510Y012898D01*
X037478Y012945D01*
X037450Y012995D01*
X037425Y013046D01*
X037404Y013099D01*
X037386Y013153D01*
X037373Y013209D01*
X037363Y013265D01*
X037357Y013322D01*
X037355Y013379D01*
X001725Y013379D02*
X001727Y013436D01*
X001733Y013493D01*
X001743Y013549D01*
X001756Y013605D01*
X001774Y013659D01*
X001795Y013712D01*
X001820Y013763D01*
X001848Y013813D01*
X001880Y013860D01*
X001914Y013906D01*
X001952Y013948D01*
X001993Y013988D01*
X002036Y014026D01*
X002082Y014060D01*
X002130Y014090D01*
X002180Y014118D01*
X002232Y014142D01*
X002286Y014162D01*
X002340Y014178D01*
X002396Y014191D01*
X002452Y014200D01*
X002509Y014205D01*
X002566Y014206D01*
X002623Y014203D01*
X002680Y014196D01*
X002736Y014185D01*
X002791Y014171D01*
X002845Y014152D01*
X002898Y014130D01*
X002949Y014105D01*
X002998Y014075D01*
X003045Y014043D01*
X003090Y014007D01*
X003132Y013969D01*
X003171Y013927D01*
X003207Y013883D01*
X003241Y013837D01*
X003271Y013788D01*
X003297Y013738D01*
X003320Y013686D01*
X003339Y013632D01*
X003355Y013577D01*
X003367Y013521D01*
X003375Y013464D01*
X003379Y013408D01*
X003379Y013350D01*
X003375Y013294D01*
X003367Y013237D01*
X003355Y013181D01*
X003339Y013126D01*
X003320Y013072D01*
X003297Y013020D01*
X003271Y012970D01*
X003241Y012921D01*
X003207Y012875D01*
X003171Y012831D01*
X003132Y012789D01*
X003090Y012751D01*
X003045Y012715D01*
X002998Y012683D01*
X002949Y012653D01*
X002898Y012628D01*
X002845Y012606D01*
X002791Y012587D01*
X002736Y012573D01*
X002680Y012562D01*
X002623Y012555D01*
X002566Y012552D01*
X002509Y012553D01*
X002452Y012558D01*
X002396Y012567D01*
X002340Y012580D01*
X002286Y012596D01*
X002232Y012616D01*
X002180Y012640D01*
X002130Y012668D01*
X002082Y012698D01*
X002036Y012732D01*
X001993Y012770D01*
X001952Y012810D01*
X001914Y012852D01*
X001880Y012898D01*
X001848Y012945D01*
X001820Y012995D01*
X001795Y013046D01*
X001774Y013099D01*
X001756Y013153D01*
X001743Y013209D01*
X001733Y013265D01*
X001727Y013322D01*
X001725Y013379D01*
D11*
X014083Y011426D03*
X014871Y011426D03*
X018820Y011426D03*
X019607Y011426D03*
X024796Y011426D03*
X025583Y011426D03*
X029926Y011426D03*
X030713Y011426D03*
D12*
X031717Y013584D03*
X028922Y013584D03*
X026587Y013584D03*
X023792Y013584D03*
X020611Y013584D03*
X017816Y013584D03*
X015875Y013584D03*
X013079Y013584D03*
D13*
X019843Y009639D03*
X023843Y009639D03*
X025355Y008852D03*
X029355Y008852D03*
X034048Y009214D03*
X035599Y008954D03*
X035599Y004954D03*
X019883Y007879D03*
X015883Y007879D03*
X014666Y008954D03*
X010666Y008954D03*
X010272Y004068D03*
X006272Y004068D03*
X034048Y013214D03*
D14*
X023875Y005328D03*
X021575Y005328D03*
X021575Y003028D03*
X023875Y003028D03*
D15*
X008861Y009501D03*
X005692Y009501D03*
X005692Y011501D03*
X005692Y012501D03*
X005692Y013501D03*
X005692Y014501D03*
X008861Y014501D03*
X008861Y013501D03*
X008861Y012501D03*
X008861Y011501D03*
D16*
X014083Y011501D01*
X014083Y011426D01*
X014083Y010820D01*
X010820Y010820D01*
X010820Y008954D01*
X010666Y008954D01*
X008861Y009501D02*
X008064Y009501D01*
X008064Y007277D01*
X011607Y007277D01*
X011607Y006529D01*
X015883Y006529D01*
X015883Y007879D01*
X015883Y009639D01*
X016725Y009639D01*
X018300Y009639D02*
X019843Y009639D01*
X018820Y009639D01*
X018820Y011426D01*
X019607Y011426D02*
X019607Y011214D01*
X020662Y011214D01*
X020662Y008064D01*
X019883Y008064D01*
X019883Y007879D01*
X021056Y007671D02*
X021056Y006883D01*
X016725Y006883D01*
X016725Y005702D01*
X010272Y005702D01*
X010272Y004068D01*
X010426Y004068D01*
X010426Y002159D01*
X021575Y002159D01*
X021575Y003028D01*
X022631Y003028D02*
X022631Y004127D01*
X016725Y004127D01*
X021575Y005328D02*
X021575Y006096D01*
X019875Y006096D01*
X023875Y005328D02*
X023875Y005308D01*
X028142Y005308D01*
X028142Y007671D01*
X036804Y007671D01*
X036804Y008954D01*
X035599Y008954D01*
X035599Y009214D01*
X034048Y009214D01*
X034048Y009245D01*
X033260Y009245D01*
X033260Y010033D01*
X032079Y010033D01*
X029926Y008852D02*
X029355Y008852D01*
X026568Y008852D01*
X026568Y007671D01*
X021056Y007671D01*
X023812Y008852D02*
X025355Y008852D01*
X025355Y009639D01*
X026174Y009639D01*
X026174Y011214D01*
X026961Y011214D01*
X026174Y011214D02*
X026174Y011426D01*
X025583Y011426D01*
X024796Y011426D02*
X024599Y011426D01*
X024599Y010033D01*
X023843Y009639D02*
X023024Y009639D01*
X023024Y011214D01*
X020662Y011214D01*
X018300Y010426D02*
X018300Y009639D01*
X018300Y010426D02*
X017512Y010426D01*
X017512Y012222D01*
X014871Y011426D02*
X014757Y011426D01*
X014757Y010033D01*
X014666Y010033D01*
X014666Y008954D01*
X013969Y008954D01*
X013969Y008360D01*
X008753Y008360D01*
X006095Y008064D02*
X005308Y008064D01*
X005308Y009501D01*
X005692Y009501D01*
X005308Y008064D02*
X005308Y002159D01*
X008851Y002159D01*
X006272Y004068D02*
X006272Y006529D01*
X008073Y006529D01*
X008064Y007277D01*
X009638Y012001D02*
X009638Y012395D01*
X009638Y012501D01*
X008861Y012501D01*
X009638Y012395D02*
X009648Y012395D01*
X011213Y013182D02*
X011213Y013501D01*
X008861Y013501D01*
X023812Y009639D02*
X023812Y008852D01*
X023843Y009639D02*
X023812Y009639D01*
X029926Y008852D02*
X029926Y011426D01*
X030505Y011426D02*
X030505Y012395D01*
X032867Y013182D02*
X034048Y013182D01*
X034048Y013214D01*
X032867Y013182D02*
X032867Y011426D01*
X030713Y011426D01*
X030505Y011426D01*
X030111Y006489D02*
X033260Y006489D01*
X033260Y004954D01*
X033260Y004915D01*
X033260Y004954D02*
X035599Y004954D01*
X023875Y003028D02*
X022631Y003028D01*
D17*
X022631Y004127D03*
X019875Y006096D03*
X016725Y004127D03*
X008851Y002159D03*
X006095Y008064D03*
X008753Y008360D03*
X016725Y009639D03*
X009638Y012001D03*
X011213Y013182D03*
X017512Y012222D03*
X024599Y010033D03*
X026961Y011214D03*
X030505Y012395D03*
X032079Y010033D03*
X030111Y006489D03*
D18*
X029763Y006612D02*
X028482Y006612D01*
X028482Y006770D02*
X029871Y006770D01*
X029902Y006801D02*
X029799Y006698D01*
X029743Y006563D01*
X029743Y006416D01*
X029799Y006281D01*
X029902Y006177D01*
X030038Y006121D01*
X030184Y006121D01*
X030252Y006149D01*
X032920Y006149D01*
X032920Y005022D01*
X032920Y004886D01*
X032920Y004847D01*
X032972Y004722D01*
X033068Y004626D01*
X033193Y004575D01*
X033328Y004575D01*
X033423Y004614D01*
X035218Y004614D01*
X035310Y004522D01*
X035498Y004444D01*
X035701Y004444D01*
X035888Y004522D01*
X036031Y004665D01*
X036109Y004853D01*
X036109Y005055D01*
X036031Y005243D01*
X035888Y005386D01*
X035701Y005464D01*
X035498Y005464D01*
X035310Y005386D01*
X035218Y005294D01*
X033600Y005294D01*
X033600Y006422D01*
X033600Y006557D01*
X033549Y006682D01*
X033453Y006778D01*
X033328Y006829D01*
X030252Y006829D01*
X030184Y006858D01*
X030038Y006858D01*
X029902Y006801D01*
X029743Y006453D02*
X028482Y006453D01*
X028482Y006295D02*
X029793Y006295D01*
X030002Y006136D02*
X028482Y006136D01*
X028482Y005978D02*
X032920Y005978D01*
X032920Y006136D02*
X030220Y006136D01*
X028482Y005819D02*
X032920Y005819D01*
X032920Y005660D02*
X028482Y005660D01*
X028482Y005502D02*
X032920Y005502D01*
X032920Y005343D02*
X031047Y005343D01*
X030990Y005358D02*
X031290Y005278D01*
X031560Y005123D01*
X031779Y004903D01*
X031935Y004634D01*
X032015Y004334D01*
X032015Y004023D01*
X031935Y003723D01*
X031779Y003454D01*
X031560Y003234D01*
X031290Y003079D01*
X030990Y002998D01*
X030680Y002998D01*
X030380Y003079D01*
X030110Y003234D01*
X029891Y003454D01*
X029735Y003723D01*
X029655Y004023D01*
X029655Y004334D01*
X029735Y004634D01*
X029891Y004903D01*
X030110Y005123D01*
X030380Y005278D01*
X030680Y005358D01*
X030990Y005358D01*
X030624Y005343D02*
X028482Y005343D01*
X028482Y005376D02*
X028482Y005241D01*
X028431Y005116D01*
X028335Y005020D01*
X028210Y004968D01*
X024462Y004968D01*
X024451Y004943D01*
X024260Y004752D01*
X024010Y004648D01*
X023740Y004648D01*
X023490Y004752D01*
X023299Y004943D01*
X023195Y005193D01*
X023195Y005464D01*
X023299Y005714D01*
X023490Y005905D01*
X023740Y006008D01*
X024010Y006008D01*
X024260Y005905D01*
X024451Y005714D01*
X024479Y005648D01*
X027802Y005648D01*
X027802Y007738D01*
X027854Y007863D01*
X027950Y007959D01*
X028075Y008011D01*
X028210Y008011D01*
X036464Y008011D01*
X036464Y008614D01*
X035980Y008614D01*
X035888Y008522D01*
X035701Y008444D01*
X035498Y008444D01*
X035310Y008522D01*
X035167Y008665D01*
X035089Y008853D01*
X035089Y008874D01*
X034429Y008874D01*
X034337Y008781D01*
X034149Y008704D01*
X033946Y008704D01*
X033759Y008781D01*
X033635Y008905D01*
X033193Y008905D01*
X033068Y008957D01*
X032972Y009053D01*
X032920Y009178D01*
X032920Y009313D01*
X032920Y009693D01*
X032220Y009693D01*
X032153Y009665D01*
X032006Y009665D01*
X031871Y009721D01*
X031767Y009824D01*
X031711Y009959D01*
X031711Y010106D01*
X031767Y010241D01*
X031871Y010345D01*
X032006Y010401D01*
X032153Y010401D01*
X032220Y010373D01*
X033193Y010373D01*
X033328Y010373D01*
X033453Y010321D01*
X033549Y010225D01*
X033600Y010100D01*
X041101Y010100D01*
X041101Y010258D02*
X033516Y010258D01*
X033600Y010100D02*
X033600Y009585D01*
X033698Y009585D01*
X033759Y009646D01*
X033946Y009724D01*
X034149Y009724D01*
X034337Y009646D01*
X034429Y009554D01*
X035531Y009554D01*
X035667Y009554D01*
X035792Y009502D01*
X035887Y009406D01*
X035901Y009373D01*
X035980Y009294D01*
X036736Y009294D01*
X036871Y009294D01*
X036996Y009242D01*
X037092Y009147D01*
X037144Y009022D01*
X037144Y007738D01*
X037144Y007603D01*
X037092Y007478D01*
X036996Y007382D01*
X036871Y007331D01*
X028482Y007331D01*
X028482Y005376D01*
X028459Y005185D02*
X030218Y005185D01*
X030014Y005026D02*
X028341Y005026D01*
X029713Y004551D02*
X015737Y004551D01*
X015715Y004634D02*
X015795Y004334D01*
X015795Y004023D01*
X015715Y003723D01*
X015559Y003454D01*
X015340Y003234D01*
X015070Y003079D01*
X014770Y002998D01*
X014460Y002998D01*
X014160Y003079D01*
X013890Y003234D01*
X013671Y003454D01*
X013515Y003723D01*
X013435Y004023D01*
X013435Y004334D01*
X013515Y004634D01*
X013671Y004903D01*
X013890Y005123D01*
X014160Y005278D01*
X014460Y005358D01*
X014770Y005358D01*
X015070Y005278D01*
X015340Y005123D01*
X015559Y004903D01*
X015715Y004634D01*
X015671Y004709D02*
X021293Y004709D01*
X021274Y004717D02*
X021356Y004683D01*
X021442Y004660D01*
X021505Y004652D01*
X021505Y005258D01*
X021645Y005258D01*
X021645Y004652D01*
X021708Y004660D01*
X021794Y004683D01*
X021876Y004717D01*
X021954Y004762D01*
X022024Y004816D01*
X022087Y004879D01*
X022142Y004950D01*
X022186Y005027D01*
X022220Y005109D01*
X022243Y005195D01*
X022252Y005258D01*
X021645Y005258D01*
X021645Y005398D01*
X022252Y005398D01*
X022243Y005461D01*
X022220Y005547D01*
X022186Y005630D01*
X022142Y005707D01*
X022087Y005778D01*
X022024Y005841D01*
X021954Y005895D01*
X021876Y005940D01*
X021794Y005974D01*
X021708Y005997D01*
X021645Y006005D01*
X021645Y005399D01*
X021505Y005399D01*
X021505Y006005D01*
X021442Y005997D01*
X021356Y005974D01*
X021274Y005940D01*
X021196Y005895D01*
X021126Y005841D01*
X021063Y005778D01*
X021008Y005707D01*
X020964Y005630D01*
X020930Y005547D01*
X020907Y005461D01*
X020898Y005398D01*
X021505Y005398D01*
X021505Y005258D01*
X020898Y005258D01*
X020907Y005195D01*
X020930Y005109D01*
X020964Y005027D01*
X021008Y004950D01*
X021063Y004879D01*
X021126Y004816D01*
X021196Y004762D01*
X021274Y004717D01*
X021505Y004709D02*
X021645Y004709D01*
X021645Y004868D02*
X021505Y004868D01*
X021505Y005026D02*
X021645Y005026D01*
X021645Y005185D02*
X021505Y005185D01*
X021505Y005343D02*
X014827Y005343D01*
X014404Y005343D02*
X010612Y005343D01*
X010612Y005362D02*
X016793Y005362D01*
X016918Y005414D01*
X017013Y005509D01*
X017065Y005634D01*
X017065Y005770D01*
X017065Y006543D01*
X021123Y006543D01*
X021248Y006595D01*
X021344Y006691D01*
X021396Y006815D01*
X021396Y006951D01*
X021396Y007331D01*
X026635Y007331D01*
X026760Y007382D01*
X026856Y007478D01*
X026908Y007603D01*
X026908Y007738D01*
X026908Y008512D01*
X028974Y008512D01*
X029066Y008419D01*
X029253Y008342D01*
X029456Y008342D01*
X029644Y008419D01*
X029736Y008512D01*
X029858Y008512D01*
X029993Y008512D01*
X030118Y008563D01*
X030214Y008659D01*
X030266Y008784D01*
X030266Y010646D01*
X030323Y010703D01*
X030333Y010686D01*
X030366Y010652D01*
X030408Y010629D01*
X030453Y010617D01*
X030675Y010617D01*
X030675Y011388D01*
X030751Y011388D01*
X030751Y010617D01*
X030973Y010617D01*
X031019Y010629D01*
X031060Y010652D01*
X031093Y010686D01*
X031117Y010727D01*
X031129Y010773D01*
X031129Y011388D01*
X030752Y011388D01*
X030752Y011465D01*
X031129Y011465D01*
X031129Y012080D01*
X031117Y012126D01*
X031093Y012167D01*
X031060Y012200D01*
X031019Y012224D01*
X030973Y012236D01*
X030751Y012236D01*
X030751Y011465D01*
X030675Y011465D01*
X030675Y012236D01*
X030453Y012236D01*
X030408Y012224D01*
X030366Y012200D01*
X030333Y012167D01*
X030323Y012150D01*
X030237Y012236D01*
X029615Y012236D01*
X029510Y012131D01*
X029510Y010722D01*
X029586Y010646D01*
X029586Y009308D01*
X029456Y009362D01*
X029253Y009362D01*
X029066Y009284D01*
X028974Y009192D01*
X026635Y009192D01*
X026500Y009192D01*
X026375Y009140D01*
X026279Y009044D01*
X026228Y008919D01*
X026228Y008011D01*
X021123Y008011D01*
X020988Y008011D01*
X020863Y007959D01*
X020768Y007863D01*
X020716Y007738D01*
X020716Y007223D01*
X016793Y007223D01*
X016657Y007223D01*
X016532Y007171D01*
X016437Y007076D01*
X016385Y006951D01*
X016385Y006042D01*
X010205Y006042D01*
X010080Y005990D01*
X009984Y005895D01*
X009932Y005770D01*
X009932Y005634D01*
X009932Y004449D01*
X009840Y004357D01*
X009762Y004170D01*
X009762Y003967D01*
X009840Y003779D01*
X009983Y003636D01*
X010086Y003593D01*
X010086Y002091D01*
X010138Y001966D01*
X010233Y001871D01*
X010358Y001819D01*
X010493Y001819D01*
X021507Y001819D01*
X021643Y001819D01*
X021768Y001871D01*
X021863Y001966D01*
X021915Y002091D01*
X021915Y002433D01*
X021960Y002452D01*
X022151Y002643D01*
X022255Y002893D01*
X022255Y003164D01*
X022151Y003414D01*
X021960Y003605D01*
X021710Y003708D01*
X021440Y003708D01*
X021190Y003605D01*
X020999Y003414D01*
X020895Y003164D01*
X020895Y002893D01*
X020999Y002643D01*
X021143Y002499D01*
X010766Y002499D01*
X010766Y003927D01*
X010782Y003967D01*
X010782Y004170D01*
X010705Y004357D01*
X010612Y004449D01*
X010612Y005362D01*
X009932Y005343D02*
X006612Y005343D01*
X006612Y005185D02*
X009932Y005185D01*
X009932Y005026D02*
X006612Y005026D01*
X006612Y004868D02*
X009932Y004868D01*
X009932Y004709D02*
X006612Y004709D01*
X006612Y004551D02*
X009932Y004551D01*
X009875Y004392D02*
X006670Y004392D01*
X006705Y004357D02*
X006612Y004449D01*
X006612Y006189D01*
X008008Y006189D01*
X008010Y006188D01*
X008076Y006189D01*
X008141Y006189D01*
X008143Y006190D01*
X008146Y006190D01*
X008206Y006216D01*
X008266Y006241D01*
X008268Y006242D01*
X008270Y006243D01*
X008316Y006291D01*
X008362Y006336D01*
X008363Y006338D01*
X008364Y006340D01*
X008389Y006401D01*
X008413Y006461D01*
X008413Y006464D01*
X008414Y006466D01*
X008413Y006531D01*
X008413Y006596D01*
X008413Y006599D01*
X008408Y006937D01*
X011267Y006937D01*
X011267Y006596D01*
X011267Y006461D01*
X011319Y006336D01*
X011414Y006241D01*
X011539Y006189D01*
X015815Y006189D01*
X015950Y006189D01*
X016075Y006241D01*
X016171Y006336D01*
X016222Y006461D01*
X016222Y007498D01*
X016315Y007590D01*
X016392Y007778D01*
X016392Y007981D01*
X016315Y008168D01*
X016222Y008260D01*
X016222Y009299D01*
X016584Y009299D01*
X016652Y009271D01*
X016798Y009271D01*
X016934Y009327D01*
X017037Y009431D01*
X017093Y009566D01*
X017093Y009712D01*
X017037Y009848D01*
X016934Y009951D01*
X016798Y010007D01*
X016652Y010007D01*
X016584Y009979D01*
X015950Y009979D01*
X015815Y009979D01*
X015690Y009927D01*
X015594Y009832D01*
X015543Y009707D01*
X015543Y008260D01*
X015450Y008168D01*
X015373Y007981D01*
X015373Y007778D01*
X015450Y007590D01*
X015543Y007498D01*
X015543Y006869D01*
X011947Y006869D01*
X011947Y007209D01*
X011947Y007344D01*
X011895Y007469D01*
X011799Y007565D01*
X011675Y007617D01*
X008404Y007617D01*
X008404Y009144D01*
X009496Y009144D01*
X009602Y009250D01*
X009602Y009753D01*
X009496Y009858D01*
X008225Y009858D01*
X008208Y009841D01*
X007996Y009841D01*
X007871Y009789D01*
X007775Y009694D01*
X007724Y009569D01*
X007724Y009434D01*
X007724Y007344D01*
X007724Y007342D01*
X007723Y007340D01*
X007724Y007274D01*
X007724Y007209D01*
X007725Y007207D01*
X007729Y006869D01*
X006340Y006869D01*
X006205Y006869D01*
X006080Y006817D01*
X005984Y006721D01*
X005932Y006596D01*
X005932Y004449D01*
X005840Y004357D01*
X005762Y004170D01*
X005762Y003967D01*
X005840Y003779D01*
X005983Y003636D01*
X006171Y003558D01*
X006374Y003558D01*
X006561Y003636D01*
X006705Y003779D01*
X006782Y003967D01*
X006782Y004170D01*
X006705Y004357D01*
X006756Y004234D02*
X009789Y004234D01*
X009762Y004075D02*
X006782Y004075D01*
X006761Y003916D02*
X009783Y003916D01*
X009861Y003758D02*
X006683Y003758D01*
X006473Y003599D02*
X010071Y003599D01*
X010086Y003441D02*
X003486Y003441D01*
X003537Y003354D02*
X003397Y003595D01*
X003201Y003792D01*
X002960Y003931D01*
X002691Y004003D01*
X002413Y004003D01*
X002144Y003931D01*
X001903Y003792D01*
X001706Y003595D01*
X001567Y003354D01*
X001495Y003085D01*
X001495Y002807D01*
X001567Y002538D01*
X001706Y002297D01*
X001903Y002101D01*
X002144Y001961D01*
X002413Y001889D01*
X002691Y001889D01*
X002960Y001961D01*
X003201Y002101D01*
X003397Y002297D01*
X003537Y002538D01*
X003609Y002807D01*
X003609Y003085D01*
X003537Y003354D01*
X003556Y003282D02*
X010086Y003282D01*
X010086Y003124D02*
X003598Y003124D01*
X003609Y002965D02*
X010086Y002965D01*
X010086Y002807D02*
X003608Y002807D01*
X003566Y002648D02*
X010086Y002648D01*
X010086Y002490D02*
X003508Y002490D01*
X003417Y002331D02*
X010086Y002331D01*
X010086Y002172D02*
X003273Y002172D01*
X003051Y002014D02*
X010118Y002014D01*
X010270Y001855D02*
X001010Y001855D01*
X001010Y001697D02*
X041101Y001697D01*
X041101Y001855D02*
X021731Y001855D01*
X021883Y002014D02*
X037683Y002014D01*
X037774Y001961D02*
X038043Y001889D01*
X038321Y001889D01*
X038590Y001961D01*
X038831Y002101D01*
X039027Y002297D01*
X039166Y002538D01*
X039238Y002807D01*
X041101Y002807D01*
X041101Y002965D02*
X039238Y002965D01*
X039238Y003085D02*
X039238Y002807D01*
X039196Y002648D02*
X041101Y002648D01*
X041101Y002490D02*
X039138Y002490D01*
X039047Y002331D02*
X041101Y002331D01*
X041101Y002172D02*
X038903Y002172D01*
X038681Y002014D02*
X041101Y002014D01*
X041101Y001538D02*
X001010Y001538D01*
X001010Y001380D02*
X041101Y001380D01*
X041101Y001221D02*
X001010Y001221D01*
X001010Y001063D02*
X041101Y001063D01*
X041101Y001011D02*
X001010Y001011D01*
X001010Y014921D01*
X041101Y014921D01*
X041101Y001011D01*
X037774Y001961D02*
X037533Y002101D01*
X037336Y002297D01*
X037197Y002538D01*
X037125Y002807D01*
X037125Y003085D01*
X037197Y003354D01*
X037336Y003595D01*
X037533Y003792D01*
X037774Y003931D01*
X038043Y004003D01*
X038321Y004003D01*
X038590Y003931D01*
X038831Y003792D01*
X039027Y003595D01*
X039166Y003354D01*
X039238Y003085D01*
X039228Y003124D02*
X041101Y003124D01*
X041101Y003282D02*
X039186Y003282D01*
X039116Y003441D02*
X041101Y003441D01*
X041101Y003599D02*
X039023Y003599D01*
X038864Y003758D02*
X041101Y003758D01*
X041101Y003916D02*
X038615Y003916D01*
X037749Y003916D02*
X031986Y003916D01*
X032015Y004075D02*
X041101Y004075D01*
X041101Y004234D02*
X032015Y004234D01*
X031999Y004392D02*
X041101Y004392D01*
X041101Y004551D02*
X035917Y004551D01*
X036050Y004709D02*
X041101Y004709D01*
X041101Y004868D02*
X036109Y004868D01*
X036109Y005026D02*
X041101Y005026D01*
X041101Y005185D02*
X036055Y005185D01*
X035931Y005343D02*
X041101Y005343D01*
X041101Y005502D02*
X033600Y005502D01*
X033600Y005660D02*
X041101Y005660D01*
X041101Y005819D02*
X033600Y005819D01*
X033600Y005978D02*
X041101Y005978D01*
X041101Y006136D02*
X033600Y006136D01*
X033600Y006295D02*
X041101Y006295D01*
X041101Y006453D02*
X033600Y006453D01*
X033578Y006612D02*
X041101Y006612D01*
X041101Y006770D02*
X033460Y006770D01*
X037018Y007404D02*
X041101Y007404D01*
X041101Y007246D02*
X028482Y007246D01*
X028482Y007087D02*
X041101Y007087D01*
X041101Y006929D02*
X028482Y006929D01*
X027802Y006929D02*
X021396Y006929D01*
X021396Y007087D02*
X027802Y007087D01*
X027802Y007246D02*
X021396Y007246D01*
X020716Y007246D02*
X016222Y007246D01*
X016222Y007404D02*
X019693Y007404D01*
X019687Y007407D02*
X019763Y007382D01*
X019842Y007369D01*
X019852Y007369D01*
X019852Y007849D01*
X019373Y007849D01*
X019373Y007839D01*
X019385Y007760D01*
X019410Y007683D01*
X019446Y007612D01*
X019494Y007547D01*
X019550Y007490D01*
X019615Y007443D01*
X019687Y007407D01*
X019852Y007404D02*
X019913Y007404D01*
X019913Y007369D02*
X019923Y007369D01*
X020002Y007382D01*
X020078Y007407D01*
X020150Y007443D01*
X020215Y007490D01*
X020271Y007547D01*
X020319Y007612D01*
X020355Y007683D01*
X020380Y007760D01*
X020392Y007839D01*
X020392Y007849D01*
X019913Y007849D01*
X019913Y007909D01*
X020392Y007909D01*
X020392Y007919D01*
X020380Y007999D01*
X020355Y008075D01*
X020319Y008146D01*
X020271Y008211D01*
X020215Y008268D01*
X020150Y008315D01*
X020078Y008352D01*
X020002Y008377D01*
X019923Y008389D01*
X019913Y008389D01*
X019913Y007909D01*
X019852Y007909D01*
X019852Y007849D01*
X019913Y007849D01*
X019913Y007369D01*
X020072Y007404D02*
X020716Y007404D01*
X020716Y007563D02*
X020283Y007563D01*
X020367Y007721D02*
X020716Y007721D01*
X020784Y007880D02*
X019913Y007880D01*
X019852Y007880D02*
X016392Y007880D01*
X016369Y008039D02*
X019398Y008039D01*
X019410Y008075D02*
X019385Y007999D01*
X019373Y007919D01*
X019373Y007909D01*
X019852Y007909D01*
X019852Y008389D01*
X019842Y008389D01*
X019763Y008377D01*
X019687Y008352D01*
X019615Y008315D01*
X019550Y008268D01*
X019494Y008211D01*
X019446Y008146D01*
X019410Y008075D01*
X019483Y008197D02*
X016286Y008197D01*
X016222Y008356D02*
X019699Y008356D01*
X019852Y008356D02*
X019913Y008356D01*
X020066Y008356D02*
X025231Y008356D01*
X025236Y008354D02*
X025315Y008342D01*
X025325Y008342D01*
X025325Y008821D01*
X025385Y008821D01*
X025385Y008342D01*
X025395Y008342D01*
X025474Y008354D01*
X025551Y008379D01*
X025622Y008415D01*
X025687Y008463D01*
X025744Y008519D01*
X025791Y008584D01*
X025828Y008656D01*
X025852Y008732D01*
X025865Y008811D01*
X025865Y008822D01*
X025385Y008822D01*
X025385Y008882D01*
X025325Y008882D01*
X025325Y009362D01*
X025315Y009362D01*
X025236Y009349D01*
X025159Y009324D01*
X025088Y009288D01*
X025023Y009241D01*
X024966Y009184D01*
X024919Y009119D01*
X024882Y009047D01*
X024858Y008971D01*
X024845Y008892D01*
X024845Y008882D01*
X025325Y008882D01*
X025325Y008822D01*
X024845Y008822D01*
X024845Y008811D01*
X024858Y008732D01*
X024882Y008656D01*
X024919Y008584D01*
X024966Y008519D01*
X025023Y008463D01*
X025088Y008415D01*
X025159Y008379D01*
X025236Y008354D01*
X025325Y008356D02*
X025385Y008356D01*
X025479Y008356D02*
X026228Y008356D01*
X026228Y008514D02*
X025739Y008514D01*
X025833Y008673D02*
X026228Y008673D01*
X026228Y008831D02*
X025385Y008831D01*
X025385Y008882D02*
X025865Y008882D01*
X025865Y008892D01*
X025852Y008971D01*
X025828Y009047D01*
X025791Y009119D01*
X025744Y009184D01*
X025687Y009241D01*
X025622Y009288D01*
X025551Y009324D01*
X025474Y009349D01*
X025395Y009362D01*
X025385Y009362D01*
X025385Y008882D01*
X025325Y008831D02*
X016222Y008831D01*
X016222Y008673D02*
X024877Y008673D01*
X024971Y008514D02*
X016222Y008514D01*
X015543Y008514D02*
X014926Y008514D01*
X014933Y008518D02*
X014998Y008565D01*
X015055Y008622D01*
X015102Y008687D01*
X015139Y008758D01*
X015163Y008835D01*
X015176Y008914D01*
X015176Y008924D01*
X014696Y008924D01*
X014696Y008984D01*
X015176Y008984D01*
X015176Y008994D01*
X015163Y009073D01*
X015139Y009150D01*
X015102Y009221D01*
X015055Y009286D01*
X014998Y009343D01*
X014933Y009390D01*
X014862Y009427D01*
X014785Y009451D01*
X014706Y009464D01*
X014696Y009464D01*
X014696Y008984D01*
X014636Y008984D01*
X014636Y009464D01*
X014626Y009464D01*
X014547Y009451D01*
X014470Y009427D01*
X014399Y009390D01*
X014334Y009343D01*
X014277Y009286D01*
X014230Y009221D01*
X014193Y009150D01*
X014169Y009073D01*
X014156Y008994D01*
X014156Y008984D01*
X014636Y008984D01*
X014636Y008924D01*
X014696Y008924D01*
X014696Y008444D01*
X014706Y008444D01*
X014785Y008457D01*
X014862Y008481D01*
X014933Y008518D01*
X015092Y008673D02*
X015543Y008673D01*
X015543Y008831D02*
X015162Y008831D01*
X015176Y008990D02*
X015543Y008990D01*
X015543Y009148D02*
X015139Y009148D01*
X015034Y009307D02*
X015543Y009307D01*
X015543Y009465D02*
X011159Y009465D01*
X011159Y009307D02*
X014298Y009307D01*
X014193Y009148D02*
X011159Y009148D01*
X011159Y009095D02*
X011159Y010480D01*
X014016Y010480D01*
X014151Y010480D01*
X014276Y010532D01*
X014360Y010617D01*
X014394Y010617D01*
X014481Y010703D01*
X014490Y010686D01*
X014524Y010652D01*
X014565Y010629D01*
X014611Y010617D01*
X014833Y010617D01*
X014833Y011388D01*
X014909Y011388D01*
X014909Y010617D01*
X015131Y010617D01*
X015176Y010629D01*
X015217Y010652D01*
X015251Y010686D01*
X015275Y010727D01*
X015287Y010773D01*
X015287Y011388D01*
X014909Y011388D01*
X014909Y011465D01*
X014833Y011465D01*
X014833Y012236D01*
X014611Y012236D01*
X014565Y012224D01*
X014524Y012200D01*
X014490Y012167D01*
X014481Y012150D01*
X014394Y012236D01*
X013773Y012236D01*
X013667Y012131D01*
X013667Y011841D01*
X009971Y011841D01*
X010006Y011928D01*
X010006Y012074D01*
X009978Y012142D01*
X009978Y012304D01*
X009988Y012327D01*
X009988Y012463D01*
X009978Y012486D01*
X009978Y012569D01*
X009927Y012694D01*
X009831Y012789D01*
X009706Y012841D01*
X009571Y012841D01*
X009514Y012841D01*
X009496Y012858D01*
X008225Y012858D01*
X008120Y012753D01*
X008120Y012250D01*
X008225Y012144D01*
X009298Y012144D01*
X009298Y012142D01*
X009270Y012074D01*
X009270Y011928D01*
X009299Y011858D01*
X008225Y011858D01*
X008120Y011753D01*
X008120Y011250D01*
X008225Y011144D01*
X009496Y011144D01*
X009514Y011161D01*
X013667Y011161D01*
X013667Y011160D01*
X010752Y011160D01*
X010627Y011108D01*
X010531Y011013D01*
X010480Y010888D01*
X010480Y010752D01*
X010480Y009429D01*
X010377Y009386D01*
X010234Y009243D01*
X010156Y009055D01*
X010156Y008853D01*
X010234Y008665D01*
X010377Y008522D01*
X010564Y008444D01*
X010767Y008444D01*
X010955Y008522D01*
X011098Y008665D01*
X011176Y008853D01*
X011176Y009055D01*
X011159Y009095D01*
X011176Y008990D02*
X014156Y008990D01*
X014156Y008924D02*
X014156Y008914D01*
X014169Y008835D01*
X014193Y008758D01*
X014230Y008687D01*
X014277Y008622D01*
X014334Y008565D01*
X014399Y008518D01*
X014470Y008481D01*
X014547Y008457D01*
X014626Y008444D01*
X014636Y008444D01*
X014636Y008924D01*
X014156Y008924D01*
X014170Y008831D02*
X011167Y008831D01*
X011101Y008673D02*
X014240Y008673D01*
X014406Y008514D02*
X010937Y008514D01*
X010395Y008514D02*
X008404Y008514D01*
X008404Y008356D02*
X015543Y008356D01*
X015479Y008197D02*
X008404Y008197D01*
X008404Y008039D02*
X015397Y008039D01*
X015373Y007880D02*
X008404Y007880D01*
X008404Y007721D02*
X015396Y007721D01*
X015478Y007563D02*
X011802Y007563D01*
X011922Y007404D02*
X015543Y007404D01*
X015543Y007246D02*
X011947Y007246D01*
X011947Y007087D02*
X015543Y007087D01*
X015543Y006929D02*
X011947Y006929D01*
X011267Y006929D02*
X008408Y006929D01*
X008410Y006770D02*
X011267Y006770D01*
X011267Y006612D02*
X008412Y006612D01*
X008410Y006453D02*
X011270Y006453D01*
X011360Y006295D02*
X008320Y006295D01*
X009953Y005819D02*
X006612Y005819D01*
X006612Y005978D02*
X010067Y005978D01*
X009932Y005660D02*
X006612Y005660D01*
X006612Y005502D02*
X009932Y005502D01*
X010612Y005185D02*
X013998Y005185D01*
X013794Y005026D02*
X010612Y005026D01*
X010612Y004868D02*
X013650Y004868D01*
X013559Y004709D02*
X010612Y004709D01*
X010612Y004551D02*
X013493Y004551D01*
X013451Y004392D02*
X010670Y004392D01*
X010756Y004234D02*
X013435Y004234D01*
X013435Y004075D02*
X010782Y004075D01*
X010766Y003916D02*
X013464Y003916D01*
X013506Y003758D02*
X010766Y003758D01*
X010766Y003599D02*
X013587Y003599D01*
X013684Y003441D02*
X010766Y003441D01*
X010766Y003282D02*
X013842Y003282D01*
X014082Y003124D02*
X010766Y003124D01*
X010766Y002965D02*
X020895Y002965D01*
X020895Y003124D02*
X015148Y003124D01*
X015388Y003282D02*
X020944Y003282D01*
X021026Y003441D02*
X015546Y003441D01*
X015643Y003599D02*
X021184Y003599D01*
X021966Y003599D02*
X022291Y003599D01*
X022291Y003441D02*
X022124Y003441D01*
X022206Y003282D02*
X022291Y003282D01*
X022291Y003124D02*
X022255Y003124D01*
X022255Y002965D02*
X022291Y002965D01*
X022291Y002961D02*
X022342Y002836D01*
X022438Y002740D01*
X022563Y002688D01*
X022698Y002688D01*
X023280Y002688D01*
X023299Y002643D01*
X023490Y002452D01*
X023740Y002348D01*
X024010Y002348D01*
X024260Y002452D01*
X024451Y002643D01*
X024555Y002893D01*
X024555Y003164D01*
X024451Y003414D01*
X024260Y003605D01*
X024010Y003708D01*
X023740Y003708D01*
X023490Y003605D01*
X023299Y003414D01*
X023280Y003368D01*
X022971Y003368D01*
X022971Y003986D01*
X022999Y004054D01*
X022999Y004200D01*
X022943Y004336D01*
X022839Y004439D01*
X022704Y004495D01*
X022557Y004495D01*
X022489Y004467D01*
X016866Y004467D01*
X016798Y004495D01*
X016652Y004495D01*
X016516Y004439D01*
X016413Y004336D01*
X016357Y004200D01*
X016357Y004054D01*
X016413Y003919D01*
X016516Y003815D01*
X016652Y003759D01*
X016798Y003759D01*
X016866Y003787D01*
X022291Y003787D01*
X022291Y002961D01*
X022219Y002807D02*
X022371Y002807D01*
X022154Y002648D02*
X023296Y002648D01*
X023452Y002490D02*
X021998Y002490D01*
X021915Y002331D02*
X037317Y002331D01*
X037225Y002490D02*
X024298Y002490D01*
X024454Y002648D02*
X037168Y002648D01*
X037125Y002807D02*
X024519Y002807D01*
X024555Y002965D02*
X037125Y002965D01*
X037135Y003124D02*
X031368Y003124D01*
X031608Y003282D02*
X037178Y003282D01*
X037247Y003441D02*
X031766Y003441D01*
X031863Y003599D02*
X037340Y003599D01*
X037499Y003758D02*
X031944Y003758D01*
X030302Y003124D02*
X024555Y003124D01*
X024506Y003282D02*
X030062Y003282D01*
X029904Y003441D02*
X024424Y003441D01*
X024266Y003599D02*
X029807Y003599D01*
X029726Y003758D02*
X022971Y003758D01*
X022971Y003916D02*
X029684Y003916D01*
X029655Y004075D02*
X022999Y004075D01*
X022985Y004234D02*
X029655Y004234D01*
X029671Y004392D02*
X022886Y004392D01*
X023593Y004709D02*
X021857Y004709D01*
X022076Y004868D02*
X023374Y004868D01*
X023264Y005026D02*
X022186Y005026D01*
X022240Y005185D02*
X023198Y005185D01*
X023195Y005343D02*
X021645Y005343D01*
X021645Y005502D02*
X021505Y005502D01*
X021505Y005660D02*
X021645Y005660D01*
X021645Y005819D02*
X021505Y005819D01*
X021505Y005978D02*
X021645Y005978D01*
X021780Y005978D02*
X023665Y005978D01*
X023404Y005819D02*
X022046Y005819D01*
X022169Y005660D02*
X023277Y005660D01*
X023211Y005502D02*
X022233Y005502D01*
X021104Y005819D02*
X017065Y005819D01*
X017065Y005978D02*
X021370Y005978D01*
X020982Y005660D02*
X017065Y005660D01*
X017006Y005502D02*
X020918Y005502D01*
X020910Y005185D02*
X015232Y005185D01*
X015436Y005026D02*
X020964Y005026D01*
X021074Y004868D02*
X015580Y004868D01*
X015779Y004392D02*
X016469Y004392D01*
X016371Y004234D02*
X015795Y004234D01*
X015795Y004075D02*
X016357Y004075D01*
X016415Y003916D02*
X015766Y003916D01*
X015724Y003758D02*
X022291Y003758D01*
X022971Y003599D02*
X023484Y003599D01*
X023326Y003441D02*
X022971Y003441D01*
X020931Y002807D02*
X010766Y002807D01*
X010766Y002648D02*
X020996Y002648D01*
X021915Y002172D02*
X037461Y002172D01*
X035281Y004551D02*
X031957Y004551D01*
X031891Y004709D02*
X032985Y004709D01*
X032920Y004868D02*
X031800Y004868D01*
X031656Y005026D02*
X032920Y005026D01*
X032920Y005185D02*
X031452Y005185D01*
X029870Y004868D02*
X024376Y004868D01*
X024157Y004709D02*
X029779Y004709D01*
X027802Y005660D02*
X024474Y005660D01*
X024346Y005819D02*
X027802Y005819D01*
X027802Y005978D02*
X024085Y005978D01*
X021377Y006770D02*
X027802Y006770D01*
X027802Y006612D02*
X021265Y006612D01*
X019913Y007563D02*
X019852Y007563D01*
X019852Y007721D02*
X019913Y007721D01*
X019482Y007563D02*
X016287Y007563D01*
X016369Y007721D02*
X019397Y007721D01*
X019852Y008039D02*
X019913Y008039D01*
X019913Y008197D02*
X019852Y008197D01*
X020282Y008197D02*
X026228Y008197D01*
X026228Y008039D02*
X020367Y008039D01*
X019945Y009129D02*
X020132Y009207D01*
X020275Y009350D01*
X020353Y009538D01*
X020353Y009741D01*
X020275Y009928D01*
X020132Y010071D01*
X019945Y010149D01*
X019742Y010149D01*
X019554Y010071D01*
X019462Y009979D01*
X019159Y009979D01*
X019159Y010646D01*
X019217Y010703D01*
X019227Y010686D01*
X019260Y010652D01*
X019301Y010629D01*
X019347Y010617D01*
X019569Y010617D01*
X019569Y011388D01*
X019645Y011388D01*
X019645Y010617D01*
X019867Y010617D01*
X019913Y010629D01*
X019954Y010652D01*
X019987Y010686D01*
X020011Y010727D01*
X020023Y010773D01*
X020023Y011388D01*
X019645Y011388D01*
X019645Y011465D01*
X019569Y011465D01*
X019569Y012236D01*
X019347Y012236D01*
X019301Y012224D01*
X019260Y012200D01*
X019227Y012167D01*
X019217Y012150D01*
X019130Y012236D01*
X018509Y012236D01*
X018403Y012131D01*
X018403Y010752D01*
X018367Y010766D01*
X018232Y010766D01*
X017852Y010766D01*
X017852Y012081D01*
X017881Y012148D01*
X017881Y012295D01*
X017853Y012361D01*
X018225Y012361D01*
X018330Y012466D01*
X018330Y014702D01*
X018225Y014807D01*
X017406Y014807D01*
X017301Y014702D01*
X017301Y012531D01*
X017200Y012430D01*
X017144Y012295D01*
X017144Y012148D01*
X017172Y012081D01*
X017172Y010494D01*
X017172Y010359D01*
X017224Y010234D01*
X017320Y010138D01*
X017445Y010086D01*
X017960Y010086D01*
X017960Y009707D01*
X017960Y009571D01*
X018012Y009446D01*
X018107Y009351D01*
X018232Y009299D01*
X019462Y009299D01*
X019554Y009207D01*
X019742Y009129D01*
X019945Y009129D01*
X019991Y009148D02*
X023703Y009148D01*
X023724Y009142D02*
X023803Y009129D01*
X023813Y009129D01*
X023813Y009609D01*
X023333Y009609D01*
X023333Y009599D01*
X023346Y009520D01*
X023371Y009443D01*
X023407Y009372D01*
X023454Y009307D01*
X020232Y009307D01*
X020323Y009465D02*
X023363Y009465D01*
X023454Y009307D02*
X023511Y009250D01*
X023576Y009203D01*
X023647Y009166D01*
X023724Y009142D01*
X023813Y009148D02*
X023873Y009148D01*
X023873Y009129D02*
X023883Y009129D01*
X023963Y009142D01*
X024039Y009166D01*
X024110Y009203D01*
X024175Y009250D01*
X024232Y009307D01*
X025125Y009307D01*
X025325Y009307D02*
X025385Y009307D01*
X025385Y009148D02*
X025325Y009148D01*
X025325Y008990D02*
X025385Y008990D01*
X025770Y009148D02*
X026396Y009148D01*
X026257Y008990D02*
X025846Y008990D01*
X025585Y009307D02*
X029121Y009307D01*
X029586Y009465D02*
X024323Y009465D01*
X024316Y009443D02*
X024341Y009520D01*
X024353Y009599D01*
X024353Y009609D01*
X023873Y009609D01*
X023873Y009129D01*
X023983Y009148D02*
X024940Y009148D01*
X024864Y008990D02*
X016222Y008990D01*
X016222Y009148D02*
X019695Y009148D01*
X020353Y009624D02*
X023813Y009624D01*
X023813Y009609D02*
X023813Y009669D01*
X023333Y009669D01*
X023333Y009679D01*
X023346Y009758D01*
X023371Y009835D01*
X023407Y009906D01*
X023454Y009971D01*
X023511Y010028D01*
X023576Y010075D01*
X023647Y010112D01*
X023724Y010136D01*
X023803Y010149D01*
X023813Y010149D01*
X023813Y009669D01*
X023873Y009669D01*
X023873Y010149D01*
X023883Y010149D01*
X023963Y010136D01*
X024039Y010112D01*
X024110Y010075D01*
X024175Y010028D01*
X024231Y009972D01*
X024231Y010106D01*
X024259Y010174D01*
X024259Y011494D01*
X024311Y011619D01*
X024380Y011688D01*
X024380Y012131D01*
X024485Y012236D01*
X025107Y012236D01*
X025193Y012150D01*
X025203Y012167D01*
X025237Y012200D01*
X025278Y012224D01*
X025323Y012236D01*
X025545Y012236D01*
X025545Y011465D01*
X025621Y011465D01*
X025621Y012236D01*
X025843Y012236D01*
X025889Y012224D01*
X025930Y012200D01*
X025964Y012167D01*
X025987Y012126D01*
X025999Y012080D01*
X025999Y011465D01*
X025622Y011465D01*
X025622Y011388D01*
X025999Y011388D01*
X025999Y010773D01*
X025987Y010727D01*
X025964Y010686D01*
X025930Y010652D01*
X025889Y010629D01*
X025843Y010617D01*
X025621Y010617D01*
X025621Y011388D01*
X025545Y011388D01*
X025545Y010617D01*
X025323Y010617D01*
X025278Y010629D01*
X025237Y010652D01*
X025203Y010686D01*
X025193Y010703D01*
X025107Y010617D01*
X024939Y010617D01*
X024939Y010174D01*
X024967Y010106D01*
X024967Y009959D01*
X024911Y009824D01*
X024808Y009721D01*
X024672Y009665D01*
X024526Y009665D01*
X024391Y009721D01*
X024335Y009777D01*
X024341Y009758D01*
X024353Y009679D01*
X024353Y009669D01*
X023873Y009669D01*
X023873Y009609D01*
X023813Y009609D01*
X023873Y009624D02*
X029586Y009624D01*
X029586Y009783D02*
X024869Y009783D01*
X024959Y009941D02*
X029586Y009941D01*
X029586Y010100D02*
X024967Y010100D01*
X024939Y010258D02*
X029586Y010258D01*
X029586Y010417D02*
X024939Y010417D01*
X024939Y010575D02*
X029586Y010575D01*
X029510Y010734D02*
X025989Y010734D01*
X025999Y010892D02*
X029510Y010892D01*
X029510Y011051D02*
X025999Y011051D01*
X025999Y011209D02*
X029510Y011209D01*
X029510Y011368D02*
X025999Y011368D01*
X025999Y011527D02*
X029510Y011527D01*
X029510Y011685D02*
X025999Y011685D01*
X025999Y011844D02*
X029510Y011844D01*
X029510Y012002D02*
X025999Y012002D01*
X025967Y012161D02*
X029539Y012161D01*
X029331Y012361D02*
X029436Y012466D01*
X029436Y014702D01*
X029331Y014807D01*
X028513Y014807D01*
X028407Y014702D01*
X028407Y012466D01*
X028513Y012361D01*
X029331Y012361D01*
X029436Y012478D02*
X031203Y012478D01*
X031203Y012466D02*
X031308Y012361D01*
X032126Y012361D01*
X032232Y012466D01*
X032232Y014702D01*
X032126Y014807D01*
X031308Y014807D01*
X031203Y014702D01*
X031203Y012466D01*
X031203Y012636D02*
X029436Y012636D01*
X029436Y012795D02*
X031203Y012795D01*
X031203Y012953D02*
X029436Y012953D01*
X029436Y013112D02*
X031203Y013112D01*
X031203Y013271D02*
X029436Y013271D01*
X029436Y013429D02*
X031203Y013429D01*
X031203Y013588D02*
X029436Y013588D01*
X029436Y013746D02*
X031203Y013746D01*
X031203Y013905D02*
X029436Y013905D01*
X029436Y014063D02*
X031203Y014063D01*
X031203Y014222D02*
X029436Y014222D01*
X029436Y014380D02*
X031203Y014380D01*
X031203Y014539D02*
X029436Y014539D01*
X029436Y014697D02*
X031203Y014697D01*
X032232Y014697D02*
X041101Y014697D01*
X041101Y014539D02*
X032232Y014539D01*
X032232Y014380D02*
X037835Y014380D01*
X037774Y014364D02*
X037533Y014225D01*
X037336Y014028D01*
X037197Y013787D01*
X037125Y013518D01*
X037125Y013240D01*
X037197Y012971D01*
X037336Y012730D01*
X037533Y012534D01*
X037774Y012394D01*
X038043Y012322D01*
X038321Y012322D01*
X038590Y012394D01*
X038831Y012534D01*
X039027Y012730D01*
X039166Y012971D01*
X039238Y013240D01*
X039238Y013518D01*
X039166Y013787D01*
X039027Y014028D01*
X038831Y014225D01*
X038590Y014364D01*
X038321Y014436D01*
X038043Y014436D01*
X037774Y014364D01*
X037530Y014222D02*
X032232Y014222D01*
X032232Y014063D02*
X037371Y014063D01*
X037265Y013905D02*
X032232Y013905D01*
X032232Y013746D02*
X037186Y013746D01*
X037144Y013588D02*
X034395Y013588D01*
X034380Y013603D02*
X034315Y013650D01*
X034244Y013686D01*
X034167Y013711D01*
X034088Y013724D01*
X034078Y013724D01*
X034078Y013244D01*
X034018Y013244D01*
X034018Y013724D01*
X034008Y013724D01*
X033928Y013711D01*
X033852Y013686D01*
X033781Y013650D01*
X033716Y013603D01*
X033659Y013546D01*
X033612Y013481D01*
X033575Y013410D01*
X033550Y013333D01*
X033538Y013254D01*
X033538Y013244D01*
X034018Y013244D01*
X034018Y013184D01*
X033538Y013184D01*
X033538Y013174D01*
X033550Y013094D01*
X033575Y013018D01*
X033612Y012947D01*
X033659Y012882D01*
X033716Y012825D01*
X033781Y012778D01*
X033852Y012741D01*
X033928Y012716D01*
X034008Y012704D01*
X034018Y012704D01*
X034018Y013184D01*
X034078Y013184D01*
X034078Y013244D01*
X034558Y013244D01*
X034558Y013254D01*
X034545Y013333D01*
X034520Y013410D01*
X034484Y013481D01*
X034437Y013546D01*
X034380Y013603D01*
X034511Y013429D02*
X037125Y013429D01*
X037125Y013271D02*
X034555Y013271D01*
X034558Y013184D02*
X034078Y013184D01*
X034078Y012704D01*
X034088Y012704D01*
X034167Y012716D01*
X034244Y012741D01*
X034315Y012778D01*
X034380Y012825D01*
X034437Y012882D01*
X034484Y012947D01*
X034520Y013018D01*
X034545Y013094D01*
X034558Y013174D01*
X034558Y013184D01*
X034548Y013112D02*
X037159Y013112D01*
X037207Y012953D02*
X034488Y012953D01*
X034339Y012795D02*
X037299Y012795D01*
X037430Y012636D02*
X032232Y012636D01*
X032232Y012478D02*
X037629Y012478D01*
X038734Y012478D02*
X041101Y012478D01*
X041101Y012636D02*
X038933Y012636D01*
X039065Y012795D02*
X041101Y012795D01*
X041101Y012953D02*
X039156Y012953D01*
X039204Y013112D02*
X041101Y013112D01*
X041101Y013271D02*
X039238Y013271D01*
X039238Y013429D02*
X041101Y013429D01*
X041101Y013588D02*
X039220Y013588D01*
X039177Y013746D02*
X041101Y013746D01*
X041101Y013905D02*
X039099Y013905D01*
X038992Y014063D02*
X041101Y014063D01*
X041101Y014222D02*
X038834Y014222D01*
X038529Y014380D02*
X041101Y014380D01*
X041101Y014856D02*
X009499Y014856D01*
X009496Y014858D02*
X009602Y014753D01*
X009602Y014250D01*
X009496Y014144D01*
X008225Y014144D01*
X008120Y014250D01*
X008120Y014753D01*
X008225Y014858D01*
X009496Y014858D01*
X009602Y014697D02*
X012565Y014697D01*
X012565Y014702D02*
X012670Y014807D01*
X013489Y014807D01*
X013594Y014702D01*
X013594Y012466D01*
X013489Y012361D01*
X012670Y012361D01*
X012565Y012466D01*
X012565Y014702D01*
X012565Y014539D02*
X009602Y014539D01*
X009602Y014380D02*
X012565Y014380D01*
X012565Y014222D02*
X009574Y014222D01*
X009496Y013858D02*
X008225Y013858D01*
X008120Y013753D01*
X008120Y013250D01*
X008225Y013144D01*
X009496Y013144D01*
X009514Y013161D01*
X010845Y013161D01*
X010845Y013109D01*
X010901Y012974D01*
X011005Y012870D01*
X011140Y012814D01*
X011286Y012814D01*
X011422Y012870D01*
X011525Y012974D01*
X011581Y013109D01*
X011581Y013256D01*
X011553Y013323D01*
X011553Y013569D01*
X011501Y013694D01*
X011406Y013789D01*
X011281Y013841D01*
X011146Y013841D01*
X009514Y013841D01*
X009496Y013858D01*
X008120Y013746D02*
X006433Y013746D01*
X006433Y013753D02*
X006327Y013858D01*
X005056Y013858D01*
X004951Y013753D01*
X004951Y013250D01*
X005056Y013144D01*
X006327Y013144D01*
X006433Y013250D01*
X006433Y013753D01*
X006433Y013588D02*
X008120Y013588D01*
X008120Y013429D02*
X006433Y013429D01*
X006433Y013271D02*
X008120Y013271D01*
X008162Y012795D02*
X006391Y012795D01*
X006433Y012753D02*
X006327Y012858D01*
X005056Y012858D01*
X004951Y012753D01*
X004951Y012250D01*
X005056Y012144D01*
X006327Y012144D01*
X006433Y012250D01*
X006433Y012753D01*
X006433Y012636D02*
X008120Y012636D01*
X008120Y012478D02*
X006433Y012478D01*
X006433Y012319D02*
X008120Y012319D01*
X008209Y012161D02*
X006344Y012161D01*
X006327Y011858D02*
X005056Y011858D01*
X004951Y011753D01*
X004951Y011250D01*
X005056Y011144D01*
X006327Y011144D01*
X006433Y011250D01*
X006433Y011753D01*
X006327Y011858D01*
X006342Y011844D02*
X008211Y011844D01*
X008120Y011685D02*
X006433Y011685D01*
X006433Y011527D02*
X008120Y011527D01*
X008120Y011368D02*
X006433Y011368D01*
X006392Y011209D02*
X008160Y011209D01*
X009972Y011844D02*
X013667Y011844D01*
X013667Y012002D02*
X010006Y012002D01*
X009978Y012161D02*
X013697Y012161D01*
X013594Y012478D02*
X015360Y012478D01*
X015360Y012466D02*
X015465Y012361D01*
X016284Y012361D01*
X016389Y012466D01*
X016389Y014702D01*
X016284Y014807D01*
X015465Y014807D01*
X015360Y014702D01*
X015360Y012466D01*
X015360Y012636D02*
X013594Y012636D01*
X013594Y012795D02*
X015360Y012795D01*
X015360Y012953D02*
X013594Y012953D01*
X013594Y013112D02*
X015360Y013112D01*
X015360Y013271D02*
X013594Y013271D01*
X013594Y013429D02*
X015360Y013429D01*
X015360Y013588D02*
X013594Y013588D01*
X013594Y013746D02*
X015360Y013746D01*
X015360Y013905D02*
X013594Y013905D01*
X013594Y014063D02*
X015360Y014063D01*
X015360Y014222D02*
X013594Y014222D01*
X013594Y014380D02*
X015360Y014380D01*
X015360Y014539D02*
X013594Y014539D01*
X013594Y014697D02*
X015360Y014697D01*
X016389Y014697D02*
X017301Y014697D01*
X017301Y014539D02*
X016389Y014539D01*
X016389Y014380D02*
X017301Y014380D01*
X017301Y014222D02*
X016389Y014222D01*
X016389Y014063D02*
X017301Y014063D01*
X017301Y013905D02*
X016389Y013905D01*
X016389Y013746D02*
X017301Y013746D01*
X017301Y013588D02*
X016389Y013588D01*
X016389Y013429D02*
X017301Y013429D01*
X017301Y013271D02*
X016389Y013271D01*
X016389Y013112D02*
X017301Y013112D01*
X017301Y012953D02*
X016389Y012953D01*
X016389Y012795D02*
X017301Y012795D01*
X017301Y012636D02*
X016389Y012636D01*
X016389Y012478D02*
X017248Y012478D01*
X017154Y012319D02*
X009985Y012319D01*
X009982Y012478D02*
X012565Y012478D01*
X012565Y012636D02*
X009950Y012636D01*
X009818Y012795D02*
X012565Y012795D01*
X012565Y012953D02*
X011505Y012953D01*
X011581Y013112D02*
X012565Y013112D01*
X012565Y013271D02*
X011575Y013271D01*
X011553Y013429D02*
X012565Y013429D01*
X012565Y013588D02*
X011545Y013588D01*
X011449Y013746D02*
X012565Y013746D01*
X012565Y013905D02*
X003469Y013905D01*
X003537Y013787D02*
X003397Y014028D01*
X003201Y014225D01*
X002960Y014364D01*
X002691Y014436D01*
X002413Y014436D01*
X002144Y014364D01*
X001903Y014225D01*
X001706Y014028D01*
X001567Y013787D01*
X001495Y013518D01*
X001495Y013240D01*
X001567Y012971D01*
X001706Y012730D01*
X001903Y012534D01*
X002144Y012394D01*
X002413Y012322D01*
X002691Y012322D01*
X002960Y012394D01*
X003201Y012534D01*
X003397Y012730D01*
X003537Y012971D01*
X003609Y013240D01*
X003609Y013518D01*
X003537Y013787D01*
X003548Y013746D02*
X004951Y013746D01*
X004951Y013588D02*
X003590Y013588D01*
X003609Y013429D02*
X004951Y013429D01*
X004951Y013271D02*
X003609Y013271D01*
X003574Y013112D02*
X010845Y013112D01*
X010922Y012953D02*
X003526Y012953D01*
X003435Y012795D02*
X004992Y012795D01*
X004951Y012636D02*
X003303Y012636D01*
X003104Y012478D02*
X004951Y012478D01*
X004951Y012319D02*
X001010Y012319D01*
X001010Y012161D02*
X005039Y012161D01*
X005041Y011844D02*
X001010Y011844D01*
X001010Y012002D02*
X009270Y012002D01*
X010569Y011051D02*
X001010Y011051D01*
X001010Y011209D02*
X004991Y011209D01*
X004951Y011368D02*
X001010Y011368D01*
X001010Y011527D02*
X004951Y011527D01*
X004951Y011685D02*
X001010Y011685D01*
X001010Y010892D02*
X010481Y010892D01*
X010480Y010734D02*
X001010Y010734D01*
X001010Y010575D02*
X010480Y010575D01*
X010480Y010417D02*
X001010Y010417D01*
X001010Y010258D02*
X010480Y010258D01*
X010480Y010100D02*
X001010Y010100D01*
X001010Y009941D02*
X010480Y009941D01*
X010480Y009783D02*
X009572Y009783D01*
X009602Y009624D02*
X010480Y009624D01*
X010480Y009465D02*
X009602Y009465D01*
X009602Y009307D02*
X010298Y009307D01*
X010194Y009148D02*
X009501Y009148D01*
X010156Y008990D02*
X008404Y008990D01*
X008404Y008831D02*
X010165Y008831D01*
X010230Y008673D02*
X008404Y008673D01*
X007724Y008673D02*
X001010Y008673D01*
X001010Y008831D02*
X007724Y008831D01*
X007724Y008990D02*
X001010Y008990D01*
X001010Y009148D02*
X005091Y009148D01*
X005107Y009144D02*
X005683Y009144D01*
X005683Y009492D01*
X005700Y009492D01*
X005700Y009144D01*
X006276Y009144D01*
X006322Y009156D01*
X006363Y009180D01*
X006397Y009214D01*
X006420Y009255D01*
X006433Y009300D01*
X006433Y009493D01*
X005700Y009493D01*
X005700Y009510D01*
X005683Y009510D01*
X005683Y009858D01*
X005107Y009858D01*
X005061Y009846D01*
X005020Y009822D01*
X004986Y009789D01*
X004963Y009748D01*
X004951Y009702D01*
X004951Y009510D01*
X005683Y009510D01*
X005683Y009493D01*
X004951Y009493D01*
X004951Y009300D01*
X004963Y009255D01*
X004986Y009214D01*
X005020Y009180D01*
X005061Y009156D01*
X005107Y009144D01*
X004951Y009307D02*
X001010Y009307D01*
X001010Y009465D02*
X004951Y009465D01*
X004951Y009624D02*
X001010Y009624D01*
X001010Y009783D02*
X004983Y009783D01*
X005683Y009783D02*
X005700Y009783D01*
X005700Y009858D02*
X005700Y009510D01*
X006433Y009510D01*
X006433Y009702D01*
X006420Y009748D01*
X006397Y009789D01*
X006363Y009822D01*
X006322Y009846D01*
X006276Y009858D01*
X005700Y009858D01*
X005683Y009624D02*
X005700Y009624D01*
X005683Y009465D02*
X005700Y009465D01*
X005683Y009307D02*
X005700Y009307D01*
X005683Y009148D02*
X005700Y009148D01*
X006292Y009148D02*
X007724Y009148D01*
X007724Y009307D02*
X006433Y009307D01*
X006433Y009465D02*
X007724Y009465D01*
X007746Y009624D02*
X006433Y009624D01*
X006400Y009783D02*
X007864Y009783D01*
X011159Y009783D02*
X015574Y009783D01*
X015543Y009624D02*
X011159Y009624D01*
X011159Y009941D02*
X015723Y009941D01*
X016944Y009941D02*
X017960Y009941D01*
X017960Y009783D02*
X017064Y009783D01*
X017093Y009624D02*
X017960Y009624D01*
X018004Y009465D02*
X017052Y009465D01*
X016885Y009307D02*
X018213Y009307D01*
X020262Y009941D02*
X023432Y009941D01*
X023354Y009783D02*
X020336Y009783D01*
X020064Y010100D02*
X023624Y010100D01*
X023813Y010100D02*
X023873Y010100D01*
X023873Y009941D02*
X023813Y009941D01*
X023813Y009783D02*
X023873Y009783D01*
X023873Y009465D02*
X023813Y009465D01*
X023813Y009307D02*
X023873Y009307D01*
X024232Y009307D02*
X024279Y009372D01*
X024316Y009443D01*
X025325Y008673D02*
X025385Y008673D01*
X025385Y008514D02*
X025325Y008514D01*
X026908Y008356D02*
X029220Y008356D01*
X029490Y008356D02*
X036464Y008356D01*
X036464Y008514D02*
X035870Y008514D01*
X035328Y008514D02*
X030000Y008514D01*
X030220Y008673D02*
X035164Y008673D01*
X035098Y008831D02*
X034387Y008831D01*
X033709Y008831D02*
X030266Y008831D01*
X030266Y008990D02*
X033035Y008990D01*
X032933Y009148D02*
X030266Y009148D01*
X030266Y009307D02*
X032920Y009307D01*
X032920Y009465D02*
X030266Y009465D01*
X030266Y009624D02*
X032920Y009624D01*
X033600Y009624D02*
X033737Y009624D01*
X033600Y009783D02*
X041101Y009783D01*
X041101Y009941D02*
X033600Y009941D01*
X034359Y009624D02*
X041101Y009624D01*
X041101Y009465D02*
X035828Y009465D01*
X035967Y009307D02*
X041101Y009307D01*
X041101Y009148D02*
X037090Y009148D01*
X037144Y008990D02*
X041101Y008990D01*
X041101Y008831D02*
X037144Y008831D01*
X037144Y008673D02*
X041101Y008673D01*
X041101Y008514D02*
X037144Y008514D01*
X037144Y008356D02*
X041101Y008356D01*
X041101Y008197D02*
X037144Y008197D01*
X037144Y008039D02*
X041101Y008039D01*
X041101Y007880D02*
X037144Y007880D01*
X036464Y008039D02*
X026908Y008039D01*
X026908Y008197D02*
X036464Y008197D01*
X037144Y007721D02*
X041101Y007721D01*
X041101Y007563D02*
X037127Y007563D01*
X035267Y005343D02*
X033600Y005343D01*
X027802Y006136D02*
X017065Y006136D01*
X017065Y006295D02*
X027802Y006295D01*
X027802Y006453D02*
X017065Y006453D01*
X016385Y006453D02*
X016219Y006453D01*
X016222Y006612D02*
X016385Y006612D01*
X016385Y006770D02*
X016222Y006770D01*
X016222Y006929D02*
X016385Y006929D01*
X016448Y007087D02*
X016222Y007087D01*
X016129Y006295D02*
X016385Y006295D01*
X016385Y006136D02*
X006612Y006136D01*
X005932Y006136D02*
X001010Y006136D01*
X001010Y005978D02*
X005932Y005978D01*
X005932Y005819D02*
X001010Y005819D01*
X001010Y005660D02*
X005932Y005660D01*
X005932Y005502D02*
X001010Y005502D01*
X001010Y005343D02*
X005932Y005343D01*
X005932Y005185D02*
X001010Y005185D01*
X001010Y005026D02*
X005932Y005026D01*
X005932Y004868D02*
X001010Y004868D01*
X001010Y004709D02*
X005932Y004709D01*
X005932Y004551D02*
X001010Y004551D01*
X001010Y004392D02*
X005875Y004392D01*
X005789Y004234D02*
X001010Y004234D01*
X001010Y004075D02*
X005762Y004075D01*
X005783Y003916D02*
X002985Y003916D01*
X003234Y003758D02*
X005861Y003758D01*
X006071Y003599D02*
X003393Y003599D01*
X002119Y003916D02*
X001010Y003916D01*
X001010Y003758D02*
X001869Y003758D01*
X001711Y003599D02*
X001010Y003599D01*
X001010Y003441D02*
X001617Y003441D01*
X001548Y003282D02*
X001010Y003282D01*
X001010Y003124D02*
X001505Y003124D01*
X001495Y002965D02*
X001010Y002965D01*
X001010Y002807D02*
X001495Y002807D01*
X001538Y002648D02*
X001010Y002648D01*
X001010Y002490D02*
X001595Y002490D01*
X001687Y002331D02*
X001010Y002331D01*
X001010Y002172D02*
X001831Y002172D01*
X002053Y002014D02*
X001010Y002014D01*
X001010Y006295D02*
X005932Y006295D01*
X005932Y006453D02*
X001010Y006453D01*
X001010Y006612D02*
X005939Y006612D01*
X006033Y006770D02*
X001010Y006770D01*
X001010Y006929D02*
X007728Y006929D01*
X007726Y007087D02*
X001010Y007087D01*
X001010Y007246D02*
X007724Y007246D01*
X007724Y007404D02*
X001010Y007404D01*
X001010Y007563D02*
X007724Y007563D01*
X007724Y007721D02*
X001010Y007721D01*
X001010Y007880D02*
X007724Y007880D01*
X007724Y008039D02*
X001010Y008039D01*
X001010Y008197D02*
X007724Y008197D01*
X007724Y008356D02*
X001010Y008356D01*
X001010Y008514D02*
X007724Y008514D01*
X011159Y010100D02*
X017413Y010100D01*
X017214Y010258D02*
X011159Y010258D01*
X011159Y010417D02*
X017172Y010417D01*
X017172Y010575D02*
X014319Y010575D01*
X014833Y010734D02*
X014909Y010734D01*
X014909Y010892D02*
X014833Y010892D01*
X014833Y011051D02*
X014909Y011051D01*
X014909Y011209D02*
X014833Y011209D01*
X014833Y011368D02*
X014909Y011368D01*
X014832Y011388D02*
X014499Y011388D01*
X014499Y011465D01*
X014832Y011465D01*
X014832Y011388D01*
X014909Y011465D02*
X014909Y012236D01*
X015131Y012236D01*
X015176Y012224D01*
X015217Y012200D01*
X015251Y012167D01*
X015275Y012126D01*
X015287Y012080D01*
X015287Y011465D01*
X014909Y011465D01*
X014909Y011527D02*
X014833Y011527D01*
X014833Y011685D02*
X014909Y011685D01*
X014909Y011844D02*
X014833Y011844D01*
X014833Y012002D02*
X014909Y012002D01*
X014909Y012161D02*
X014833Y012161D01*
X014487Y012161D02*
X014470Y012161D01*
X015255Y012161D02*
X017144Y012161D01*
X017172Y012002D02*
X015287Y012002D01*
X015287Y011844D02*
X017172Y011844D01*
X017172Y011685D02*
X015287Y011685D01*
X015287Y011527D02*
X017172Y011527D01*
X017172Y011368D02*
X015287Y011368D01*
X015287Y011209D02*
X017172Y011209D01*
X017172Y011051D02*
X015287Y011051D01*
X015287Y010892D02*
X017172Y010892D01*
X017172Y010734D02*
X015276Y010734D01*
X017852Y010892D02*
X018403Y010892D01*
X018403Y011051D02*
X017852Y011051D01*
X017852Y011209D02*
X018403Y011209D01*
X018403Y011368D02*
X017852Y011368D01*
X017852Y011527D02*
X018403Y011527D01*
X018403Y011685D02*
X017852Y011685D01*
X017852Y011844D02*
X018403Y011844D01*
X018403Y012002D02*
X017852Y012002D01*
X017881Y012161D02*
X018433Y012161D01*
X017870Y012319D02*
X041101Y012319D01*
X041101Y012161D02*
X031097Y012161D01*
X031129Y012002D02*
X041101Y012002D01*
X041101Y011844D02*
X031129Y011844D01*
X031129Y011685D02*
X041101Y011685D01*
X041101Y011527D02*
X031129Y011527D01*
X031129Y011368D02*
X041101Y011368D01*
X041101Y011209D02*
X031129Y011209D01*
X031129Y011051D02*
X041101Y011051D01*
X041101Y010892D02*
X031129Y010892D01*
X031119Y010734D02*
X041101Y010734D01*
X041101Y010575D02*
X030266Y010575D01*
X030266Y010417D02*
X041101Y010417D01*
X034078Y012795D02*
X034018Y012795D01*
X034018Y012953D02*
X034078Y012953D01*
X034078Y013112D02*
X034018Y013112D01*
X034018Y013271D02*
X034078Y013271D01*
X034078Y013429D02*
X034018Y013429D01*
X034018Y013588D02*
X034078Y013588D01*
X033700Y013588D02*
X032232Y013588D01*
X032232Y013429D02*
X033585Y013429D01*
X033541Y013271D02*
X032232Y013271D01*
X032232Y013112D02*
X033548Y013112D01*
X033608Y012953D02*
X032232Y012953D01*
X032232Y012795D02*
X033757Y012795D01*
X030751Y012161D02*
X030675Y012161D01*
X030675Y012002D02*
X030751Y012002D01*
X030751Y011844D02*
X030675Y011844D01*
X030675Y011685D02*
X030751Y011685D01*
X030751Y011527D02*
X030675Y011527D01*
X030675Y011465D02*
X030342Y011465D01*
X030342Y011388D01*
X030675Y011388D01*
X030675Y011465D01*
X030675Y011368D02*
X030751Y011368D01*
X030751Y011209D02*
X030675Y011209D01*
X030675Y011051D02*
X030751Y011051D01*
X030751Y010892D02*
X030675Y010892D01*
X030675Y010734D02*
X030751Y010734D01*
X030266Y010258D02*
X031784Y010258D01*
X031711Y010100D02*
X030266Y010100D01*
X030266Y009941D02*
X031719Y009941D01*
X031809Y009783D02*
X030266Y009783D01*
X025621Y010734D02*
X025545Y010734D01*
X025545Y010892D02*
X025621Y010892D01*
X025621Y011051D02*
X025545Y011051D01*
X025545Y011209D02*
X025621Y011209D01*
X025621Y011368D02*
X025545Y011368D01*
X025545Y011527D02*
X025621Y011527D01*
X025621Y011685D02*
X025545Y011685D01*
X025545Y011844D02*
X025621Y011844D01*
X025621Y012002D02*
X025545Y012002D01*
X025545Y012161D02*
X025621Y012161D01*
X025199Y012161D02*
X025182Y012161D01*
X024409Y012161D02*
X019991Y012161D01*
X019987Y012167D02*
X019954Y012200D01*
X019913Y012224D01*
X019867Y012236D01*
X019645Y012236D01*
X019645Y011465D01*
X020023Y011465D01*
X020023Y012080D01*
X020011Y012126D01*
X019987Y012167D01*
X020023Y012002D02*
X024380Y012002D01*
X024380Y011844D02*
X020023Y011844D01*
X020023Y011685D02*
X024377Y011685D01*
X024273Y011527D02*
X020023Y011527D01*
X020023Y011368D02*
X024259Y011368D01*
X024259Y011209D02*
X020023Y011209D01*
X020023Y011051D02*
X024259Y011051D01*
X024259Y010892D02*
X020023Y010892D01*
X020013Y010734D02*
X024259Y010734D01*
X024259Y010575D02*
X019159Y010575D01*
X019159Y010417D02*
X024259Y010417D01*
X024259Y010258D02*
X019159Y010258D01*
X019159Y010100D02*
X019623Y010100D01*
X019645Y010734D02*
X019569Y010734D01*
X019569Y010892D02*
X019645Y010892D01*
X019645Y011051D02*
X019569Y011051D01*
X019569Y011209D02*
X019645Y011209D01*
X019645Y011368D02*
X019569Y011368D01*
X019569Y011527D02*
X019645Y011527D01*
X019645Y011685D02*
X019569Y011685D01*
X019569Y011844D02*
X019645Y011844D01*
X019645Y012002D02*
X019569Y012002D01*
X019569Y012161D02*
X019645Y012161D01*
X019223Y012161D02*
X019206Y012161D01*
X018330Y012478D02*
X020096Y012478D01*
X020096Y012466D02*
X020202Y012361D01*
X021020Y012361D01*
X021125Y012466D01*
X021125Y014702D01*
X021020Y014807D01*
X020202Y014807D01*
X020096Y014702D01*
X020096Y012466D01*
X020096Y012636D02*
X018330Y012636D01*
X018330Y012795D02*
X020096Y012795D01*
X020096Y012953D02*
X018330Y012953D01*
X018330Y013112D02*
X020096Y013112D01*
X020096Y013271D02*
X018330Y013271D01*
X018330Y013429D02*
X020096Y013429D01*
X020096Y013588D02*
X018330Y013588D01*
X018330Y013746D02*
X020096Y013746D01*
X020096Y013905D02*
X018330Y013905D01*
X018330Y014063D02*
X020096Y014063D01*
X020096Y014222D02*
X018330Y014222D01*
X018330Y014380D02*
X020096Y014380D01*
X020096Y014539D02*
X018330Y014539D01*
X018330Y014697D02*
X020096Y014697D01*
X021125Y014697D02*
X023277Y014697D01*
X023277Y014702D02*
X023383Y014807D01*
X024201Y014807D01*
X024307Y014702D01*
X024307Y012466D01*
X024201Y012361D01*
X023383Y012361D01*
X023277Y012466D01*
X023277Y014702D01*
X023277Y014539D02*
X021125Y014539D01*
X021125Y014380D02*
X023277Y014380D01*
X023277Y014222D02*
X021125Y014222D01*
X021125Y014063D02*
X023277Y014063D01*
X023277Y013905D02*
X021125Y013905D01*
X021125Y013746D02*
X023277Y013746D01*
X023277Y013588D02*
X021125Y013588D01*
X021125Y013429D02*
X023277Y013429D01*
X023277Y013271D02*
X021125Y013271D01*
X021125Y013112D02*
X023277Y013112D01*
X023277Y012953D02*
X021125Y012953D01*
X021125Y012795D02*
X023277Y012795D01*
X023277Y012636D02*
X021125Y012636D01*
X021125Y012478D02*
X023277Y012478D01*
X024307Y012478D02*
X026073Y012478D01*
X026073Y012466D02*
X026178Y012361D01*
X026996Y012361D01*
X027102Y012466D01*
X027102Y014702D01*
X026996Y014807D01*
X026178Y014807D01*
X026073Y014702D01*
X026073Y012466D01*
X026073Y012636D02*
X024307Y012636D01*
X024307Y012795D02*
X026073Y012795D01*
X026073Y012953D02*
X024307Y012953D01*
X024307Y013112D02*
X026073Y013112D01*
X026073Y013271D02*
X024307Y013271D01*
X024307Y013429D02*
X026073Y013429D01*
X026073Y013588D02*
X024307Y013588D01*
X024307Y013746D02*
X026073Y013746D01*
X026073Y013905D02*
X024307Y013905D01*
X024307Y014063D02*
X026073Y014063D01*
X026073Y014222D02*
X024307Y014222D01*
X024307Y014380D02*
X026073Y014380D01*
X026073Y014539D02*
X024307Y014539D01*
X024307Y014697D02*
X026073Y014697D01*
X027102Y014697D02*
X028407Y014697D01*
X028407Y014539D02*
X027102Y014539D01*
X027102Y014380D02*
X028407Y014380D01*
X028407Y014222D02*
X027102Y014222D01*
X027102Y014063D02*
X028407Y014063D01*
X028407Y013905D02*
X027102Y013905D01*
X027102Y013746D02*
X028407Y013746D01*
X028407Y013588D02*
X027102Y013588D01*
X027102Y013429D02*
X028407Y013429D01*
X028407Y013271D02*
X027102Y013271D01*
X027102Y013112D02*
X028407Y013112D01*
X028407Y012953D02*
X027102Y012953D01*
X027102Y012795D02*
X028407Y012795D01*
X028407Y012636D02*
X027102Y012636D01*
X027102Y012478D02*
X028407Y012478D01*
X030312Y012161D02*
X030329Y012161D01*
X024231Y010100D02*
X024062Y010100D01*
X026908Y007880D02*
X027871Y007880D01*
X027802Y007721D02*
X026908Y007721D01*
X026891Y007563D02*
X027802Y007563D01*
X027802Y007404D02*
X026782Y007404D01*
X014696Y008514D02*
X014636Y008514D01*
X014636Y008673D02*
X014696Y008673D01*
X014696Y008831D02*
X014636Y008831D01*
X014636Y008990D02*
X014696Y008990D01*
X014696Y009148D02*
X014636Y009148D01*
X014636Y009307D02*
X014696Y009307D01*
X002000Y012478D02*
X001010Y012478D01*
X001010Y012636D02*
X001800Y012636D01*
X001669Y012795D02*
X001010Y012795D01*
X001010Y012953D02*
X001577Y012953D01*
X001529Y013112D02*
X001010Y013112D01*
X001010Y013271D02*
X001495Y013271D01*
X001495Y013429D02*
X001010Y013429D01*
X001010Y013588D02*
X001514Y013588D01*
X001556Y013746D02*
X001010Y013746D01*
X001010Y013905D02*
X001635Y013905D01*
X001741Y014063D02*
X001010Y014063D01*
X001010Y014222D02*
X001900Y014222D01*
X002205Y014380D02*
X001010Y014380D01*
X001010Y014539D02*
X004951Y014539D01*
X004951Y014697D02*
X001010Y014697D01*
X001010Y014856D02*
X005054Y014856D01*
X005056Y014858D02*
X004951Y014753D01*
X004951Y014250D01*
X005056Y014144D01*
X006327Y014144D01*
X006433Y014250D01*
X006433Y014753D01*
X006327Y014858D01*
X005056Y014858D01*
X006330Y014856D02*
X008223Y014856D01*
X008120Y014697D02*
X006433Y014697D01*
X006433Y014539D02*
X008120Y014539D01*
X008120Y014380D02*
X006433Y014380D01*
X006405Y014222D02*
X008148Y014222D01*
X004978Y014222D02*
X003204Y014222D01*
X003362Y014063D02*
X012565Y014063D01*
X004951Y014380D02*
X002899Y014380D01*
M02*
