G75*
G70*
%OFA0B0*%
%FSLAX24Y24*%
%IPPOS*%
%LPD*%
%AMOC8*
5,1,8,0,0,1.08239X$1,22.5*
%
%ADD10C,0.0000*%
%ADD11R,0.0472X0.1260*%
%ADD12R,0.0669X0.2087*%
%ADD13C,0.0886*%
%ADD14C,0.1286*%
%ADD15C,0.1181*%
%ADD16C,0.0660*%
%ADD17R,0.0394X0.1122*%
%ADD18R,0.1150X0.0500*%
%ADD19C,0.0376*%
%ADD20C,0.0160*%
%ADD21C,0.0416*%
%ADD22C,0.0591*%
D10*
X000101Y000978D02*
X000101Y032867D01*
X031006Y032867D01*
X031006Y000978D01*
X000101Y000978D01*
X000810Y002159D02*
X000812Y002202D01*
X000818Y002244D01*
X000828Y002286D01*
X000841Y002327D01*
X000858Y002367D01*
X000879Y002404D01*
X000903Y002440D01*
X000930Y002473D01*
X000960Y002504D01*
X000993Y002532D01*
X001028Y002557D01*
X001065Y002578D01*
X001104Y002596D01*
X001144Y002610D01*
X001186Y002621D01*
X001228Y002628D01*
X001271Y002631D01*
X001314Y002630D01*
X001357Y002625D01*
X001399Y002616D01*
X001440Y002604D01*
X001480Y002588D01*
X001518Y002568D01*
X001554Y002545D01*
X001588Y002518D01*
X001620Y002489D01*
X001648Y002457D01*
X001674Y002422D01*
X001696Y002386D01*
X001715Y002347D01*
X001730Y002307D01*
X001742Y002266D01*
X001750Y002223D01*
X001754Y002180D01*
X001754Y002138D01*
X001750Y002095D01*
X001742Y002052D01*
X001730Y002011D01*
X001715Y001971D01*
X001696Y001932D01*
X001674Y001896D01*
X001648Y001861D01*
X001620Y001829D01*
X001588Y001800D01*
X001554Y001773D01*
X001518Y001750D01*
X001480Y001730D01*
X001440Y001714D01*
X001399Y001702D01*
X001357Y001693D01*
X001314Y001688D01*
X001271Y001687D01*
X001228Y001690D01*
X001186Y001697D01*
X001144Y001708D01*
X001104Y001722D01*
X001065Y001740D01*
X001028Y001761D01*
X000993Y001786D01*
X000960Y001814D01*
X000930Y001845D01*
X000903Y001878D01*
X000879Y001914D01*
X000858Y001951D01*
X000841Y001991D01*
X000828Y002032D01*
X000818Y002074D01*
X000812Y002116D01*
X000810Y002159D01*
X007419Y009584D02*
X007421Y009623D01*
X007427Y009662D01*
X007437Y009700D01*
X007450Y009737D01*
X007467Y009772D01*
X007487Y009806D01*
X007511Y009837D01*
X007538Y009866D01*
X007567Y009892D01*
X007599Y009915D01*
X007633Y009935D01*
X007669Y009951D01*
X007706Y009963D01*
X007745Y009972D01*
X007784Y009977D01*
X007823Y009978D01*
X007862Y009975D01*
X007901Y009968D01*
X007938Y009957D01*
X007975Y009943D01*
X008010Y009925D01*
X008043Y009904D01*
X008074Y009879D01*
X008102Y009852D01*
X008127Y009822D01*
X008149Y009789D01*
X008168Y009755D01*
X008183Y009719D01*
X008195Y009681D01*
X008203Y009643D01*
X008207Y009604D01*
X008207Y009564D01*
X008203Y009525D01*
X008195Y009487D01*
X008183Y009449D01*
X008168Y009413D01*
X008149Y009379D01*
X008127Y009346D01*
X008102Y009316D01*
X008074Y009289D01*
X008043Y009264D01*
X008010Y009243D01*
X007975Y009225D01*
X007938Y009211D01*
X007901Y009200D01*
X007862Y009193D01*
X007823Y009190D01*
X007784Y009191D01*
X007745Y009196D01*
X007706Y009205D01*
X007669Y009217D01*
X007633Y009233D01*
X007599Y009253D01*
X007567Y009276D01*
X007538Y009302D01*
X007511Y009331D01*
X007487Y009362D01*
X007467Y009396D01*
X007450Y009431D01*
X007437Y009468D01*
X007427Y009506D01*
X007421Y009545D01*
X007419Y009584D01*
X022067Y028403D02*
X022069Y028446D01*
X022075Y028489D01*
X022085Y028531D01*
X022098Y028572D01*
X022115Y028612D01*
X022136Y028650D01*
X022160Y028686D01*
X022188Y028719D01*
X022218Y028750D01*
X022251Y028778D01*
X022286Y028803D01*
X022323Y028825D01*
X022363Y028843D01*
X022403Y028857D01*
X022445Y028868D01*
X022488Y028875D01*
X022531Y028878D01*
X022574Y028877D01*
X022617Y028872D01*
X022660Y028863D01*
X022701Y028851D01*
X022741Y028834D01*
X022779Y028814D01*
X022816Y028791D01*
X022850Y028765D01*
X022882Y028735D01*
X022910Y028703D01*
X022936Y028668D01*
X022959Y028631D01*
X022978Y028592D01*
X022993Y028552D01*
X023005Y028510D01*
X023013Y028468D01*
X023017Y028425D01*
X023017Y028381D01*
X023013Y028338D01*
X023005Y028296D01*
X022993Y028254D01*
X022978Y028214D01*
X022959Y028175D01*
X022936Y028138D01*
X022910Y028103D01*
X022882Y028071D01*
X022850Y028041D01*
X022816Y028015D01*
X022780Y027992D01*
X022741Y027972D01*
X022701Y027955D01*
X022660Y027943D01*
X022617Y027934D01*
X022574Y027929D01*
X022531Y027928D01*
X022488Y027931D01*
X022445Y027938D01*
X022403Y027949D01*
X022363Y027963D01*
X022323Y027981D01*
X022286Y028003D01*
X022251Y028028D01*
X022218Y028056D01*
X022188Y028087D01*
X022160Y028120D01*
X022136Y028156D01*
X022115Y028194D01*
X022098Y028234D01*
X022085Y028275D01*
X022075Y028317D01*
X022069Y028360D01*
X022067Y028403D01*
X022067Y031277D02*
X022069Y031320D01*
X022075Y031363D01*
X022085Y031405D01*
X022098Y031446D01*
X022115Y031486D01*
X022136Y031524D01*
X022160Y031560D01*
X022188Y031593D01*
X022218Y031624D01*
X022251Y031652D01*
X022286Y031677D01*
X022323Y031699D01*
X022363Y031717D01*
X022403Y031731D01*
X022445Y031742D01*
X022488Y031749D01*
X022531Y031752D01*
X022574Y031751D01*
X022617Y031746D01*
X022660Y031737D01*
X022701Y031725D01*
X022741Y031708D01*
X022779Y031688D01*
X022816Y031665D01*
X022850Y031639D01*
X022882Y031609D01*
X022910Y031577D01*
X022936Y031542D01*
X022959Y031505D01*
X022978Y031466D01*
X022993Y031426D01*
X023005Y031384D01*
X023013Y031342D01*
X023017Y031299D01*
X023017Y031255D01*
X023013Y031212D01*
X023005Y031170D01*
X022993Y031128D01*
X022978Y031088D01*
X022959Y031049D01*
X022936Y031012D01*
X022910Y030977D01*
X022882Y030945D01*
X022850Y030915D01*
X022816Y030889D01*
X022780Y030866D01*
X022741Y030846D01*
X022701Y030829D01*
X022660Y030817D01*
X022617Y030808D01*
X022574Y030803D01*
X022531Y030802D01*
X022488Y030805D01*
X022445Y030812D01*
X022403Y030823D01*
X022363Y030837D01*
X022323Y030855D01*
X022286Y030877D01*
X022251Y030902D01*
X022218Y030930D01*
X022188Y030961D01*
X022160Y030994D01*
X022136Y031030D01*
X022115Y031068D01*
X022098Y031108D01*
X022085Y031149D01*
X022075Y031191D01*
X022069Y031234D01*
X022067Y031277D01*
X029156Y031686D02*
X029158Y031729D01*
X029164Y031771D01*
X029174Y031813D01*
X029187Y031854D01*
X029204Y031894D01*
X029225Y031931D01*
X029249Y031967D01*
X029276Y032000D01*
X029306Y032031D01*
X029339Y032059D01*
X029374Y032084D01*
X029411Y032105D01*
X029450Y032123D01*
X029490Y032137D01*
X029532Y032148D01*
X029574Y032155D01*
X029617Y032158D01*
X029660Y032157D01*
X029703Y032152D01*
X029745Y032143D01*
X029786Y032131D01*
X029826Y032115D01*
X029864Y032095D01*
X029900Y032072D01*
X029934Y032045D01*
X029966Y032016D01*
X029994Y031984D01*
X030020Y031949D01*
X030042Y031913D01*
X030061Y031874D01*
X030076Y031834D01*
X030088Y031793D01*
X030096Y031750D01*
X030100Y031707D01*
X030100Y031665D01*
X030096Y031622D01*
X030088Y031579D01*
X030076Y031538D01*
X030061Y031498D01*
X030042Y031459D01*
X030020Y031423D01*
X029994Y031388D01*
X029966Y031356D01*
X029934Y031327D01*
X029900Y031300D01*
X029864Y031277D01*
X029826Y031257D01*
X029786Y031241D01*
X029745Y031229D01*
X029703Y031220D01*
X029660Y031215D01*
X029617Y031214D01*
X029574Y031217D01*
X029532Y031224D01*
X029490Y031235D01*
X029450Y031249D01*
X029411Y031267D01*
X029374Y031288D01*
X029339Y031313D01*
X029306Y031341D01*
X029276Y031372D01*
X029249Y031405D01*
X029225Y031441D01*
X029204Y031478D01*
X029187Y031518D01*
X029174Y031559D01*
X029164Y031601D01*
X029158Y031643D01*
X029156Y031686D01*
X025069Y009978D02*
X025071Y010017D01*
X025077Y010056D01*
X025087Y010094D01*
X025100Y010131D01*
X025117Y010166D01*
X025137Y010200D01*
X025161Y010231D01*
X025188Y010260D01*
X025217Y010286D01*
X025249Y010309D01*
X025283Y010329D01*
X025319Y010345D01*
X025356Y010357D01*
X025395Y010366D01*
X025434Y010371D01*
X025473Y010372D01*
X025512Y010369D01*
X025551Y010362D01*
X025588Y010351D01*
X025625Y010337D01*
X025660Y010319D01*
X025693Y010298D01*
X025724Y010273D01*
X025752Y010246D01*
X025777Y010216D01*
X025799Y010183D01*
X025818Y010149D01*
X025833Y010113D01*
X025845Y010075D01*
X025853Y010037D01*
X025857Y009998D01*
X025857Y009958D01*
X025853Y009919D01*
X025845Y009881D01*
X025833Y009843D01*
X025818Y009807D01*
X025799Y009773D01*
X025777Y009740D01*
X025752Y009710D01*
X025724Y009683D01*
X025693Y009658D01*
X025660Y009637D01*
X025625Y009619D01*
X025588Y009605D01*
X025551Y009594D01*
X025512Y009587D01*
X025473Y009584D01*
X025434Y009585D01*
X025395Y009590D01*
X025356Y009599D01*
X025319Y009611D01*
X025283Y009627D01*
X025249Y009647D01*
X025217Y009670D01*
X025188Y009696D01*
X025161Y009725D01*
X025137Y009756D01*
X025117Y009790D01*
X025100Y009825D01*
X025087Y009862D01*
X025077Y009900D01*
X025071Y009939D01*
X025069Y009978D01*
X029156Y002159D02*
X029158Y002202D01*
X029164Y002244D01*
X029174Y002286D01*
X029187Y002327D01*
X029204Y002367D01*
X029225Y002404D01*
X029249Y002440D01*
X029276Y002473D01*
X029306Y002504D01*
X029339Y002532D01*
X029374Y002557D01*
X029411Y002578D01*
X029450Y002596D01*
X029490Y002610D01*
X029532Y002621D01*
X029574Y002628D01*
X029617Y002631D01*
X029660Y002630D01*
X029703Y002625D01*
X029745Y002616D01*
X029786Y002604D01*
X029826Y002588D01*
X029864Y002568D01*
X029900Y002545D01*
X029934Y002518D01*
X029966Y002489D01*
X029994Y002457D01*
X030020Y002422D01*
X030042Y002386D01*
X030061Y002347D01*
X030076Y002307D01*
X030088Y002266D01*
X030096Y002223D01*
X030100Y002180D01*
X030100Y002138D01*
X030096Y002095D01*
X030088Y002052D01*
X030076Y002011D01*
X030061Y001971D01*
X030042Y001932D01*
X030020Y001896D01*
X029994Y001861D01*
X029966Y001829D01*
X029934Y001800D01*
X029900Y001773D01*
X029864Y001750D01*
X029826Y001730D01*
X029786Y001714D01*
X029745Y001702D01*
X029703Y001693D01*
X029660Y001688D01*
X029617Y001687D01*
X029574Y001690D01*
X029532Y001697D01*
X029490Y001708D01*
X029450Y001722D01*
X029411Y001740D01*
X029374Y001761D01*
X029339Y001786D01*
X029306Y001814D01*
X029276Y001845D01*
X029249Y001878D01*
X029225Y001914D01*
X029204Y001951D01*
X029187Y001991D01*
X029174Y002032D01*
X029164Y002074D01*
X029158Y002116D01*
X029156Y002159D01*
X000810Y031686D02*
X000812Y031729D01*
X000818Y031771D01*
X000828Y031813D01*
X000841Y031854D01*
X000858Y031894D01*
X000879Y031931D01*
X000903Y031967D01*
X000930Y032000D01*
X000960Y032031D01*
X000993Y032059D01*
X001028Y032084D01*
X001065Y032105D01*
X001104Y032123D01*
X001144Y032137D01*
X001186Y032148D01*
X001228Y032155D01*
X001271Y032158D01*
X001314Y032157D01*
X001357Y032152D01*
X001399Y032143D01*
X001440Y032131D01*
X001480Y032115D01*
X001518Y032095D01*
X001554Y032072D01*
X001588Y032045D01*
X001620Y032016D01*
X001648Y031984D01*
X001674Y031949D01*
X001696Y031913D01*
X001715Y031874D01*
X001730Y031834D01*
X001742Y031793D01*
X001750Y031750D01*
X001754Y031707D01*
X001754Y031665D01*
X001750Y031622D01*
X001742Y031579D01*
X001730Y031538D01*
X001715Y031498D01*
X001696Y031459D01*
X001674Y031423D01*
X001648Y031388D01*
X001620Y031356D01*
X001588Y031327D01*
X001554Y031300D01*
X001518Y031277D01*
X001480Y031257D01*
X001440Y031241D01*
X001399Y031229D01*
X001357Y031220D01*
X001314Y031215D01*
X001271Y031214D01*
X001228Y031217D01*
X001186Y031224D01*
X001144Y031235D01*
X001104Y031249D01*
X001065Y031267D01*
X001028Y031288D01*
X000993Y031313D01*
X000960Y031341D01*
X000930Y031372D01*
X000903Y031405D01*
X000879Y031441D01*
X000858Y031478D01*
X000841Y031518D01*
X000828Y031559D01*
X000818Y031601D01*
X000812Y031643D01*
X000810Y031686D01*
D11*
X014569Y004336D03*
X015357Y004336D03*
X018309Y004336D03*
X019097Y004336D03*
D12*
X020101Y002178D03*
X017306Y002178D03*
X016361Y002178D03*
X013565Y002178D03*
D13*
X009798Y009584D03*
X005829Y009584D03*
X002609Y015084D03*
X002609Y021084D03*
X023479Y009978D03*
X027447Y009978D03*
X030168Y015084D03*
X030168Y021084D03*
D14*
X029784Y008710D03*
X021142Y008710D03*
X012134Y008316D03*
X003493Y008316D03*
D15*
X005829Y006080D03*
X006431Y002084D03*
X009798Y006080D03*
X011388Y002084D03*
X023479Y006474D03*
X027447Y006474D03*
X027463Y002084D03*
D16*
X024888Y025084D03*
X020888Y025084D03*
X019388Y025084D03*
X015388Y025084D03*
X013388Y025084D03*
X009388Y025084D03*
X006494Y025084D03*
X003569Y027084D03*
X002494Y025084D03*
X003569Y031084D03*
X011888Y031084D03*
X011888Y029478D03*
X015888Y029478D03*
X015888Y031084D03*
D17*
X009888Y030669D03*
X008888Y030669D03*
X007888Y030659D03*
X006888Y030669D03*
X004888Y030669D03*
X004888Y027499D03*
X006888Y027499D03*
X007888Y027499D03*
X008888Y027499D03*
X009888Y027499D03*
D18*
X018565Y029249D03*
X018565Y030430D03*
X020388Y030430D03*
X020388Y029249D03*
D19*
X020967Y023812D03*
D20*
X020967Y024206D01*
X020089Y025084D01*
X020089Y025297D01*
X021361Y026568D01*
X020089Y025084D02*
X019388Y025084D01*
X019695Y025084D01*
X017424Y026962D02*
X017424Y028108D01*
X017638Y028322D01*
X017817Y028501D01*
X017817Y028537D01*
X017638Y028322D02*
X018565Y029249D01*
X018565Y030430D02*
X016845Y028710D01*
X016845Y028371D01*
X016845Y026777D01*
X017030Y026568D01*
X016636Y026174D02*
X016243Y026568D01*
X016227Y026584D01*
X010888Y026584D01*
X009388Y025084D01*
X009550Y026568D02*
X010337Y026568D01*
X011124Y027356D01*
X015455Y027356D01*
X016243Y026568D02*
X016243Y028730D01*
X016243Y029478D01*
X016243Y029718D01*
X017424Y030899D01*
X019920Y030899D01*
X020388Y030430D01*
X020388Y029249D02*
X014164Y023025D01*
X012306Y023025D01*
X009156Y023025D01*
X007975Y024206D01*
X007975Y025997D01*
X007888Y026084D01*
X007888Y026875D01*
X007975Y026962D01*
X007975Y027413D01*
X007888Y027499D01*
X006888Y027499D02*
X006494Y027106D01*
X006494Y025084D01*
X007888Y026084D02*
X007975Y026084D01*
X008888Y027230D02*
X009550Y026568D01*
X008888Y027230D02*
X008888Y027499D01*
X011888Y031084D02*
X011388Y031584D01*
X005804Y031584D01*
X004888Y030669D01*
X004473Y031084D01*
X003569Y031084D01*
X002176Y029690D01*
X002176Y026190D01*
X002494Y025871D01*
X002494Y025084D01*
X003569Y027084D02*
X003985Y027499D01*
X004888Y027499D01*
X002609Y021084D02*
X002609Y015084D01*
X002609Y004726D01*
X006431Y002084D01*
X005829Y006080D02*
X007703Y006080D01*
X009207Y007190D01*
X013794Y007190D01*
X020180Y013576D01*
X021361Y014363D02*
X021361Y012001D01*
X019120Y008974D01*
X019097Y004336D01*
X018309Y004336D02*
X018211Y004070D01*
X018211Y006489D01*
X020573Y006489D02*
X021361Y006489D01*
X022935Y008064D01*
X023479Y008608D01*
X023479Y009978D01*
X023479Y006474D02*
X026069Y006474D01*
X028841Y009639D01*
X028841Y012001D01*
X026872Y013576D02*
X028447Y015151D01*
X030101Y015151D01*
X030168Y015084D01*
X028841Y017513D02*
X028841Y019757D01*
X030168Y021084D01*
X026782Y022084D02*
X026719Y022084D01*
X022542Y017907D01*
X022542Y016482D01*
X023872Y015151D01*
X023872Y013552D01*
X027447Y009978D01*
X027447Y006474D02*
X027447Y002493D01*
X027463Y002084D01*
X026872Y013576D02*
X024510Y013576D01*
X022542Y017907D02*
X021361Y017907D01*
X017817Y021450D01*
X015298Y024993D02*
X014668Y024993D01*
X014274Y025387D01*
X014274Y026174D01*
X014274Y025387D02*
X013971Y025084D01*
X013388Y025084D01*
X015298Y024993D02*
X015388Y025084D01*
X015888Y029478D02*
X016243Y029478D01*
X024798Y026818D02*
X024904Y025100D01*
X024888Y025084D01*
X015849Y011608D02*
X013880Y009639D01*
X013880Y010426D01*
X012699Y011608D01*
X007853Y011608D01*
X005829Y009584D01*
X009798Y006080D02*
X011388Y005671D01*
X011388Y002084D01*
X014668Y004070D02*
X014569Y004336D01*
X014668Y004070D02*
X014668Y006489D01*
X015353Y007174D02*
X015455Y007277D01*
X015353Y007174D02*
X015357Y004336D01*
X013825Y009584D02*
X013880Y009639D01*
D21*
X013880Y009639D03*
X015849Y011608D03*
X015455Y007277D03*
X014668Y006489D03*
X018211Y006489D03*
X020573Y006489D03*
X020180Y013576D03*
X021361Y014363D03*
X024510Y013576D03*
X028841Y012001D03*
X028841Y017513D03*
X025298Y025781D03*
X024798Y026818D03*
X021361Y026568D03*
X017817Y028537D03*
X016845Y028371D03*
X017424Y026962D03*
X017030Y026568D03*
X016636Y026174D03*
X015455Y027356D03*
X014274Y026174D03*
D22*
X017817Y021450D03*
X026782Y022084D03*
M02*
