G75*
G70*
%OFA0B0*%
%FSLAX24Y24*%
%IPPOS*%
%LPD*%
%AMOC8*
5,1,8,0,0,1.08239X$1,22.5*
%
%ADD10C,0.1734*%
%ADD11R,0.0552X0.1340*%
%ADD12R,0.0749X0.2167*%
%ADD13C,0.0740*%
%ADD14C,0.1080*%
%ADD15C,0.1980*%
%ADD16R,0.1202X0.0434*%
%ADD17C,0.0456*%
D10*
X002552Y002946D03*
X002552Y013379D03*
X038182Y013379D03*
X038182Y002946D03*
D11*
X030713Y011426D03*
X029926Y011426D03*
X025583Y011426D03*
X024796Y011426D03*
X019607Y011426D03*
X018820Y011426D03*
X014871Y011426D03*
X014083Y011426D03*
D12*
X013079Y013584D03*
X015875Y013584D03*
X017816Y013584D03*
X020611Y013584D03*
X023792Y013584D03*
X026587Y013584D03*
X028922Y013584D03*
X031717Y013584D03*
D13*
X034048Y013214D03*
X023843Y009639D03*
X025355Y008852D03*
X029355Y008852D03*
X034048Y009214D03*
X035599Y008954D03*
X035599Y004954D03*
X019883Y007879D03*
X015883Y007879D03*
X014666Y008954D03*
X010666Y008954D03*
X019843Y009639D03*
X010272Y004068D03*
X006272Y004068D03*
D14*
X021575Y003028D03*
X023875Y003028D03*
X023875Y005328D03*
X021575Y005328D03*
D15*
X014615Y004178D03*
X030835Y004178D03*
D16*
X008861Y009501D03*
X005692Y009501D03*
X005692Y011501D03*
X005692Y012501D03*
X005692Y013501D03*
X005692Y014501D03*
X008861Y014501D03*
X008861Y013501D03*
X008861Y012501D03*
X008861Y011501D03*
D17*
X009638Y012001D03*
X011213Y013182D03*
X017512Y012222D03*
X024599Y010033D03*
X026961Y011214D03*
X030505Y012395D03*
X032079Y010033D03*
X030111Y006489D03*
X022631Y004127D03*
X019875Y006096D03*
X016725Y004127D03*
X008851Y002159D03*
X006095Y008064D03*
X008753Y008360D03*
X016725Y009639D03*
M02*
